WD-XL_Lubrifont-SC.ufo
<glyph name="seven" format="2">
  <advance width="385"/>
  <unicode hex="0037"/>
  <outline>
    <contour>
      <point x="254" y="32" type="qcurve" smooth="yes"/>
      <point x="254" y="582" type="line" smooth="yes"/>
      <point x="254" y="622"/>
      <point x="214" y="622" type="qcurve" smooth="yes"/>
      <point x="55" y="622" type="line" smooth="yes"/>
      <point x="15" y="622"/>
      <point x="15" y="662" type="qcurve" smooth="yes"/>
      <point x="15" y="673" type="line" smooth="yes"/>
      <point x="15" y="713"/>
      <point x="55" y="713" type="qcurve" smooth="yes"/>
      <point x="243" y="713" type="line" smooth="yes"/>
      <point x="273" y="713"/>
      <point x="293" y="693" type="qcurve" smooth="yes"/>
      <point x="325" y="661" type="line" smooth="yes"/>
      <point x="345" y="641"/>
      <point x="345" y="612" type="qcurve" smooth="yes"/>
      <point x="345" y="32" type="line" smooth="yes"/>
      <point x="345" y="-8"/>
      <point x="305" y="-8" type="qcurve" smooth="yes"/>
      <point x="294" y="-8" type="line" smooth="yes"/>
      <point x="254" y="-8"/>
    </contour>
  </outline>
</glyph>
<glyph name="greater" format="2">
  <advance width="557"/>
  <unicode hex="003E"/>
  <outline>
    <contour>
      <point x="64" y="-48" type="qcurve"/>
      <point x="54" y="-37" type="line"/>
      <point x="40" y="-23"/>
      <point x="40" y="-9" type="qcurve"/>
      <point x="39" y="5"/>
      <point x="52" y="19" type="qcurve" smooth="yes"/>
      <point x="359" y="345" type="line"/>
      <point x="371" y="360"/>
      <point x="371" y="373" type="qcurve" smooth="yes"/>
      <point x="371" y="387"/>
      <point x="357" y="401" type="qcurve" smooth="yes"/>
      <point x="56" y="697" type="line" smooth="yes"/>
      <point x="42" y="711"/>
      <point x="42" y="726" type="qcurve" smooth="yes"/>
      <point x="42" y="741"/>
      <point x="55" y="754" type="qcurve"/>
      <point x="66" y="766" type="line" smooth="yes"/>
      <point x="80" y="781"/>
      <point x="95" y="781" type="qcurve" smooth="yes"/>
      <point x="109" y="781"/>
      <point x="122" y="768" type="qcurve" smooth="yes"/>
      <point x="501" y="401" type="line"/>
      <point x="515" y="388"/>
      <point x="516" y="373" type="qcurve" smooth="yes"/>
      <point x="517" y="359"/>
      <point x="503" y="345" type="qcurve" smooth="yes"/>
      <point x="121" y="-47" type="line" smooth="yes"/>
      <point x="107" y="-62"/>
      <point x="92" y="-62" type="qcurve" smooth="yes"/>
      <point x="78" y="-62"/>
    </contour>
  </outline>
</glyph>
<glyph name="section" format="2">
  <advance width="496"/>
  <unicode hex="00A7"/>
  <outline>
    <contour>
      <point x="420" y="194" type="line"/>
      <point x="426" y="187" type="line"/>
      <point x="446" y="167"/>
      <point x="446" y="138" type="qcurve" smooth="yes"/>
      <point x="446" y="11" type="line" smooth="yes"/>
      <point x="446" y="-18"/>
      <point x="426" y="-39" type="qcurve"/>
      <point x="394" y="-71" type="line" smooth="yes"/>
      <point x="374" y="-91"/>
      <point x="345" y="-91" type="qcurve" smooth="yes"/>
      <point x="152" y="-91" type="line" smooth="yes"/>
      <point x="123" y="-91"/>
      <point x="103" y="-71" type="qcurve" smooth="yes"/>
      <point x="70" y="-38" type="line" smooth="yes"/>
      <point x="50" y="-18"/>
      <point x="50" y="11" type="qcurve" smooth="yes"/>
      <point x="50" y="40" type="line" smooth="yes"/>
      <point x="50" y="80"/>
      <point x="90" y="80" type="qcurve" smooth="yes"/>
      <point x="101" y="80" type="line" smooth="yes"/>
      <point x="141" y="80"/>
      <point x="141" y="40" type="qcurve"/>
      <point x="141" y="0"/>
      <point x="181" y="0" type="qcurve" smooth="yes"/>
      <point x="315" y="0" type="line" smooth="yes"/>
      <point x="355" y="0"/>
      <point x="355" y="40" type="qcurve" smooth="yes"/>
      <point x="355" y="109" type="line" smooth="yes"/>
      <point x="355" y="143"/>
      <point x="326" y="148" type="qcurve"/>
      <point x="152" y="148" type="line" smooth="yes"/>
      <point x="123" y="148"/>
      <point x="103" y="168" type="qcurve" smooth="yes"/>
      <point x="70" y="201" type="line" smooth="yes"/>
      <point x="50" y="221"/>
      <point x="50" y="250" type="qcurve" smooth="yes"/>
      <point x="50" y="441" type="line" smooth="yes"/>
      <point x="50" y="470"/>
      <point x="70" y="491" type="qcurve"/>
      <point x="77" y="498" type="line"/>
      <point x="70" y="505" type="line" smooth="yes"/>
      <point x="50" y="525"/>
      <point x="50" y="554" type="qcurve" smooth="yes"/>
      <point x="50" y="681" type="line"/>
      <point x="49" y="710"/>
      <point x="70" y="731" type="qcurve" smooth="yes"/>
      <point x="102" y="763" type="line" smooth="yes"/>
      <point x="122" y="783"/>
      <point x="151" y="783" type="qcurve" smooth="yes"/>
      <point x="345" y="783" type="line" smooth="yes"/>
      <point x="373" y="783"/>
      <point x="394" y="762" type="qcurve" smooth="yes"/>
      <point x="426" y="730" type="line" smooth="yes"/>
      <point x="446" y="710"/>
      <point x="446" y="681" type="qcurve" smooth="yes"/>
      <point x="446" y="652" type="line" smooth="yes"/>
      <point x="446" y="612"/>
      <point x="406" y="612" type="qcurve" smooth="yes"/>
      <point x="395" y="612" type="line" smooth="yes"/>
      <point x="355" y="612"/>
      <point x="355" y="652" type="qcurve" smooth="yes"/>
      <point x="355" y="692"/>
      <point x="315" y="692" type="qcurve" smooth="yes"/>
      <point x="181" y="692" type="line" smooth="yes"/>
      <point x="141" y="692"/>
      <point x="141" y="652" type="qcurve" smooth="yes"/>
      <point x="141" y="583" type="line" smooth="yes"/>
      <point x="141" y="543"/>
      <point x="181" y="543" type="qcurve" smooth="yes"/>
      <point x="345" y="543" type="line" smooth="yes"/>
      <point x="374" y="543"/>
      <point x="394" y="523" type="qcurve" smooth="yes"/>
      <point x="426" y="491" type="line" smooth="yes"/>
      <point x="446" y="471"/>
      <point x="446" y="442" type="qcurve" smooth="yes"/>
      <point x="446" y="250" type="line"/>
      <point x="447" y="221"/>
      <point x="426" y="200" type="qcurve" smooth="yes"/>
    </contour>
    <contour>
      <point x="141" y="279" type="line" smooth="yes"/>
      <point x="141" y="239"/>
      <point x="181" y="239" type="qcurve" smooth="yes"/>
      <point x="315" y="239" type="line" smooth="yes"/>
      <point x="355" y="239"/>
      <point x="355" y="279" type="qcurve" smooth="yes"/>
      <point x="355" y="412" type="line" smooth="yes"/>
      <point x="355" y="452"/>
      <point x="315" y="452" type="qcurve" smooth="yes"/>
      <point x="181" y="452" type="line" smooth="yes"/>
      <point x="141" y="452"/>
      <point x="141" y="412" type="qcurve" smooth="yes"/>
    </contour>
  </outline>
</glyph>
<glyph name="dieresis" format="2">
  <advance width="243"/>
  <unicode hex="00A8"/>
  <outline>
    <contour>
      <point x="40" y="649" type="qcurve" smooth="yes"/>
      <point x="17" y="649"/>
      <point x="-10" y="679"/>
      <point x="-10" y="699" type="qcurve" smooth="yes"/>
      <point x="-10" y="719"/>
      <point x="19" y="748"/>
      <point x="40" y="748" type="qcurve" smooth="yes"/>
      <point x="62" y="748"/>
      <point x="90" y="717"/>
      <point x="90" y="699" type="qcurve" smooth="yes"/>
      <point x="90" y="680"/>
      <point x="61" y="649"/>
    </contour>
    <contour>
      <point x="203" y="649" type="qcurve" smooth="yes"/>
      <point x="181" y="649"/>
      <point x="154" y="680"/>
      <point x="154" y="699" type="qcurve" smooth="yes"/>
      <point x="154" y="719"/>
      <point x="182" y="748"/>
      <point x="203" y="748" type="qcurve" smooth="yes"/>
      <point x="225" y="748"/>
      <point x="253" y="717"/>
      <point x="253" y="699" type="qcurve" smooth="yes"/>
      <point x="253" y="680"/>
      <point x="224" y="649"/>
    </contour>
  </outline>
</glyph>
<glyph name="registered" format="2">
  <advance width="670"/>
  <unicode hex="00AE"/>
  <outline>
    <contour>
      <point x="16" y="343" type="qcurve" smooth="yes"/>
      <point x="16" y="403"/>
      <point x="61" y="508"/>
      <point x="139" y="586"/>
      <point x="245" y="632"/>
      <point x="305" y="632" type="qcurve" smooth="yes"/>
      <point x="365" y="632"/>
      <point x="470" y="587"/>
      <point x="548" y="509"/>
      <point x="594" y="404"/>
      <point x="594" y="343" type="qcurve" smooth="yes"/>
      <point x="594" y="283"/>
      <point x="549" y="178"/>
      <point x="471" y="100"/>
      <point x="366" y="55"/>
      <point x="305" y="55" type="qcurve" smooth="yes"/>
      <point x="245" y="55"/>
      <point x="140" y="100"/>
      <point x="62" y="178"/>
      <point x="16" y="283"/>
    </contour>
    <contour>
      <point x="81" y="343" type="qcurve" smooth="yes"/>
      <point x="81" y="297"/>
      <point x="116" y="216"/>
      <point x="176" y="155"/>
      <point x="258" y="120"/>
      <point x="305" y="120" type="qcurve" smooth="yes"/>
      <point x="351" y="120"/>
      <point x="433" y="155"/>
      <point x="494" y="215"/>
      <point x="529" y="296"/>
      <point x="529" y="343" type="qcurve" smooth="yes"/>
      <point x="529" y="389"/>
      <point x="494" y="471"/>
      <point x="434" y="532"/>
      <point x="352" y="567"/>
      <point x="305" y="567" type="qcurve" smooth="yes"/>
      <point x="259" y="567"/>
      <point x="177" y="532"/>
      <point x="116" y="472"/>
      <point x="81" y="390"/>
    </contour>
    <contour>
      <point x="204" y="182" type="line"/>
      <point x="164" y="182"/>
      <point x="164" y="222" type="qcurve" smooth="yes"/>
      <point x="164" y="467" type="line" smooth="yes"/>
      <point x="164" y="507"/>
      <point x="204" y="507" type="qcurve" smooth="yes"/>
      <point x="347" y="507" type="line" smooth="yes"/>
      <point x="387" y="507"/>
      <point x="415" y="479" type="qcurve" smooth="yes"/>
      <point x="424" y="470" type="line" smooth="yes"/>
      <point x="452" y="442"/>
      <point x="452" y="402" type="qcurve" smooth="yes"/>
      <point x="452" y="378" type="line" smooth="yes"/>
      <point x="452" y="343"/>
      <point x="427" y="318" type="qcurve" smooth="yes"/>
      <point x="412" y="303" type="line" smooth="yes"/>
      <point x="402" y="293"/>
      <point x="402" y="278" type="qcurve" smooth="yes"/>
      <point x="402" y="261"/>
      <point x="417" y="261" type="qcurve" smooth="yes"/>
      <point x="452" y="261"/>
      <point x="452" y="226" type="qcurve" smooth="yes"/>
      <point x="452" y="217" type="line" smooth="yes"/>
      <point x="452" y="182"/>
      <point x="417" y="182" type="qcurve" smooth="yes"/>
      <point x="382" y="182"/>
      <point x="357" y="207" type="qcurve" smooth="yes"/>
      <point x="333" y="231" type="line" smooth="yes"/>
      <point x="319" y="245"/>
      <point x="317" y="270" type="qcurve"/>
      <point x="314" y="293"/>
      <point x="286" y="293" type="qcurve" smooth="yes"/>
      <point x="246" y="293"/>
      <point x="246" y="253" type="qcurve" smooth="yes"/>
      <point x="246" y="222" type="line" smooth="yes"/>
      <point x="246" y="182"/>
      <point x="206" y="182" type="qcurve"/>
    </contour>
    <contour>
      <point x="246" y="398" type="qcurve" smooth="yes"/>
      <point x="246" y="374"/>
      <point x="270" y="374" type="qcurve" smooth="yes"/>
      <point x="347" y="374" type="line" smooth="yes"/>
      <point x="371" y="374"/>
      <point x="371" y="398" type="qcurve" smooth="yes"/>
      <point x="371" y="422"/>
      <point x="347" y="422" type="qcurve" smooth="yes"/>
      <point x="270" y="422" type="line" smooth="yes"/>
      <point x="246" y="422"/>
    </contour>
  </outline>
</glyph>
<glyph name="paragraph" format="2">
  <advance width="599"/>
  <unicode hex="00B6"/>
  <outline>
    <contour>
      <point x="152" y="236" type="line" smooth="yes"/>
      <point x="123" y="236"/>
      <point x="103" y="256" type="qcurve" smooth="yes"/>
      <point x="71" y="288" type="line" smooth="yes"/>
      <point x="51" y="309"/>
      <point x="51" y="338" type="qcurve" smooth="yes"/>
      <point x="51" y="606" type="line" smooth="yes"/>
      <point x="51" y="635"/>
      <point x="71" y="656" type="qcurve" smooth="yes"/>
      <point x="103" y="688" type="line" smooth="yes"/>
      <point x="123" y="708"/>
      <point x="152" y="708" type="qcurve" smooth="yes"/>
      <point x="430" y="708" type="line" smooth="yes"/>
      <point x="470" y="708"/>
      <point x="470" y="668" type="qcurve" smooth="yes"/>
      <point x="470" y="30" type="line" smooth="yes"/>
      <point x="470" y="-10"/>
      <point x="430" y="-10" type="qcurve" smooth="yes"/>
      <point x="419" y="-10" type="line" smooth="yes"/>
      <point x="379" y="-10"/>
      <point x="379" y="30" type="qcurve" smooth="yes"/>
      <point x="379" y="578" type="line" smooth="yes"/>
      <point x="379" y="617"/>
      <point x="339" y="617" type="qcurve" smooth="yes"/>
      <point x="300" y="617"/>
      <point x="300" y="578" type="qcurve" smooth="yes"/>
      <point x="300" y="276" type="line" smooth="yes"/>
      <point x="300" y="236"/>
      <point x="260" y="236" type="qcurve" smooth="yes"/>
    </contour>
  </outline>
</glyph>
<glyph name="cedilla" format="2">
  <advance width="180"/>
  <unicode hex="00B8"/>
  <outline>
    <contour>
      <point x="39" y="0" type="line"/>
      <point x="124" y="0" type="line"/>
      <point x="124" y="-11" type="line" smooth="yes"/>
      <point x="124" y="-26"/>
      <point x="140" y="-26" type="qcurve"/>
      <point x="154" y="-27"/>
      <point x="166" y="-37" type="qcurve" smooth="yes"/>
      <point x="187" y="-56" type="line" smooth="yes"/>
      <point x="201" y="-68"/>
      <point x="215" y="-106"/>
      <point x="215" y="-124" type="qcurve" smooth="yes"/>
      <point x="215" y="-169" type="line" smooth="yes"/>
      <point x="215" y="-187"/>
      <point x="193" y="-210"/>
      <point x="175" y="-211" type="qcurve" smooth="yes"/>
      <point x="79" y="-215" type="line" smooth="yes"/>
      <point x="39" y="-217"/>
      <point x="39" y="-177" type="qcurve" smooth="yes"/>
      <point x="39" y="-173" type="line" smooth="yes"/>
      <point x="39" y="-133"/>
      <point x="79" y="-133" type="qcurve"/>
      <point x="123" y="-132" type="line"/>
      <point x="142" y="-132"/>
      <point x="142" y="-118" type="qcurve" smooth="yes"/>
      <point x="142" y="-113"/>
      <point x="129" y="-104"/>
      <point x="120" y="-104" type="qcurve" smooth="yes"/>
      <point x="99" y="-104"/>
      <point x="84" y="-89" type="qcurve" smooth="yes"/>
      <point x="67" y="-72" type="line" smooth="yes"/>
      <point x="39" y="-44"/>
      <point x="39" y="-4" type="qcurve" smooth="yes"/>
    </contour>
  </outline>
</glyph>
<glyph name="uni00BB" format="2">
  <advance width="405"/>
  <unicode hex="00BB"/>
  <outline>
    <contour>
      <point x="182" y="19" type="qcurve" smooth="yes"/>
      <point x="182" y="25"/>
      <point x="185" y="32" type="qcurve" smooth="yes"/>
      <point x="267" y="229" type="line" smooth="yes"/>
      <point x="273" y="244"/>
      <point x="273" y="261" type="qcurve" smooth="yes"/>
      <point x="273" y="280"/>
      <point x="267" y="293" type="qcurve" smooth="yes"/>
      <point x="185" y="490" type="line" smooth="yes"/>
      <point x="182" y="498"/>
      <point x="182" y="503" type="qcurve" smooth="yes"/>
      <point x="182" y="509"/>
      <point x="191" y="522"/>
      <point x="207" y="522" type="qcurve" smooth="yes"/>
      <point x="224" y="522" type="line" smooth="yes"/>
      <point x="240" y="522"/>
      <point x="266" y="504"/>
      <point x="272" y="490" type="qcurve" smooth="yes"/>
      <point x="354" y="293" type="line" smooth="yes"/>
      <point x="360" y="280"/>
      <point x="360" y="261" type="qcurve" smooth="yes"/>
      <point x="360" y="244"/>
      <point x="354" y="229" type="qcurve" smooth="yes"/>
      <point x="272" y="32" type="line" smooth="yes"/>
      <point x="266" y="18"/>
      <point x="240" y="0"/>
      <point x="224" y="0" type="qcurve" smooth="yes"/>
      <point x="207" y="0" type="line" smooth="yes"/>
      <point x="191" y="0"/>
      <point x="182" y="14"/>
    </contour>
    <contour>
      <point x="35" y="19" type="qcurve" smooth="yes"/>
      <point x="35" y="25"/>
      <point x="38" y="32" type="qcurve" smooth="yes"/>
      <point x="120" y="229" type="line" smooth="yes"/>
      <point x="126" y="244"/>
      <point x="126" y="261" type="qcurve" smooth="yes"/>
      <point x="126" y="280"/>
      <point x="120" y="293" type="qcurve" smooth="yes"/>
      <point x="38" y="490" type="line" smooth="yes"/>
      <point x="35" y="498"/>
      <point x="35" y="503" type="qcurve" smooth="yes"/>
      <point x="35" y="509"/>
      <point x="44" y="522"/>
      <point x="60" y="522" type="qcurve" smooth="yes"/>
      <point x="77" y="522" type="line" smooth="yes"/>
      <point x="93" y="522"/>
      <point x="119" y="504"/>
      <point x="125" y="490" type="qcurve" smooth="yes"/>
      <point x="207" y="293" type="line" smooth="yes"/>
      <point x="213" y="280"/>
      <point x="213" y="261" type="qcurve" smooth="yes"/>
      <point x="213" y="244"/>
      <point x="207" y="229" type="qcurve" smooth="yes"/>
      <point x="125" y="32" type="line" smooth="yes"/>
      <point x="119" y="18"/>
      <point x="93" y="0"/>
      <point x="77" y="0" type="qcurve" smooth="yes"/>
      <point x="60" y="0" type="line" smooth="yes"/>
      <point x="44" y="0"/>
      <point x="35" y="14"/>
    </contour>
  </outline>
</glyph>
<glyph name="onequarter" format="2">
  <advance width="765"/>
  <unicode hex="00BC"/>
  <outline>
    <contour>
      <point x="548" y="50" type="line" smooth="yes"/>
      <point x="516" y="50"/>
      <point x="493" y="73" type="qcurve" smooth="yes"/>
      <point x="471" y="95"/>
      <point x="471" y="127" type="qcurve" smooth="yes"/>
      <point x="471" y="296" type="line" smooth="yes"/>
      <point x="471" y="328"/>
      <point x="503" y="328" type="qcurve" smooth="yes"/>
      <point x="535" y="328"/>
      <point x="535" y="296" type="qcurve" smooth="yes"/>
      <point x="535" y="154" type="line" smooth="yes"/>
      <point x="535" y="114"/>
      <point x="575" y="114" type="qcurve" smooth="yes"/>
      <point x="612" y="114" type="line" smooth="yes"/>
      <point x="652" y="114"/>
      <point x="652" y="154" type="qcurve" smooth="yes"/>
      <point x="652" y="296" type="line" smooth="yes"/>
      <point x="652" y="328"/>
      <point x="684" y="328" type="qcurve" smooth="yes"/>
      <point x="716" y="328"/>
      <point x="716" y="296" type="qcurve" smooth="yes"/>
      <point x="716" y="-72" type="line" smooth="yes"/>
      <point x="716" y="-104"/>
      <point x="684" y="-104" type="qcurve" smooth="yes"/>
      <point x="652" y="-104"/>
      <point x="652" y="-72" type="qcurve" smooth="yes"/>
      <point x="652" y="10" type="line" smooth="yes"/>
      <point x="652" y="28"/>
      <point x="630" y="50"/>
      <point x="612" y="50" type="qcurve" smooth="yes"/>
    </contour>
    <contour>
      <point x="65" y="-82" type="qcurve" smooth="yes"/>
      <point x="65" y="-74"/>
      <point x="71" y="-65" type="qcurve" smooth="yes"/>
      <point x="585" y="744" type="line" smooth="yes"/>
      <point x="595" y="759"/>
      <point x="628" y="778"/>
      <point x="646" y="778" type="qcurve" smooth="yes"/>
      <point x="660" y="778" type="line" smooth="yes"/>
      <point x="685" y="778"/>
      <point x="685" y="761" type="qcurve" smooth="yes"/>
      <point x="685" y="753"/>
      <point x="679" y="744" type="qcurve" smooth="yes"/>
      <point x="165" y="-65" type="line" smooth="yes"/>
      <point x="155" y="-80"/>
      <point x="122" y="-99"/>
      <point x="104" y="-99" type="qcurve" smooth="yes"/>
      <point x="90" y="-99" type="line" smooth="yes"/>
      <point x="65" y="-99"/>
    </contour>
    <contour>
      <point x="107" y="414" type="qcurve" smooth="yes"/>
      <point x="107" y="446"/>
      <point x="126" y="446" type="qcurve" smooth="yes"/>
      <point x="151" y="446"/>
      <point x="151" y="486" type="qcurve" smooth="yes"/>
      <point x="151" y="728" type="line" smooth="yes"/>
      <point x="151" y="750"/>
      <point x="129" y="750" type="qcurve" smooth="yes"/>
      <point x="107" y="750"/>
      <point x="107" y="772" type="qcurve" smooth="yes"/>
      <point x="107" y="783" type="line" smooth="yes"/>
      <point x="107" y="814"/>
      <point x="138" y="814" type="qcurve" smooth="yes"/>
      <point x="142" y="814" type="line" smooth="yes"/>
      <point x="170" y="814"/>
      <point x="190" y="794" type="qcurve" smooth="yes"/>
      <point x="215" y="769"/>
      <point x="215" y="734" type="qcurve" smooth="yes"/>
      <point x="215" y="486" type="line" smooth="yes"/>
      <point x="215" y="446"/>
      <point x="233" y="446" type="qcurve" smooth="yes"/>
      <point x="252" y="446"/>
      <point x="252" y="414" type="qcurve" smooth="yes"/>
      <point x="252" y="382"/>
      <point x="212" y="382" type="qcurve" smooth="yes"/>
      <point x="147" y="382" type="line" smooth="yes"/>
      <point x="107" y="382"/>
    </contour>
  </outline>
</glyph>
<glyph name="onehalf" format="2">
  <advance width="765"/>
  <unicode hex="00BD"/>
  <outline>
    <contour>
      <point x="493" y="-84" type="qcurve" smooth="yes"/>
      <point x="471" y="-64"/>
      <point x="471" y="-35" type="qcurve" smooth="yes"/>
      <point x="471" y="65" type="line" smooth="yes"/>
      <point x="471" y="97"/>
      <point x="493" y="119" type="qcurve" smooth="yes"/>
      <point x="516" y="142"/>
      <point x="548" y="142" type="qcurve" smooth="yes"/>
      <point x="612" y="142" type="line" smooth="yes"/>
      <point x="652" y="142"/>
      <point x="652" y="182" type="qcurve" smooth="yes"/>
      <point x="652" y="224" type="line" smooth="yes"/>
      <point x="652" y="264"/>
      <point x="612" y="264" type="qcurve" smooth="yes"/>
      <point x="503" y="264" type="line" smooth="yes"/>
      <point x="471" y="264"/>
      <point x="471" y="296" type="qcurve" smooth="yes"/>
      <point x="471" y="328"/>
      <point x="503" y="328" type="qcurve" smooth="yes"/>
      <point x="639" y="328" type="line" smooth="yes"/>
      <point x="671" y="328"/>
      <point x="693" y="306" type="qcurve" smooth="yes"/>
      <point x="716" y="283"/>
      <point x="716" y="251" type="qcurve" smooth="yes"/>
      <point x="716" y="155" type="line" smooth="yes"/>
      <point x="716" y="123"/>
      <point x="694" y="101" type="qcurve" smooth="yes"/>
      <point x="671" y="78"/>
      <point x="639" y="78" type="qcurve" smooth="yes"/>
      <point x="575" y="78" type="line" smooth="yes"/>
      <point x="535" y="78"/>
      <point x="535" y="38" type="qcurve" smooth="yes"/>
      <point x="535" y="0" type="line" smooth="yes"/>
      <point x="535" y="-40"/>
      <point x="575" y="-40" type="qcurve" smooth="yes"/>
      <point x="684" y="-40" type="line" smooth="yes"/>
      <point x="716" y="-40"/>
      <point x="716" y="-72" type="qcurve" smooth="yes"/>
      <point x="716" y="-104"/>
      <point x="684" y="-104" type="qcurve" smooth="yes"/>
      <point x="543" y="-104" type="line" smooth="yes"/>
      <point x="515" y="-104"/>
    </contour>
    <contour>
      <point x="65" y="-82" type="qcurve" smooth="yes"/>
      <point x="65" y="-74"/>
      <point x="71" y="-65" type="qcurve" smooth="yes"/>
      <point x="585" y="744" type="line" smooth="yes"/>
      <point x="595" y="759"/>
      <point x="628" y="778"/>
      <point x="646" y="778" type="qcurve" smooth="yes"/>
      <point x="660" y="778" type="line" smooth="yes"/>
      <point x="685" y="778"/>
      <point x="685" y="761" type="qcurve" smooth="yes"/>
      <point x="685" y="753"/>
      <point x="679" y="744" type="qcurve" smooth="yes"/>
      <point x="165" y="-65" type="line" smooth="yes"/>
      <point x="155" y="-80"/>
      <point x="122" y="-99"/>
      <point x="104" y="-99" type="qcurve" smooth="yes"/>
      <point x="90" y="-99" type="line" smooth="yes"/>
      <point x="65" y="-99"/>
    </contour>
    <contour>
      <point x="107" y="414" type="qcurve" smooth="yes"/>
      <point x="107" y="446"/>
      <point x="126" y="446" type="qcurve" smooth="yes"/>
      <point x="151" y="446"/>
      <point x="151" y="486" type="qcurve" smooth="yes"/>
      <point x="151" y="728" type="line" smooth="yes"/>
      <point x="151" y="750"/>
      <point x="129" y="750" type="qcurve" smooth="yes"/>
      <point x="107" y="750"/>
      <point x="107" y="772" type="qcurve" smooth="yes"/>
      <point x="107" y="783" type="line" smooth="yes"/>
      <point x="107" y="814"/>
      <point x="138" y="814" type="qcurve" smooth="yes"/>
      <point x="142" y="814" type="line" smooth="yes"/>
      <point x="170" y="814"/>
      <point x="190" y="794" type="qcurve" smooth="yes"/>
      <point x="215" y="769"/>
      <point x="215" y="734" type="qcurve" smooth="yes"/>
      <point x="215" y="486" type="line" smooth="yes"/>
      <point x="215" y="446"/>
      <point x="233" y="446" type="qcurve" smooth="yes"/>
      <point x="252" y="446"/>
      <point x="252" y="414" type="qcurve" smooth="yes"/>
      <point x="252" y="382"/>
      <point x="212" y="382" type="qcurve" smooth="yes"/>
      <point x="147" y="382" type="line" smooth="yes"/>
      <point x="107" y="382"/>
    </contour>
  </outline>
</glyph>
<glyph name="Atilde" format="2">
  <advance width="531"/>
  <unicode hex="00C3"/>
  <anchor x="266" y="710" name="top"/>
  <outline>
    <contour>
      <point x="30" y="24" type="qcurve" smooth="yes"/>
      <point x="30" y="31"/>
      <point x="31" y="35" type="qcurve" smooth="yes"/>
      <point x="158" y="673" type="line" smooth="yes"/>
      <point x="165" y="709"/>
      <point x="201" y="709" type="qcurve" smooth="yes"/>
      <point x="327" y="709" type="line" smooth="yes"/>
      <point x="363" y="709"/>
      <point x="370" y="673" type="qcurve" smooth="yes"/>
      <point x="500" y="35" type="line" smooth="yes"/>
      <point x="501" y="31"/>
      <point x="501" y="23" type="qcurve" smooth="yes"/>
      <point x="501" y="-9"/>
      <point x="464" y="-9" type="qcurve" smooth="yes"/>
      <point x="452" y="-9" type="line" smooth="yes"/>
      <point x="417" y="-9"/>
      <point x="409" y="27" type="qcurve" smooth="yes"/>
      <point x="384" y="147" type="line" smooth="yes"/>
      <point x="376" y="183"/>
      <point x="341" y="183" type="qcurve" smooth="yes"/>
      <point x="190" y="183" type="line" smooth="yes"/>
      <point x="155" y="183"/>
      <point x="147" y="147" type="qcurve" smooth="yes"/>
      <point x="122" y="27" type="line" smooth="yes"/>
      <point x="114" y="-9"/>
      <point x="79" y="-9" type="qcurve" smooth="yes"/>
      <point x="67" y="-9" type="line" smooth="yes"/>
      <point x="49" y="-9"/>
      <point x="30" y="9"/>
    </contour>
    <contour>
      <point x="180" y="306" type="qcurve" smooth="yes"/>
      <point x="180" y="291"/>
      <point x="199" y="273"/>
      <point x="217" y="273" type="qcurve" smooth="yes"/>
      <point x="313" y="273" type="line" smooth="yes"/>
      <point x="350" y="273"/>
      <point x="350" y="305" type="qcurve" smooth="yes"/>
      <point x="350" y="313"/>
      <point x="349" y="317" type="qcurve" smooth="yes"/>
      <point x="294" y="582" type="line" smooth="yes"/>
      <point x="287" y="618"/>
      <point x="264" y="618" type="qcurve" smooth="yes"/>
      <point x="241" y="618"/>
      <point x="234" y="582" type="qcurve" smooth="yes"/>
      <point x="181" y="317" type="line" smooth="yes"/>
      <point x="180" y="313"/>
    </contour>
    <contour>
      <point x="403" y="818" type="line"/>
      <point x="426" y="836" type="line"/>
      <point x="448" y="854"/>
      <point x="453" y="866" type="qcurve" smooth="yes"/>
      <point x="456" y="872"/>
      <point x="474" y="873"/>
      <point x="487" y="867" type="qcurve" smooth="yes"/>
      <point x="516" y="854"/>
      <point x="506" y="833" type="qcurve" smooth="yes"/>
      <point x="498" y="814"/>
      <point x="476" y="796" type="qcurve" smooth="yes"/>
      <point x="451" y="776" type="line" smooth="yes"/>
      <point x="431" y="760"/>
      <point x="415" y="757" type="qcurve" smooth="yes"/>
      <point x="398" y="754"/>
      <point x="377" y="756" type="qcurve" smooth="yes"/>
      <point x="342" y="759" type="line" smooth="yes"/>
      <point x="317" y="761"/>
      <point x="293" y="772" type="qcurve" smooth="yes"/>
      <point x="236" y="797" type="line" smooth="yes"/>
      <point x="212" y="808"/>
      <point x="188" y="811" type="qcurve"/>
      <point x="174" y="812" type="line"/>
      <point x="148" y="815"/>
      <point x="140" y="813" type="qcurve" smooth="yes"/>
      <point x="128" y="809"/>
      <point x="110" y="795" type="qcurve"/>
      <point x="108" y="793" type="line"/>
      <point x="87" y="775"/>
      <point x="79" y="759" type="qcurve" smooth="yes"/>
      <point x="71" y="741"/>
      <point x="43" y="755" type="qcurve" smooth="yes"/>
      <point x="30" y="761"/>
      <point x="21" y="781"/>
      <point x="26" y="792" type="qcurve" smooth="yes"/>
      <point x="37" y="816"/>
      <point x="57" y="832" type="qcurve" smooth="yes"/>
      <point x="82" y="853" type="line" smooth="yes"/>
      <point x="100" y="868"/>
      <point x="122" y="873" type="qcurve"/>
      <point x="138" y="877"/>
      <point x="166" y="875" type="qcurve" smooth="yes"/>
      <point x="200" y="872" type="line" smooth="yes"/>
      <point x="225" y="870"/>
      <point x="248" y="859" type="qcurve"/>
      <point x="305" y="833" type="line"/>
      <point x="329" y="823"/>
      <point x="353" y="820" type="qcurve" smooth="yes"/>
      <point x="368" y="818" type="line" smooth="yes"/>
      <point x="394" y="815"/>
      <point x="398" y="817" type="qcurve"/>
    </contour>
  </outline>
</glyph>
<glyph name="Aring" format="2">
  <advance width="531"/>
  <unicode hex="00C5"/>
  <anchor x="266" y="710" name="top"/>
  <outline>
    <contour>
      <point x="30" y="24" type="qcurve" smooth="yes"/>
      <point x="30" y="31"/>
      <point x="31" y="35" type="qcurve" smooth="yes"/>
      <point x="158" y="673" type="line" smooth="yes"/>
      <point x="165" y="709"/>
      <point x="201" y="709" type="qcurve" smooth="yes"/>
      <point x="327" y="709" type="line" smooth="yes"/>
      <point x="363" y="709"/>
      <point x="370" y="673" type="qcurve" smooth="yes"/>
      <point x="500" y="35" type="line" smooth="yes"/>
      <point x="501" y="31"/>
      <point x="501" y="23" type="qcurve" smooth="yes"/>
      <point x="501" y="-9"/>
      <point x="464" y="-9" type="qcurve" smooth="yes"/>
      <point x="452" y="-9" type="line" smooth="yes"/>
      <point x="417" y="-9"/>
      <point x="409" y="27" type="qcurve" smooth="yes"/>
      <point x="384" y="147" type="line" smooth="yes"/>
      <point x="376" y="183"/>
      <point x="341" y="183" type="qcurve" smooth="yes"/>
      <point x="190" y="183" type="line" smooth="yes"/>
      <point x="155" y="183"/>
      <point x="147" y="147" type="qcurve" smooth="yes"/>
      <point x="122" y="27" type="line" smooth="yes"/>
      <point x="114" y="-9"/>
      <point x="79" y="-9" type="qcurve" smooth="yes"/>
      <point x="67" y="-9" type="line" smooth="yes"/>
      <point x="49" y="-9"/>
      <point x="30" y="9"/>
    </contour>
    <contour>
      <point x="180" y="306" type="qcurve" smooth="yes"/>
      <point x="180" y="291"/>
      <point x="199" y="273"/>
      <point x="217" y="273" type="qcurve" smooth="yes"/>
      <point x="313" y="273" type="line" smooth="yes"/>
      <point x="350" y="273"/>
      <point x="350" y="305" type="qcurve" smooth="yes"/>
      <point x="350" y="313"/>
      <point x="349" y="317" type="qcurve" smooth="yes"/>
      <point x="294" y="582" type="line" smooth="yes"/>
      <point x="287" y="618"/>
      <point x="264" y="618" type="qcurve" smooth="yes"/>
      <point x="241" y="618"/>
      <point x="234" y="582" type="qcurve" smooth="yes"/>
      <point x="181" y="317" type="line" smooth="yes"/>
      <point x="180" y="313"/>
    </contour>
    <contour>
      <point x="166" y="818" type="qcurve" smooth="yes"/>
      <point x="150" y="845" type="line" smooth="yes"/>
      <point x="137" y="868"/>
      <point x="137" y="895" type="qcurve"/>
      <point x="137" y="897" type="line"/>
      <point x="137" y="925"/>
      <point x="151" y="947" type="qcurve"/>
      <point x="167" y="974" type="line"/>
      <point x="180" y="998"/>
      <point x="202" y="1010" type="qcurve" smooth="yes"/>
      <point x="223" y="1022"/>
      <point x="250" y="1022" type="qcurve" smooth="yes"/>
      <point x="282" y="1022" type="line" smooth="yes"/>
      <point x="310" y="1022"/>
      <point x="331" y="1010" type="qcurve" smooth="yes"/>
      <point x="354" y="996"/>
      <point x="366" y="974" type="qcurve"/>
      <point x="382" y="947" type="line" smooth="yes"/>
      <point x="395" y="924"/>
      <point x="395" y="897" type="qcurve"/>
      <point x="395" y="895" type="line"/>
      <point x="395" y="868"/>
      <point x="382" y="845" type="qcurve" smooth="yes"/>
      <point x="366" y="818" type="line" smooth="yes"/>
      <point x="352" y="794"/>
      <point x="331" y="783" type="qcurve" smooth="yes"/>
      <point x="310" y="771"/>
      <point x="283" y="771" type="qcurve" smooth="yes"/>
      <point x="250" y="771" type="line" smooth="yes"/>
      <point x="223" y="771"/>
      <point x="202" y="783" type="qcurve"/>
      <point x="181" y="793"/>
    </contour>
    <contour>
      <point x="233" y="838" type="qcurve" smooth="yes"/>
      <point x="241" y="833"/>
      <point x="266" y="833" type="qcurve" smooth="yes"/>
      <point x="292" y="833"/>
      <point x="300" y="838" type="qcurve" smooth="yes"/>
      <point x="308" y="843"/>
      <point x="320" y="864" type="qcurve" smooth="yes"/>
      <point x="333" y="886"/>
      <point x="333" y="896" type="qcurve" smooth="yes"/>
      <point x="333" y="906"/>
      <point x="320" y="929" type="qcurve" smooth="yes"/>
      <point x="308" y="950"/>
      <point x="300" y="955" type="qcurve" smooth="yes"/>
      <point x="293" y="959"/>
      <point x="266" y="959" type="qcurve" smooth="yes"/>
      <point x="240" y="959"/>
      <point x="233" y="955" type="qcurve" smooth="yes"/>
      <point x="225" y="950"/>
      <point x="213" y="929" type="qcurve" smooth="yes"/>
      <point x="200" y="906"/>
      <point x="200" y="896" type="qcurve" smooth="yes"/>
      <point x="200" y="886"/>
      <point x="213" y="864" type="qcurve" smooth="yes"/>
      <point x="225" y="842"/>
    </contour>
  </outline>
</glyph>
<glyph name="Igrave" format="2">
  <advance width="272"/>
  <unicode hex="00CC"/>
  <anchor x="136" y="710" name="top"/>
  <outline>
    <contour>
      <point x="60" y="-9" type="line" smooth="yes"/>
      <point x="20" y="-9"/>
      <point x="20" y="31" type="qcurve" smooth="yes"/>
      <point x="20" y="42" type="line" smooth="yes"/>
      <point x="20" y="61"/>
      <point x="38" y="82"/>
      <point x="55" y="82" type="qcurve" smooth="yes"/>
      <point x="72" y="82"/>
      <point x="90" y="103"/>
      <point x="90" y="122" type="qcurve" smooth="yes"/>
      <point x="90" y="579" type="line" smooth="yes"/>
      <point x="90" y="598"/>
      <point x="72" y="619"/>
      <point x="55" y="619" type="qcurve" smooth="yes"/>
      <point x="38" y="619"/>
      <point x="20" y="640"/>
      <point x="20" y="659" type="qcurve" smooth="yes"/>
      <point x="20" y="670" type="line" smooth="yes"/>
      <point x="20" y="710"/>
      <point x="60" y="710" type="qcurve" smooth="yes"/>
      <point x="212" y="710" type="line" smooth="yes"/>
      <point x="252" y="710"/>
      <point x="252" y="670" type="qcurve" smooth="yes"/>
      <point x="252" y="659" type="line" smooth="yes"/>
      <point x="252" y="619"/>
      <point x="217" y="619" type="qcurve" smooth="yes"/>
      <point x="200" y="619"/>
      <point x="181" y="598"/>
      <point x="181" y="579" type="qcurve" smooth="yes"/>
      <point x="181" y="122" type="line" smooth="yes"/>
      <point x="181" y="103"/>
      <point x="200" y="82"/>
      <point x="217" y="82" type="qcurve" smooth="yes"/>
      <point x="234" y="82"/>
      <point x="252" y="61"/>
      <point x="252" y="42" type="qcurve" smooth="yes"/>
      <point x="252" y="31" type="line" smooth="yes"/>
      <point x="252" y="-9"/>
      <point x="212" y="-9" type="qcurve" smooth="yes"/>
    </contour>
    <contour>
      <point x="89" y="830" type="qcurve" smooth="yes"/>
      <point x="49" y="918" type="line" smooth="yes"/>
      <point x="43" y="932"/>
      <point x="58" y="951"/>
      <point x="74" y="951" type="qcurve" smooth="yes"/>
      <point x="95" y="951" type="line" smooth="yes"/>
      <point x="112" y="951"/>
      <point x="135" y="932"/>
      <point x="141" y="918" type="qcurve" smooth="yes"/>
      <point x="181" y="830" type="line" smooth="yes"/>
      <point x="187" y="816"/>
      <point x="172" y="797"/>
      <point x="156" y="797" type="qcurve" smooth="yes"/>
      <point x="135" y="797" type="line" smooth="yes"/>
      <point x="118" y="797"/>
      <point x="95" y="816"/>
    </contour>
  </outline>
</glyph>
<glyph name="Eth" format="2">
  <advance width="593"/>
  <unicode hex="00D0"/>
  <outline>
    <contour>
      <point x="123" y="31" type="qcurve" smooth="yes"/>
      <point x="123" y="273" type="line" smooth="yes"/>
      <point x="123" y="313"/>
      <point x="83" y="313" type="qcurve" smooth="yes"/>
      <point x="65" y="313" type="line" smooth="yes"/>
      <point x="25" y="313"/>
      <point x="25" y="353" type="qcurve" smooth="yes"/>
      <point x="25" y="368" type="line" smooth="yes"/>
      <point x="25" y="408"/>
      <point x="65" y="408" type="qcurve" smooth="yes"/>
      <point x="83" y="408" type="line" smooth="yes"/>
      <point x="123" y="408"/>
      <point x="123" y="448" type="qcurve" smooth="yes"/>
      <point x="123" y="669" type="line" smooth="yes"/>
      <point x="123" y="709"/>
      <point x="163" y="709" type="qcurve" smooth="yes"/>
      <point x="441" y="709" type="line" smooth="yes"/>
      <point x="469" y="709"/>
      <point x="490" y="688" type="qcurve" smooth="yes"/>
      <point x="522" y="656" type="line" smooth="yes"/>
      <point x="542" y="636"/>
      <point x="542" y="607" type="qcurve" smooth="yes"/>
      <point x="542" y="93" type="line"/>
      <point x="543" y="64"/>
      <point x="522" y="43" type="qcurve" smooth="yes"/>
      <point x="490" y="11" type="line" smooth="yes"/>
      <point x="470" y="-9"/>
      <point x="441" y="-9" type="qcurve" smooth="yes"/>
      <point x="163" y="-9" type="line" smooth="yes"/>
      <point x="123" y="-9"/>
    </contour>
    <contour>
      <point x="214" y="122" type="line" smooth="yes"/>
      <point x="214" y="82"/>
      <point x="254" y="82" type="qcurve" smooth="yes"/>
      <point x="411" y="82" type="line" smooth="yes"/>
      <point x="451" y="82"/>
      <point x="451" y="122" type="qcurve" smooth="yes"/>
      <point x="451" y="578" type="line" smooth="yes"/>
      <point x="451" y="618"/>
      <point x="411" y="618" type="qcurve" smooth="yes"/>
      <point x="254" y="618" type="line" smooth="yes"/>
      <point x="214" y="618"/>
      <point x="214" y="578" type="qcurve" smooth="yes"/>
      <point x="214" y="448" type="line" smooth="yes"/>
      <point x="214" y="408"/>
      <point x="254" y="408" type="qcurve" smooth="yes"/>
      <point x="292" y="408" type="line" smooth="yes"/>
      <point x="332" y="408"/>
      <point x="332" y="368" type="qcurve" smooth="yes"/>
      <point x="332" y="353" type="line" smooth="yes"/>
      <point x="332" y="313"/>
      <point x="292" y="313" type="qcurve" smooth="yes"/>
      <point x="254" y="313" type="line" smooth="yes"/>
      <point x="214" y="313"/>
      <point x="214" y="273" type="qcurve" smooth="yes"/>
    </contour>
  </outline>
</glyph>
<glyph name="Ntilde" format="2">
  <advance width="505"/>
  <unicode hex="00D1"/>
  <anchor x="253" y="710" name="top"/>
  <outline>
    <contour>
      <point x="90" y="-9" type="line" smooth="yes"/>
      <point x="50" y="-9"/>
      <point x="50" y="31" type="qcurve" smooth="yes"/>
      <point x="50" y="670" type="line" smooth="yes"/>
      <point x="50" y="710"/>
      <point x="90" y="710" type="qcurve" smooth="yes"/>
      <point x="110" y="710" type="line" smooth="yes"/>
      <point x="143" y="710"/>
      <point x="156" y="680" type="qcurve" smooth="yes"/>
      <point x="317" y="309" type="line" smooth="yes"/>
      <point x="322" y="298"/>
      <point x="337" y="285"/>
      <point x="344" y="285" type="qcurve" smooth="yes"/>
      <point x="353" y="285"/>
      <point x="364" y="302"/>
      <point x="364" y="318" type="qcurve" smooth="yes"/>
      <point x="364" y="670" type="line" smooth="yes"/>
      <point x="364" y="710"/>
      <point x="404" y="710" type="qcurve" smooth="yes"/>
      <point x="415" y="710" type="line" smooth="yes"/>
      <point x="455" y="710"/>
      <point x="455" y="670" type="qcurve" smooth="yes"/>
      <point x="455" y="31" type="line" smooth="yes"/>
      <point x="455" y="-9"/>
      <point x="415" y="-9" type="qcurve" smooth="yes"/>
      <point x="404" y="-9" type="line" smooth="yes"/>
      <point x="371" y="-9"/>
      <point x="358" y="21" type="qcurve" smooth="yes"/>
      <point x="188" y="410" type="line" smooth="yes"/>
      <point x="178" y="434"/>
      <point x="162" y="434" type="qcurve" smooth="yes"/>
      <point x="153" y="434"/>
      <point x="141" y="416"/>
      <point x="141" y="400" type="qcurve" smooth="yes"/>
      <point x="141" y="31" type="line" smooth="yes"/>
      <point x="141" y="-9"/>
      <point x="101" y="-9" type="qcurve" smooth="yes"/>
    </contour>
    <contour>
      <point x="390" y="818" type="line"/>
      <point x="413" y="836" type="line"/>
      <point x="435" y="854"/>
      <point x="440" y="866" type="qcurve" smooth="yes"/>
      <point x="443" y="872"/>
      <point x="461" y="873"/>
      <point x="474" y="867" type="qcurve" smooth="yes"/>
      <point x="503" y="854"/>
      <point x="493" y="833" type="qcurve" smooth="yes"/>
      <point x="485" y="814"/>
      <point x="463" y="796" type="qcurve" smooth="yes"/>
      <point x="438" y="776" type="line" smooth="yes"/>
      <point x="418" y="760"/>
      <point x="402" y="757" type="qcurve" smooth="yes"/>
      <point x="385" y="754"/>
      <point x="364" y="756" type="qcurve" smooth="yes"/>
      <point x="329" y="759" type="line" smooth="yes"/>
      <point x="304" y="761"/>
      <point x="280" y="772" type="qcurve" smooth="yes"/>
      <point x="223" y="797" type="line" smooth="yes"/>
      <point x="199" y="808"/>
      <point x="175" y="811" type="qcurve"/>
      <point x="161" y="812" type="line"/>
      <point x="135" y="815"/>
      <point x="127" y="813" type="qcurve" smooth="yes"/>
      <point x="115" y="809"/>
      <point x="97" y="795" type="qcurve"/>
      <point x="95" y="793" type="line"/>
      <point x="74" y="775"/>
      <point x="66" y="759" type="qcurve" smooth="yes"/>
      <point x="58" y="741"/>
      <point x="30" y="755" type="qcurve" smooth="yes"/>
      <point x="17" y="761"/>
      <point x="8" y="781"/>
      <point x="13" y="792" type="qcurve" smooth="yes"/>
      <point x="24" y="816"/>
      <point x="44" y="832" type="qcurve" smooth="yes"/>
      <point x="69" y="853" type="line" smooth="yes"/>
      <point x="87" y="868"/>
      <point x="109" y="873" type="qcurve"/>
      <point x="125" y="877"/>
      <point x="153" y="875" type="qcurve" smooth="yes"/>
      <point x="187" y="872" type="line" smooth="yes"/>
      <point x="212" y="870"/>
      <point x="235" y="859" type="qcurve"/>
      <point x="292" y="833" type="line"/>
      <point x="316" y="823"/>
      <point x="340" y="820" type="qcurve" smooth="yes"/>
      <point x="355" y="818" type="line" smooth="yes"/>
      <point x="381" y="815"/>
      <point x="385" y="817" type="qcurve"/>
    </contour>
  </outline>
</glyph>
<glyph name="Ograve" format="2">
  <advance width="496"/>
  <unicode hex="00D2"/>
  <anchor x="462" y="753" name="Odot"/>
  <anchor x="248" y="710" name="top"/>
  <outline>
    <contour>
      <point x="70" y="44" type="line" smooth="yes"/>
      <point x="50" y="64"/>
      <point x="50" y="93" type="qcurve" smooth="yes"/>
      <point x="50" y="609" type="line"/>
      <point x="49" y="638"/>
      <point x="70" y="659" type="qcurve" smooth="yes"/>
      <point x="102" y="691" type="line" smooth="yes"/>
      <point x="122" y="711"/>
      <point x="151" y="711" type="qcurve" smooth="yes"/>
      <point x="345" y="711" type="line" smooth="yes"/>
      <point x="373" y="711"/>
      <point x="394" y="690" type="qcurve" smooth="yes"/>
      <point x="426" y="658" type="line" smooth="yes"/>
      <point x="446" y="638"/>
      <point x="446" y="609" type="qcurve" smooth="yes"/>
      <point x="446" y="93" type="line"/>
      <point x="447" y="64"/>
      <point x="426" y="43" type="qcurve" smooth="yes"/>
      <point x="394" y="11" type="line" smooth="yes"/>
      <point x="374" y="-9"/>
      <point x="345" y="-9" type="qcurve" smooth="yes"/>
      <point x="152" y="-9" type="line" smooth="yes"/>
      <point x="123" y="-9"/>
      <point x="103" y="11" type="qcurve" smooth="yes"/>
    </contour>
    <contour>
      <point x="141" y="122" type="line" smooth="yes"/>
      <point x="141" y="82"/>
      <point x="181" y="82" type="qcurve" smooth="yes"/>
      <point x="315" y="82" type="line" smooth="yes"/>
      <point x="355" y="82"/>
      <point x="355" y="122" type="qcurve" smooth="yes"/>
      <point x="355" y="580" type="line" smooth="yes"/>
      <point x="355" y="620"/>
      <point x="315" y="620" type="qcurve" smooth="yes"/>
      <point x="181" y="620" type="line" smooth="yes"/>
      <point x="141" y="620"/>
      <point x="141" y="580" type="qcurve" smooth="yes"/>
    </contour>
    <contour>
      <point x="201" y="830" type="qcurve" smooth="yes"/>
      <point x="161" y="918" type="line" smooth="yes"/>
      <point x="155" y="932"/>
      <point x="170" y="951"/>
      <point x="186" y="951" type="qcurve" smooth="yes"/>
      <point x="207" y="951" type="line" smooth="yes"/>
      <point x="224" y="951"/>
      <point x="247" y="932"/>
      <point x="253" y="918" type="qcurve" smooth="yes"/>
      <point x="293" y="830" type="line" smooth="yes"/>
      <point x="299" y="816"/>
      <point x="284" y="797"/>
      <point x="268" y="797" type="qcurve" smooth="yes"/>
      <point x="247" y="797" type="line" smooth="yes"/>
      <point x="230" y="797"/>
      <point x="207" y="816"/>
    </contour>
  </outline>
</glyph>
<glyph name="Odieresis" format="2">
  <advance width="496"/>
  <unicode hex="00D6"/>
  <anchor x="462" y="753" name="Odot"/>
  <anchor x="248" y="710" name="top"/>
  <outline>
    <contour>
      <point x="70" y="44" type="line" smooth="yes"/>
      <point x="50" y="64"/>
      <point x="50" y="93" type="qcurve" smooth="yes"/>
      <point x="50" y="609" type="line"/>
      <point x="49" y="638"/>
      <point x="70" y="659" type="qcurve" smooth="yes"/>
      <point x="102" y="691" type="line" smooth="yes"/>
      <point x="122" y="711"/>
      <point x="151" y="711" type="qcurve" smooth="yes"/>
      <point x="345" y="711" type="line" smooth="yes"/>
      <point x="373" y="711"/>
      <point x="394" y="690" type="qcurve" smooth="yes"/>
      <point x="426" y="658" type="line" smooth="yes"/>
      <point x="446" y="638"/>
      <point x="446" y="609" type="qcurve" smooth="yes"/>
      <point x="446" y="93" type="line"/>
      <point x="447" y="64"/>
      <point x="426" y="43" type="qcurve" smooth="yes"/>
      <point x="394" y="11" type="line" smooth="yes"/>
      <point x="374" y="-9"/>
      <point x="345" y="-9" type="qcurve" smooth="yes"/>
      <point x="152" y="-9" type="line" smooth="yes"/>
      <point x="123" y="-9"/>
      <point x="103" y="11" type="qcurve" smooth="yes"/>
    </contour>
    <contour>
      <point x="141" y="122" type="line" smooth="yes"/>
      <point x="141" y="82"/>
      <point x="181" y="82" type="qcurve" smooth="yes"/>
      <point x="315" y="82" type="line" smooth="yes"/>
      <point x="355" y="82"/>
      <point x="355" y="122" type="qcurve" smooth="yes"/>
      <point x="355" y="580" type="line" smooth="yes"/>
      <point x="355" y="620"/>
      <point x="315" y="620" type="qcurve" smooth="yes"/>
      <point x="181" y="620" type="line" smooth="yes"/>
      <point x="141" y="620"/>
      <point x="141" y="580" type="qcurve" smooth="yes"/>
    </contour>
    <contour>
      <point x="167" y="785" type="qcurve" smooth="yes"/>
      <point x="144" y="785"/>
      <point x="117" y="815"/>
      <point x="117" y="835" type="qcurve" smooth="yes"/>
      <point x="117" y="855"/>
      <point x="146" y="884"/>
      <point x="167" y="884" type="qcurve" smooth="yes"/>
      <point x="189" y="884"/>
      <point x="217" y="853"/>
      <point x="217" y="835" type="qcurve" smooth="yes"/>
      <point x="217" y="816"/>
      <point x="188" y="785"/>
    </contour>
    <contour>
      <point x="330" y="785" type="qcurve" smooth="yes"/>
      <point x="308" y="785"/>
      <point x="281" y="816"/>
      <point x="281" y="835" type="qcurve" smooth="yes"/>
      <point x="281" y="855"/>
      <point x="309" y="884"/>
      <point x="330" y="884" type="qcurve" smooth="yes"/>
      <point x="352" y="884"/>
      <point x="380" y="853"/>
      <point x="380" y="835" type="qcurve" smooth="yes"/>
      <point x="380" y="816"/>
      <point x="351" y="785"/>
    </contour>
  </outline>
</glyph>
<glyph name="Ugrave" format="2">
  <advance width="496"/>
  <unicode hex="00D9"/>
  <anchor x="248" y="710" name="top"/>
  <outline>
    <contour>
      <point x="103" y="12" type="qcurve" smooth="yes"/>
      <point x="70" y="45" type="line" smooth="yes"/>
      <point x="50" y="65"/>
      <point x="50" y="94" type="qcurve" smooth="yes"/>
      <point x="50" y="671" type="line" smooth="yes"/>
      <point x="50" y="711"/>
      <point x="90" y="711" type="qcurve" smooth="yes"/>
      <point x="101" y="711" type="line" smooth="yes"/>
      <point x="141" y="711"/>
      <point x="141" y="671" type="qcurve" smooth="yes"/>
      <point x="141" y="123" type="line" smooth="yes"/>
      <point x="141" y="83"/>
      <point x="181" y="83" type="qcurve" smooth="yes"/>
      <point x="315" y="83" type="line" smooth="yes"/>
      <point x="355" y="83"/>
      <point x="355" y="123" type="qcurve" smooth="yes"/>
      <point x="355" y="671" type="line" smooth="yes"/>
      <point x="355" y="711"/>
      <point x="395" y="711" type="qcurve" smooth="yes"/>
      <point x="406" y="711" type="line" smooth="yes"/>
      <point x="446" y="711"/>
      <point x="446" y="671" type="qcurve" smooth="yes"/>
      <point x="446" y="94" type="line"/>
      <point x="447" y="65"/>
      <point x="426" y="44" type="qcurve" smooth="yes"/>
      <point x="394" y="12" type="line" smooth="yes"/>
      <point x="374" y="-8"/>
      <point x="345" y="-8" type="qcurve" smooth="yes"/>
      <point x="152" y="-8" type="line" smooth="yes"/>
      <point x="123" y="-8"/>
    </contour>
    <contour>
      <point x="201" y="830" type="qcurve" smooth="yes"/>
      <point x="161" y="918" type="line" smooth="yes"/>
      <point x="155" y="932"/>
      <point x="170" y="951"/>
      <point x="186" y="951" type="qcurve" smooth="yes"/>
      <point x="207" y="951" type="line" smooth="yes"/>
      <point x="224" y="951"/>
      <point x="247" y="932"/>
      <point x="253" y="918" type="qcurve" smooth="yes"/>
      <point x="293" y="830" type="line" smooth="yes"/>
      <point x="299" y="816"/>
      <point x="284" y="797"/>
      <point x="268" y="797" type="qcurve" smooth="yes"/>
      <point x="247" y="797" type="line" smooth="yes"/>
      <point x="230" y="797"/>
      <point x="207" y="816"/>
    </contour>
  </outline>
</glyph>
<glyph name="Uacute" format="2">
  <advance width="496"/>
  <unicode hex="00DA"/>
  <anchor x="248" y="710" name="top"/>
  <outline>
    <contour>
      <point x="103" y="12" type="qcurve" smooth="yes"/>
      <point x="70" y="45" type="line" smooth="yes"/>
      <point x="50" y="65"/>
      <point x="50" y="94" type="qcurve" smooth="yes"/>
      <point x="50" y="671" type="line" smooth="yes"/>
      <point x="50" y="711"/>
      <point x="90" y="711" type="qcurve" smooth="yes"/>
      <point x="101" y="711" type="line" smooth="yes"/>
      <point x="141" y="711"/>
      <point x="141" y="671" type="qcurve" smooth="yes"/>
      <point x="141" y="123" type="line" smooth="yes"/>
      <point x="141" y="83"/>
      <point x="181" y="83" type="qcurve" smooth="yes"/>
      <point x="315" y="83" type="line" smooth="yes"/>
      <point x="355" y="83"/>
      <point x="355" y="123" type="qcurve" smooth="yes"/>
      <point x="355" y="671" type="line" smooth="yes"/>
      <point x="355" y="711"/>
      <point x="395" y="711" type="qcurve" smooth="yes"/>
      <point x="406" y="711" type="line" smooth="yes"/>
      <point x="446" y="711"/>
      <point x="446" y="671" type="qcurve" smooth="yes"/>
      <point x="446" y="94" type="line"/>
      <point x="447" y="65"/>
      <point x="426" y="44" type="qcurve" smooth="yes"/>
      <point x="394" y="12" type="line" smooth="yes"/>
      <point x="374" y="-8"/>
      <point x="345" y="-8" type="qcurve" smooth="yes"/>
      <point x="152" y="-8" type="line" smooth="yes"/>
      <point x="123" y="-8"/>
    </contour>
    <contour>
      <point x="214" y="797" type="line" smooth="yes"/>
      <point x="198" y="797"/>
      <point x="183" y="816"/>
      <point x="189" y="830" type="qcurve" smooth="yes"/>
      <point x="229" y="918" type="line" smooth="yes"/>
      <point x="235" y="932"/>
      <point x="258" y="951"/>
      <point x="275" y="951" type="qcurve" smooth="yes"/>
      <point x="296" y="951" type="line" smooth="yes"/>
      <point x="312" y="951"/>
      <point x="327" y="932"/>
      <point x="321" y="918" type="qcurve" smooth="yes"/>
      <point x="281" y="830" type="line" smooth="yes"/>
      <point x="275" y="816"/>
      <point x="252" y="797"/>
      <point x="235" y="797" type="qcurve" smooth="yes"/>
    </contour>
  </outline>
</glyph>
<glyph name="Ucircumflex" format="2">
  <advance width="496"/>
  <unicode hex="00DB"/>
  <anchor x="248" y="927" name="top"/>
  <outline>
    <contour>
      <point x="103" y="12" type="qcurve" smooth="yes"/>
      <point x="70" y="45" type="line" smooth="yes"/>
      <point x="50" y="65"/>
      <point x="50" y="94" type="qcurve" smooth="yes"/>
      <point x="50" y="671" type="line" smooth="yes"/>
      <point x="50" y="711"/>
      <point x="90" y="711" type="qcurve" smooth="yes"/>
      <point x="101" y="711" type="line" smooth="yes"/>
      <point x="141" y="711"/>
      <point x="141" y="671" type="qcurve" smooth="yes"/>
      <point x="141" y="123" type="line" smooth="yes"/>
      <point x="141" y="83"/>
      <point x="181" y="83" type="qcurve" smooth="yes"/>
      <point x="315" y="83" type="line" smooth="yes"/>
      <point x="355" y="83"/>
      <point x="355" y="123" type="qcurve" smooth="yes"/>
      <point x="355" y="671" type="line" smooth="yes"/>
      <point x="355" y="711"/>
      <point x="395" y="711" type="qcurve" smooth="yes"/>
      <point x="406" y="711" type="line" smooth="yes"/>
      <point x="446" y="711"/>
      <point x="446" y="671" type="qcurve" smooth="yes"/>
      <point x="446" y="94" type="line"/>
      <point x="447" y="65"/>
      <point x="426" y="44" type="qcurve" smooth="yes"/>
      <point x="394" y="12" type="line" smooth="yes"/>
      <point x="374" y="-8"/>
      <point x="345" y="-8" type="qcurve" smooth="yes"/>
      <point x="152" y="-8" type="line" smooth="yes"/>
      <point x="123" y="-8"/>
    </contour>
    <contour>
      <point x="151" y="804" type="qcurve" smooth="yes"/>
      <point x="151" y="817"/>
      <point x="161" y="833" type="qcurve" smooth="yes"/>
      <point x="220" y="927" type="line" smooth="yes"/>
      <point x="232" y="947"/>
      <point x="248" y="947" type="qcurve" smooth="yes"/>
      <point x="264" y="947"/>
      <point x="276" y="927" type="qcurve"/>
      <point x="336" y="833" type="line"/>
      <point x="347" y="817"/>
      <point x="347" y="801" type="qcurve" smooth="yes"/>
      <point x="347" y="785"/>
      <point x="331" y="785" type="qcurve" smooth="yes"/>
      <point x="327" y="785" type="line" smooth="yes"/>
      <point x="295" y="785"/>
      <point x="279" y="812" type="qcurve" smooth="yes"/>
      <point x="276" y="817" type="line" smooth="yes"/>
      <point x="262" y="841"/>
      <point x="246" y="841" type="qcurve" smooth="yes"/>
      <point x="235" y="841"/>
      <point x="226" y="826" type="qcurve"/>
      <point x="219" y="813" type="line" smooth="yes"/>
      <point x="204" y="785"/>
      <point x="171" y="785" type="qcurve" smooth="yes"/>
      <point x="151" y="785"/>
    </contour>
  </outline>
</glyph>
<glyph name="germandbls" format="2">
  <advance width="516"/>
  <unicode hex="00DF"/>
  <outline>
    <contour>
      <point x="90" y="-9" type="line" smooth="yes"/>
      <point x="50" y="-9"/>
      <point x="50" y="31" type="qcurve" smooth="yes"/>
      <point x="50" y="607" type="line" smooth="yes"/>
      <point x="50" y="636"/>
      <point x="70" y="656" type="qcurve" smooth="yes"/>
      <point x="102" y="688" type="line" smooth="yes"/>
      <point x="123" y="709"/>
      <point x="151" y="709" type="qcurve" smooth="yes"/>
      <point x="350" y="709" type="line" smooth="yes"/>
      <point x="378" y="709"/>
      <point x="399" y="688" type="qcurve" smooth="yes"/>
      <point x="431" y="656" type="line" smooth="yes"/>
      <point x="451" y="636"/>
      <point x="451" y="607" type="qcurve" smooth="yes"/>
      <point x="451" y="421" type="line" smooth="yes"/>
      <point x="451" y="392"/>
      <point x="441" y="371" type="qcurve" smooth="yes"/>
      <point x="434" y="356"/>
      <point x="434" y="346" type="qcurve" smooth="yes"/>
      <point x="434" y="332"/>
      <point x="444" y="324" type="qcurve" smooth="yes"/>
      <point x="452" y="317" type="line" smooth="yes"/>
      <point x="472" y="300"/>
      <point x="472" y="267" type="qcurve" smooth="yes"/>
      <point x="472" y="93" type="line"/>
      <point x="473" y="64"/>
      <point x="452" y="43" type="qcurve" smooth="yes"/>
      <point x="420" y="11" type="line" smooth="yes"/>
      <point x="400" y="-9"/>
      <point x="371" y="-9" type="qcurve" smooth="yes"/>
      <point x="219" y="-9" type="line" smooth="yes"/>
      <point x="179" y="-9"/>
      <point x="179" y="31" type="qcurve" smooth="yes"/>
      <point x="179" y="42" type="line" smooth="yes"/>
      <point x="179" y="82"/>
      <point x="219" y="82" type="qcurve" smooth="yes"/>
      <point x="342" y="82" type="line" smooth="yes"/>
      <point x="382" y="82"/>
      <point x="382" y="122" type="qcurve" smooth="yes"/>
      <point x="382" y="261" type="line" smooth="yes"/>
      <point x="382" y="301"/>
      <point x="342" y="301" type="qcurve" smooth="yes"/>
      <point x="223" y="301" type="line" smooth="yes"/>
      <point x="183" y="301"/>
      <point x="183" y="341" type="qcurve" smooth="yes"/>
      <point x="183" y="352" type="line" smooth="yes"/>
      <point x="183" y="392"/>
      <point x="223" y="392" type="qcurve" smooth="yes"/>
      <point x="320" y="392" type="line" smooth="yes"/>
      <point x="360" y="392"/>
      <point x="360" y="432" type="qcurve" smooth="yes"/>
      <point x="360" y="578" type="line" smooth="yes"/>
      <point x="360" y="618"/>
      <point x="320" y="618" type="qcurve" smooth="yes"/>
      <point x="181" y="618" type="line" smooth="yes"/>
      <point x="141" y="618"/>
      <point x="141" y="578" type="qcurve" smooth="yes"/>
      <point x="141" y="31" type="line" smooth="yes"/>
      <point x="141" y="-9"/>
      <point x="101" y="-9" type="qcurve" smooth="yes"/>
    </contour>
  </outline>
</glyph>
<glyph name="acircumflex" format="2">
  <advance width="438"/>
  <unicode hex="00E2"/>
  <anchor x="214" y="702" name="top"/>
  <outline>
    <contour>
      <point x="103" y="12" type="qcurve" smooth="yes"/>
      <point x="70" y="45" type="line" smooth="yes"/>
      <point x="50" y="65"/>
      <point x="50" y="94" type="qcurve" smooth="yes"/>
      <point x="50" y="210" type="line" smooth="yes"/>
      <point x="50" y="225"/>
      <point x="60" y="248"/>
      <point x="71" y="259" type="qcurve" smooth="yes"/>
      <point x="103" y="291" type="line" smooth="yes"/>
      <point x="123" y="311"/>
      <point x="152" y="311" type="qcurve" smooth="yes"/>
      <point x="247" y="311" type="line" smooth="yes"/>
      <point x="287" y="311"/>
      <point x="287" y="351" type="qcurve" smooth="yes"/>
      <point x="287" y="354" type="line" smooth="yes"/>
      <point x="287" y="394"/>
      <point x="247" y="394" type="qcurve" smooth="yes"/>
      <point x="93" y="394" type="line" smooth="yes"/>
      <point x="53" y="394"/>
      <point x="53" y="434" type="qcurve" smooth="yes"/>
      <point x="53" y="445" type="line" smooth="yes"/>
      <point x="53" y="485"/>
      <point x="93" y="485" type="qcurve" smooth="yes"/>
      <point x="276" y="485" type="line" smooth="yes"/>
      <point x="305" y="485"/>
      <point x="325" y="465" type="qcurve" smooth="yes"/>
      <point x="358" y="432" type="line" smooth="yes"/>
      <point x="378" y="412"/>
      <point x="378" y="383" type="qcurve" smooth="yes"/>
      <point x="378" y="32" type="line" smooth="yes"/>
      <point x="378" y="-8"/>
      <point x="338" y="-8" type="qcurve" smooth="yes"/>
      <point x="152" y="-8" type="line" smooth="yes"/>
      <point x="123" y="-8"/>
    </contour>
    <contour>
      <point x="141" y="114" type="line" smooth="yes"/>
      <point x="141" y="74"/>
      <point x="181" y="74" type="qcurve" smooth="yes"/>
      <point x="247" y="74" type="line" smooth="yes"/>
      <point x="287" y="74"/>
      <point x="287" y="114" type="qcurve" smooth="yes"/>
      <point x="287" y="189" type="line" smooth="yes"/>
      <point x="287" y="229"/>
      <point x="247" y="229" type="qcurve" smooth="yes"/>
      <point x="181" y="229" type="line" smooth="yes"/>
      <point x="141" y="229"/>
      <point x="141" y="189" type="qcurve" smooth="yes"/>
    </contour>
    <contour>
      <point x="117" y="579" type="qcurve" smooth="yes"/>
      <point x="117" y="592"/>
      <point x="127" y="608" type="qcurve" smooth="yes"/>
      <point x="186" y="702" type="line" smooth="yes"/>
      <point x="198" y="722"/>
      <point x="214" y="722" type="qcurve" smooth="yes"/>
      <point x="230" y="722"/>
      <point x="242" y="702" type="qcurve"/>
      <point x="302" y="608" type="line"/>
      <point x="313" y="592"/>
      <point x="313" y="576" type="qcurve" smooth="yes"/>
      <point x="313" y="560"/>
      <point x="297" y="560" type="qcurve" smooth="yes"/>
      <point x="293" y="560" type="line" smooth="yes"/>
      <point x="261" y="560"/>
      <point x="245" y="587" type="qcurve" smooth="yes"/>
      <point x="242" y="592" type="line" smooth="yes"/>
      <point x="228" y="616"/>
      <point x="212" y="616" type="qcurve" smooth="yes"/>
      <point x="201" y="616"/>
      <point x="192" y="601" type="qcurve"/>
      <point x="185" y="588" type="line" smooth="yes"/>
      <point x="170" y="560"/>
      <point x="137" y="560" type="qcurve" smooth="yes"/>
      <point x="117" y="560"/>
    </contour>
  </outline>
</glyph>
<glyph name="adieresis" format="2">
  <advance width="438"/>
  <unicode hex="00E4"/>
  <anchor x="214" y="485" name="top"/>
  <outline>
    <contour>
      <point x="103" y="12" type="qcurve" smooth="yes"/>
      <point x="70" y="45" type="line" smooth="yes"/>
      <point x="50" y="65"/>
      <point x="50" y="94" type="qcurve" smooth="yes"/>
      <point x="50" y="210" type="line" smooth="yes"/>
      <point x="50" y="225"/>
      <point x="60" y="248"/>
      <point x="71" y="259" type="qcurve" smooth="yes"/>
      <point x="103" y="291" type="line" smooth="yes"/>
      <point x="123" y="311"/>
      <point x="152" y="311" type="qcurve" smooth="yes"/>
      <point x="247" y="311" type="line" smooth="yes"/>
      <point x="287" y="311"/>
      <point x="287" y="351" type="qcurve" smooth="yes"/>
      <point x="287" y="354" type="line" smooth="yes"/>
      <point x="287" y="394"/>
      <point x="247" y="394" type="qcurve" smooth="yes"/>
      <point x="93" y="394" type="line" smooth="yes"/>
      <point x="53" y="394"/>
      <point x="53" y="434" type="qcurve" smooth="yes"/>
      <point x="53" y="445" type="line" smooth="yes"/>
      <point x="53" y="485"/>
      <point x="93" y="485" type="qcurve" smooth="yes"/>
      <point x="276" y="485" type="line" smooth="yes"/>
      <point x="305" y="485"/>
      <point x="325" y="465" type="qcurve" smooth="yes"/>
      <point x="358" y="432" type="line" smooth="yes"/>
      <point x="378" y="412"/>
      <point x="378" y="383" type="qcurve" smooth="yes"/>
      <point x="378" y="32" type="line" smooth="yes"/>
      <point x="378" y="-8"/>
      <point x="338" y="-8" type="qcurve" smooth="yes"/>
      <point x="152" y="-8" type="line" smooth="yes"/>
      <point x="123" y="-8"/>
    </contour>
    <contour>
      <point x="141" y="114" type="line" smooth="yes"/>
      <point x="141" y="74"/>
      <point x="181" y="74" type="qcurve" smooth="yes"/>
      <point x="247" y="74" type="line" smooth="yes"/>
      <point x="287" y="74"/>
      <point x="287" y="114" type="qcurve" smooth="yes"/>
      <point x="287" y="189" type="line" smooth="yes"/>
      <point x="287" y="229"/>
      <point x="247" y="229" type="qcurve" smooth="yes"/>
      <point x="181" y="229" type="line" smooth="yes"/>
      <point x="141" y="229"/>
      <point x="141" y="189" type="qcurve" smooth="yes"/>
    </contour>
    <contour>
      <point x="133" y="560" type="qcurve" smooth="yes"/>
      <point x="110" y="560"/>
      <point x="83" y="590"/>
      <point x="83" y="610" type="qcurve" smooth="yes"/>
      <point x="83" y="630"/>
      <point x="112" y="659"/>
      <point x="133" y="659" type="qcurve" smooth="yes"/>
      <point x="155" y="659"/>
      <point x="183" y="628"/>
      <point x="183" y="610" type="qcurve" smooth="yes"/>
      <point x="183" y="591"/>
      <point x="154" y="560"/>
    </contour>
    <contour>
      <point x="296" y="560" type="qcurve" smooth="yes"/>
      <point x="274" y="560"/>
      <point x="247" y="591"/>
      <point x="247" y="610" type="qcurve" smooth="yes"/>
      <point x="247" y="630"/>
      <point x="275" y="659"/>
      <point x="296" y="659" type="qcurve" smooth="yes"/>
      <point x="318" y="659"/>
      <point x="346" y="628"/>
      <point x="346" y="610" type="qcurve" smooth="yes"/>
      <point x="346" y="591"/>
      <point x="317" y="560"/>
    </contour>
  </outline>
</glyph>
<glyph name="aring" format="2">
  <advance width="438"/>
  <unicode hex="00E5"/>
  <anchor x="214" y="485" name="top"/>
  <outline>
    <contour>
      <point x="103" y="12" type="qcurve" smooth="yes"/>
      <point x="70" y="45" type="line" smooth="yes"/>
      <point x="50" y="65"/>
      <point x="50" y="94" type="qcurve" smooth="yes"/>
      <point x="50" y="210" type="line" smooth="yes"/>
      <point x="50" y="225"/>
      <point x="60" y="248"/>
      <point x="71" y="259" type="qcurve" smooth="yes"/>
      <point x="103" y="291" type="line" smooth="yes"/>
      <point x="123" y="311"/>
      <point x="152" y="311" type="qcurve" smooth="yes"/>
      <point x="247" y="311" type="line" smooth="yes"/>
      <point x="287" y="311"/>
      <point x="287" y="351" type="qcurve" smooth="yes"/>
      <point x="287" y="354" type="line" smooth="yes"/>
      <point x="287" y="394"/>
      <point x="247" y="394" type="qcurve" smooth="yes"/>
      <point x="93" y="394" type="line" smooth="yes"/>
      <point x="53" y="394"/>
      <point x="53" y="434" type="qcurve" smooth="yes"/>
      <point x="53" y="445" type="line" smooth="yes"/>
      <point x="53" y="485"/>
      <point x="93" y="485" type="qcurve" smooth="yes"/>
      <point x="276" y="485" type="line" smooth="yes"/>
      <point x="305" y="485"/>
      <point x="325" y="465" type="qcurve" smooth="yes"/>
      <point x="358" y="432" type="line" smooth="yes"/>
      <point x="378" y="412"/>
      <point x="378" y="383" type="qcurve" smooth="yes"/>
      <point x="378" y="32" type="line" smooth="yes"/>
      <point x="378" y="-8"/>
      <point x="338" y="-8" type="qcurve" smooth="yes"/>
      <point x="152" y="-8" type="line" smooth="yes"/>
      <point x="123" y="-8"/>
    </contour>
    <contour>
      <point x="141" y="114" type="line" smooth="yes"/>
      <point x="141" y="74"/>
      <point x="181" y="74" type="qcurve" smooth="yes"/>
      <point x="247" y="74" type="line" smooth="yes"/>
      <point x="287" y="74"/>
      <point x="287" y="114" type="qcurve" smooth="yes"/>
      <point x="287" y="189" type="line" smooth="yes"/>
      <point x="287" y="229"/>
      <point x="247" y="229" type="qcurve" smooth="yes"/>
      <point x="181" y="229" type="line" smooth="yes"/>
      <point x="141" y="229"/>
      <point x="141" y="189" type="qcurve" smooth="yes"/>
    </contour>
    <contour>
      <point x="114" y="593" type="qcurve" smooth="yes"/>
      <point x="98" y="620" type="line" smooth="yes"/>
      <point x="85" y="643"/>
      <point x="85" y="670" type="qcurve"/>
      <point x="85" y="672" type="line"/>
      <point x="85" y="700"/>
      <point x="99" y="722" type="qcurve"/>
      <point x="115" y="749" type="line"/>
      <point x="128" y="773"/>
      <point x="150" y="785" type="qcurve" smooth="yes"/>
      <point x="171" y="797"/>
      <point x="198" y="797" type="qcurve" smooth="yes"/>
      <point x="230" y="797" type="line" smooth="yes"/>
      <point x="258" y="797"/>
      <point x="279" y="785" type="qcurve" smooth="yes"/>
      <point x="302" y="771"/>
      <point x="314" y="749" type="qcurve"/>
      <point x="330" y="722" type="line" smooth="yes"/>
      <point x="343" y="699"/>
      <point x="343" y="672" type="qcurve"/>
      <point x="343" y="670" type="line"/>
      <point x="343" y="643"/>
      <point x="330" y="620" type="qcurve" smooth="yes"/>
      <point x="314" y="593" type="line" smooth="yes"/>
      <point x="300" y="569"/>
      <point x="279" y="558" type="qcurve" smooth="yes"/>
      <point x="258" y="546"/>
      <point x="231" y="546" type="qcurve" smooth="yes"/>
      <point x="198" y="546" type="line" smooth="yes"/>
      <point x="171" y="546"/>
      <point x="150" y="558" type="qcurve"/>
      <point x="129" y="568"/>
    </contour>
    <contour>
      <point x="181" y="613" type="qcurve" smooth="yes"/>
      <point x="189" y="608"/>
      <point x="214" y="608" type="qcurve" smooth="yes"/>
      <point x="240" y="608"/>
      <point x="248" y="613" type="qcurve" smooth="yes"/>
      <point x="256" y="618"/>
      <point x="268" y="639" type="qcurve" smooth="yes"/>
      <point x="281" y="661"/>
      <point x="281" y="671" type="qcurve" smooth="yes"/>
      <point x="281" y="681"/>
      <point x="268" y="704" type="qcurve" smooth="yes"/>
      <point x="256" y="725"/>
      <point x="248" y="730" type="qcurve" smooth="yes"/>
      <point x="241" y="734"/>
      <point x="214" y="734" type="qcurve" smooth="yes"/>
      <point x="188" y="734"/>
      <point x="181" y="730" type="qcurve" smooth="yes"/>
      <point x="173" y="725"/>
      <point x="161" y="704" type="qcurve" smooth="yes"/>
      <point x="148" y="681"/>
      <point x="148" y="671" type="qcurve" smooth="yes"/>
      <point x="148" y="661"/>
      <point x="161" y="639" type="qcurve" smooth="yes"/>
      <point x="173" y="617"/>
    </contour>
  </outline>
</glyph>
<glyph name="igrave" format="2">
  <advance width="212"/>
  <unicode hex="00EC"/>
  <anchor x="106" y="485" name="top"/>
  <outline>
    <contour>
      <point x="101" y="-9" type="line" smooth="yes"/>
      <point x="61" y="-9"/>
      <point x="61" y="31" type="qcurve" smooth="yes"/>
      <point x="61" y="445" type="line" smooth="yes"/>
      <point x="61" y="485"/>
      <point x="101" y="485" type="qcurve" smooth="yes"/>
      <point x="111" y="485" type="line" smooth="yes"/>
      <point x="151" y="485"/>
      <point x="151" y="445" type="qcurve" smooth="yes"/>
      <point x="151" y="31" type="line" smooth="yes"/>
      <point x="151" y="-9"/>
      <point x="111" y="-9" type="qcurve" smooth="yes"/>
    </contour>
    <contour>
      <point x="59" y="605" type="qcurve" smooth="yes"/>
      <point x="19" y="693" type="line" smooth="yes"/>
      <point x="13" y="707"/>
      <point x="28" y="726"/>
      <point x="44" y="726" type="qcurve" smooth="yes"/>
      <point x="65" y="726" type="line" smooth="yes"/>
      <point x="82" y="726"/>
      <point x="105" y="707"/>
      <point x="111" y="693" type="qcurve" smooth="yes"/>
      <point x="151" y="605" type="line" smooth="yes"/>
      <point x="157" y="591"/>
      <point x="142" y="572"/>
      <point x="126" y="572" type="qcurve" smooth="yes"/>
      <point x="105" y="572" type="line" smooth="yes"/>
      <point x="88" y="572"/>
      <point x="65" y="591"/>
    </contour>
  </outline>
</glyph>
<glyph name="iacute" format="2">
  <advance width="212"/>
  <unicode hex="00ED"/>
  <anchor x="106" y="485" name="top"/>
  <outline>
    <contour>
      <point x="101" y="-9" type="line" smooth="yes"/>
      <point x="61" y="-9"/>
      <point x="61" y="31" type="qcurve" smooth="yes"/>
      <point x="61" y="445" type="line" smooth="yes"/>
      <point x="61" y="485"/>
      <point x="101" y="485" type="qcurve" smooth="yes"/>
      <point x="111" y="485" type="line" smooth="yes"/>
      <point x="151" y="485"/>
      <point x="151" y="445" type="qcurve" smooth="yes"/>
      <point x="151" y="31" type="line" smooth="yes"/>
      <point x="151" y="-9"/>
      <point x="111" y="-9" type="qcurve" smooth="yes"/>
    </contour>
    <contour>
      <point x="72" y="572" type="line" smooth="yes"/>
      <point x="56" y="572"/>
      <point x="41" y="591"/>
      <point x="47" y="605" type="qcurve" smooth="yes"/>
      <point x="87" y="693" type="line" smooth="yes"/>
      <point x="93" y="707"/>
      <point x="116" y="726"/>
      <point x="133" y="726" type="qcurve" smooth="yes"/>
      <point x="154" y="726" type="line" smooth="yes"/>
      <point x="170" y="726"/>
      <point x="185" y="707"/>
      <point x="179" y="693" type="qcurve" smooth="yes"/>
      <point x="139" y="605" type="line" smooth="yes"/>
      <point x="133" y="591"/>
      <point x="110" y="572"/>
      <point x="93" y="572" type="qcurve" smooth="yes"/>
    </contour>
  </outline>
</glyph>
<glyph name="icircumflex" format="2">
  <advance width="212"/>
  <unicode hex="00EE"/>
  <anchor x="106" y="702" name="top"/>
  <outline>
    <contour>
      <point x="101" y="-9" type="line" smooth="yes"/>
      <point x="61" y="-9"/>
      <point x="61" y="31" type="qcurve" smooth="yes"/>
      <point x="61" y="445" type="line" smooth="yes"/>
      <point x="61" y="485"/>
      <point x="101" y="485" type="qcurve" smooth="yes"/>
      <point x="111" y="485" type="line" smooth="yes"/>
      <point x="151" y="485"/>
      <point x="151" y="445" type="qcurve" smooth="yes"/>
      <point x="151" y="31" type="line" smooth="yes"/>
      <point x="151" y="-9"/>
      <point x="111" y="-9" type="qcurve" smooth="yes"/>
    </contour>
    <contour>
      <point x="9" y="579" type="qcurve" smooth="yes"/>
      <point x="9" y="592"/>
      <point x="19" y="608" type="qcurve" smooth="yes"/>
      <point x="78" y="702" type="line" smooth="yes"/>
      <point x="90" y="722"/>
      <point x="106" y="722" type="qcurve" smooth="yes"/>
      <point x="122" y="722"/>
      <point x="134" y="702" type="qcurve"/>
      <point x="194" y="608" type="line"/>
      <point x="205" y="592"/>
      <point x="205" y="576" type="qcurve" smooth="yes"/>
      <point x="205" y="560"/>
      <point x="189" y="560" type="qcurve" smooth="yes"/>
      <point x="185" y="560" type="line" smooth="yes"/>
      <point x="153" y="560"/>
      <point x="137" y="587" type="qcurve" smooth="yes"/>
      <point x="134" y="592" type="line" smooth="yes"/>
      <point x="120" y="616"/>
      <point x="104" y="616" type="qcurve" smooth="yes"/>
      <point x="93" y="616"/>
      <point x="84" y="601" type="qcurve"/>
      <point x="77" y="588" type="line" smooth="yes"/>
      <point x="62" y="560"/>
      <point x="29" y="560" type="qcurve" smooth="yes"/>
      <point x="9" y="560"/>
    </contour>
  </outline>
</glyph>
<glyph name="eth" format="2">
  <advance width="579"/>
  <unicode hex="00F0"/>
  <outline>
    <contour>
      <point x="103" y="11" type="qcurve" smooth="yes"/>
      <point x="70" y="44" type="line" smooth="yes"/>
      <point x="50" y="64"/>
      <point x="50" y="93" type="qcurve" smooth="yes"/>
      <point x="50" y="318" type="line" smooth="yes"/>
      <point x="50" y="347"/>
      <point x="70" y="367" type="qcurve" smooth="yes"/>
      <point x="102" y="399" type="line" smooth="yes"/>
      <point x="122" y="419"/>
      <point x="152" y="419" type="qcurve" smooth="yes"/>
      <point x="317" y="419" type="line" smooth="yes"/>
      <point x="341" y="419"/>
      <point x="341" y="433" type="qcurve" smooth="yes"/>
      <point x="341" y="440"/>
      <point x="333" y="451" type="qcurve" smooth="yes"/>
      <point x="252" y="558" type="line"/>
      <point x="240" y="575"/>
      <point x="220" y="575" type="qcurve" smooth="yes"/>
      <point x="206" y="575"/>
      <point x="195" y="567" type="qcurve" smooth="yes"/>
      <point x="135" y="524" type="line" smooth="yes"/>
      <point x="124" y="516"/>
      <point x="111" y="516" type="qcurve" smooth="yes"/>
      <point x="95" y="516"/>
      <point x="71" y="542"/>
      <point x="71" y="558" type="qcurve" smooth="yes"/>
      <point x="71" y="577"/>
      <point x="88" y="589" type="qcurve" smooth="yes"/>
      <point x="147" y="631" type="line"/>
      <point x="165" y="643"/>
      <point x="165" y="662" type="qcurve" smooth="yes"/>
      <point x="165" y="674"/>
      <point x="156" y="686" type="qcurve" smooth="yes"/>
      <point x="84" y="782" type="line" smooth="yes"/>
      <point x="76" y="793"/>
      <point x="76" y="800" type="qcurve" smooth="yes"/>
      <point x="76" y="814"/>
      <point x="100" y="814" type="qcurve" smooth="yes"/>
      <point x="121" y="814" type="line" smooth="yes"/>
      <point x="160" y="814"/>
      <point x="185" y="782" type="qcurve" smooth="yes"/>
      <point x="222" y="733" type="line"/>
      <point x="234" y="716"/>
      <point x="254" y="716" type="qcurve" smooth="yes"/>
      <point x="268" y="716"/>
      <point x="279" y="724" type="qcurve" smooth="yes"/>
      <point x="325" y="757" type="line" smooth="yes"/>
      <point x="336" y="765"/>
      <point x="349" y="765" type="qcurve" smooth="yes"/>
      <point x="365" y="765"/>
      <point x="389" y="739"/>
      <point x="389" y="723" type="qcurve" smooth="yes"/>
      <point x="389" y="704"/>
      <point x="372" y="692" type="qcurve" smooth="yes"/>
      <point x="327" y="660" type="line"/>
      <point x="309" y="648"/>
      <point x="309" y="629" type="qcurve" smooth="yes"/>
      <point x="309" y="617"/>
      <point x="318" y="605" type="qcurve" smooth="yes"/>
      <point x="434" y="451" type="line" smooth="yes"/>
      <point x="458" y="420"/>
      <point x="458" y="379" type="qcurve" smooth="yes"/>
      <point x="458" y="93" type="line" smooth="yes"/>
      <point x="458" y="64"/>
      <point x="438" y="44" type="qcurve" smooth="yes"/>
      <point x="405" y="11" type="line" smooth="yes"/>
      <point x="385" y="-9"/>
      <point x="356" y="-9" type="qcurve" smooth="yes"/>
      <point x="152" y="-9" type="line" smooth="yes"/>
      <point x="123" y="-9"/>
    </contour>
    <contour>
      <point x="141" y="122" type="line" smooth="yes"/>
      <point x="141" y="82"/>
      <point x="181" y="82" type="qcurve" smooth="yes"/>
      <point x="327" y="82" type="line" smooth="yes"/>
      <point x="367" y="82"/>
      <point x="367" y="122" type="qcurve" smooth="yes"/>
      <point x="367" y="288" type="line" smooth="yes"/>
      <point x="367" y="328"/>
      <point x="327" y="328" type="qcurve" smooth="yes"/>
      <point x="181" y="328" type="line" smooth="yes"/>
      <point x="141" y="328"/>
      <point x="141" y="288" type="qcurve" smooth="yes"/>
    </contour>
  </outline>
</glyph>
<glyph name="ntilde" format="2">
  <advance width="447"/>
  <unicode hex="00F1"/>
  <anchor x="224" y="485" name="top"/>
  <outline>
    <contour>
      <point x="100" y="-10" type="line" smooth="yes"/>
      <point x="60" y="-10"/>
      <point x="60" y="30" type="qcurve" smooth="yes"/>
      <point x="60" y="383" type="line" smooth="yes"/>
      <point x="60" y="412"/>
      <point x="80" y="432" type="qcurve" smooth="yes"/>
      <point x="113" y="465" type="line" smooth="yes"/>
      <point x="133" y="485"/>
      <point x="162" y="485" type="qcurve" smooth="yes"/>
      <point x="286" y="485" type="line" smooth="yes"/>
      <point x="314" y="485"/>
      <point x="335" y="464" type="qcurve" smooth="yes"/>
      <point x="367" y="432" type="line" smooth="yes"/>
      <point x="387" y="412"/>
      <point x="387" y="383" type="qcurve" smooth="yes"/>
      <point x="387" y="30" type="line" smooth="yes"/>
      <point x="387" y="-10"/>
      <point x="347" y="-10" type="qcurve" smooth="yes"/>
      <point x="337" y="-10" type="line" smooth="yes"/>
      <point x="297" y="-10"/>
      <point x="297" y="30" type="qcurve" smooth="yes"/>
      <point x="297" y="354" type="line" smooth="yes"/>
      <point x="297" y="394"/>
      <point x="257" y="394" type="qcurve" smooth="yes"/>
      <point x="191" y="394" type="line" smooth="yes"/>
      <point x="151" y="394"/>
      <point x="151" y="354" type="qcurve" smooth="yes"/>
      <point x="151" y="30" type="line" smooth="yes"/>
      <point x="151" y="-10"/>
      <point x="111" y="-10" type="qcurve" smooth="yes"/>
    </contour>
    <contour>
      <point x="361" y="593" type="line"/>
      <point x="384" y="611" type="line"/>
      <point x="406" y="629"/>
      <point x="411" y="641" type="qcurve" smooth="yes"/>
      <point x="414" y="647"/>
      <point x="432" y="648"/>
      <point x="445" y="642" type="qcurve" smooth="yes"/>
      <point x="474" y="629"/>
      <point x="464" y="608" type="qcurve" smooth="yes"/>
      <point x="456" y="589"/>
      <point x="434" y="571" type="qcurve" smooth="yes"/>
      <point x="409" y="551" type="line" smooth="yes"/>
      <point x="389" y="535"/>
      <point x="373" y="532" type="qcurve" smooth="yes"/>
      <point x="356" y="529"/>
      <point x="335" y="531" type="qcurve" smooth="yes"/>
      <point x="300" y="534" type="line" smooth="yes"/>
      <point x="275" y="536"/>
      <point x="251" y="547" type="qcurve" smooth="yes"/>
      <point x="194" y="572" type="line" smooth="yes"/>
      <point x="170" y="583"/>
      <point x="146" y="586" type="qcurve"/>
      <point x="132" y="587" type="line"/>
      <point x="106" y="590"/>
      <point x="98" y="588" type="qcurve" smooth="yes"/>
      <point x="86" y="584"/>
      <point x="68" y="570" type="qcurve"/>
      <point x="66" y="568" type="line"/>
      <point x="45" y="550"/>
      <point x="37" y="534" type="qcurve" smooth="yes"/>
      <point x="29" y="516"/>
      <point x="1" y="530" type="qcurve" smooth="yes"/>
      <point x="-12" y="536"/>
      <point x="-21" y="556"/>
      <point x="-16" y="567" type="qcurve" smooth="yes"/>
      <point x="-5" y="591"/>
      <point x="15" y="607" type="qcurve" smooth="yes"/>
      <point x="40" y="628" type="line" smooth="yes"/>
      <point x="58" y="643"/>
      <point x="80" y="648" type="qcurve"/>
      <point x="96" y="652"/>
      <point x="124" y="650" type="qcurve" smooth="yes"/>
      <point x="158" y="647" type="line" smooth="yes"/>
      <point x="183" y="645"/>
      <point x="206" y="634" type="qcurve"/>
      <point x="263" y="608" type="line"/>
      <point x="287" y="598"/>
      <point x="311" y="595" type="qcurve" smooth="yes"/>
      <point x="326" y="593" type="line" smooth="yes"/>
      <point x="352" y="590"/>
      <point x="356" y="592" type="qcurve"/>
    </contour>
  </outline>
</glyph>
<glyph name="otilde" format="2">
  <advance width="427"/>
  <unicode hex="00F5"/>
  <anchor x="409" y="525" name="Odot"/>
  <anchor x="214" y="485" name="top"/>
  <outline>
    <contour>
      <point x="103" y="11" type="qcurve" smooth="yes"/>
      <point x="70" y="44" type="line" smooth="yes"/>
      <point x="50" y="64"/>
      <point x="50" y="93" type="qcurve" smooth="yes"/>
      <point x="50" y="383" type="line" smooth="yes"/>
      <point x="50" y="412"/>
      <point x="70" y="432" type="qcurve" smooth="yes"/>
      <point x="103" y="465" type="line" smooth="yes"/>
      <point x="123" y="485"/>
      <point x="152" y="485" type="qcurve" smooth="yes"/>
      <point x="276" y="485" type="line" smooth="yes"/>
      <point x="305" y="485"/>
      <point x="325" y="465" type="qcurve" smooth="yes"/>
      <point x="357" y="433" type="line" smooth="yes"/>
      <point x="377" y="412"/>
      <point x="377" y="383" type="qcurve" smooth="yes"/>
      <point x="377" y="93" type="line"/>
      <point x="378" y="64"/>
      <point x="357" y="43" type="qcurve" smooth="yes"/>
      <point x="325" y="11" type="line" smooth="yes"/>
      <point x="305" y="-9"/>
      <point x="276" y="-9" type="qcurve" smooth="yes"/>
      <point x="152" y="-9" type="line" smooth="yes"/>
      <point x="123" y="-9"/>
    </contour>
    <contour>
      <point x="141" y="122" type="line" smooth="yes"/>
      <point x="141" y="82"/>
      <point x="181" y="82" type="qcurve" smooth="yes"/>
      <point x="246" y="82" type="line" smooth="yes"/>
      <point x="286" y="82"/>
      <point x="286" y="122" type="qcurve" smooth="yes"/>
      <point x="286" y="354" type="line" smooth="yes"/>
      <point x="286" y="394"/>
      <point x="246" y="394" type="qcurve" smooth="yes"/>
      <point x="181" y="394" type="line" smooth="yes"/>
      <point x="141" y="394"/>
      <point x="141" y="354" type="qcurve" smooth="yes"/>
    </contour>
    <contour>
      <point x="351" y="593" type="line"/>
      <point x="374" y="611" type="line"/>
      <point x="396" y="629"/>
      <point x="401" y="641" type="qcurve" smooth="yes"/>
      <point x="404" y="647"/>
      <point x="422" y="648"/>
      <point x="435" y="642" type="qcurve" smooth="yes"/>
      <point x="464" y="629"/>
      <point x="454" y="608" type="qcurve" smooth="yes"/>
      <point x="446" y="589"/>
      <point x="424" y="571" type="qcurve" smooth="yes"/>
      <point x="399" y="551" type="line" smooth="yes"/>
      <point x="379" y="535"/>
      <point x="363" y="532" type="qcurve" smooth="yes"/>
      <point x="346" y="529"/>
      <point x="325" y="531" type="qcurve" smooth="yes"/>
      <point x="290" y="534" type="line" smooth="yes"/>
      <point x="265" y="536"/>
      <point x="241" y="547" type="qcurve" smooth="yes"/>
      <point x="184" y="572" type="line" smooth="yes"/>
      <point x="160" y="583"/>
      <point x="136" y="586" type="qcurve"/>
      <point x="122" y="587" type="line"/>
      <point x="96" y="590"/>
      <point x="88" y="588" type="qcurve" smooth="yes"/>
      <point x="76" y="584"/>
      <point x="58" y="570" type="qcurve"/>
      <point x="56" y="568" type="line"/>
      <point x="35" y="550"/>
      <point x="27" y="534" type="qcurve" smooth="yes"/>
      <point x="19" y="516"/>
      <point x="-9" y="530" type="qcurve" smooth="yes"/>
      <point x="-22" y="536"/>
      <point x="-31" y="556"/>
      <point x="-26" y="567" type="qcurve" smooth="yes"/>
      <point x="-15" y="591"/>
      <point x="5" y="607" type="qcurve" smooth="yes"/>
      <point x="30" y="628" type="line" smooth="yes"/>
      <point x="48" y="643"/>
      <point x="70" y="648" type="qcurve"/>
      <point x="86" y="652"/>
      <point x="114" y="650" type="qcurve" smooth="yes"/>
      <point x="148" y="647" type="line" smooth="yes"/>
      <point x="173" y="645"/>
      <point x="196" y="634" type="qcurve"/>
      <point x="253" y="608" type="line"/>
      <point x="277" y="598"/>
      <point x="301" y="595" type="qcurve" smooth="yes"/>
      <point x="316" y="593" type="line" smooth="yes"/>
      <point x="342" y="590"/>
      <point x="346" y="592" type="qcurve"/>
    </contour>
  </outline>
</glyph>
<glyph name="ucircumflex" format="2">
  <advance width="446"/>
  <unicode hex="00FB"/>
  <anchor x="223" y="702" name="top"/>
  <outline>
    <contour>
      <point x="113" y="11" type="qcurve" smooth="yes"/>
      <point x="80" y="44" type="line" smooth="yes"/>
      <point x="60" y="64"/>
      <point x="60" y="93" type="qcurve" smooth="yes"/>
      <point x="60" y="445" type="line" smooth="yes"/>
      <point x="60" y="485"/>
      <point x="100" y="485" type="qcurve" smooth="yes"/>
      <point x="111" y="485" type="line" smooth="yes"/>
      <point x="151" y="485"/>
      <point x="151" y="445" type="qcurve" smooth="yes"/>
      <point x="151" y="122" type="line" smooth="yes"/>
      <point x="151" y="82"/>
      <point x="191" y="82" type="qcurve" smooth="yes"/>
      <point x="255" y="82" type="line" smooth="yes"/>
      <point x="295" y="82"/>
      <point x="295" y="122" type="qcurve" smooth="yes"/>
      <point x="295" y="445" type="line" smooth="yes"/>
      <point x="295" y="485"/>
      <point x="335" y="485" type="qcurve" smooth="yes"/>
      <point x="346" y="485" type="line" smooth="yes"/>
      <point x="386" y="485"/>
      <point x="386" y="445" type="qcurve" smooth="yes"/>
      <point x="386" y="93" type="line"/>
      <point x="387" y="64"/>
      <point x="366" y="43" type="qcurve" smooth="yes"/>
      <point x="334" y="11" type="line" smooth="yes"/>
      <point x="314" y="-9"/>
      <point x="285" y="-9" type="qcurve" smooth="yes"/>
      <point x="162" y="-9" type="line" smooth="yes"/>
      <point x="133" y="-9"/>
    </contour>
    <contour>
      <point x="126" y="579" type="qcurve" smooth="yes"/>
      <point x="126" y="592"/>
      <point x="136" y="608" type="qcurve" smooth="yes"/>
      <point x="195" y="702" type="line" smooth="yes"/>
      <point x="207" y="722"/>
      <point x="223" y="722" type="qcurve" smooth="yes"/>
      <point x="239" y="722"/>
      <point x="251" y="702" type="qcurve"/>
      <point x="311" y="608" type="line"/>
      <point x="322" y="592"/>
      <point x="322" y="576" type="qcurve" smooth="yes"/>
      <point x="322" y="560"/>
      <point x="306" y="560" type="qcurve" smooth="yes"/>
      <point x="302" y="560" type="line" smooth="yes"/>
      <point x="270" y="560"/>
      <point x="254" y="587" type="qcurve" smooth="yes"/>
      <point x="251" y="592" type="line" smooth="yes"/>
      <point x="237" y="616"/>
      <point x="221" y="616" type="qcurve" smooth="yes"/>
      <point x="210" y="616"/>
      <point x="201" y="601" type="qcurve"/>
      <point x="194" y="588" type="line" smooth="yes"/>
      <point x="179" y="560"/>
      <point x="146" y="560" type="qcurve" smooth="yes"/>
      <point x="126" y="560"/>
    </contour>
  </outline>
</glyph>
<glyph name="yacute" format="2">
  <advance width="416"/>
  <unicode hex="00FD"/>
  <outline>
    <contour>
      <point x="49" y="-180" type="qcurve" smooth="yes"/>
      <point x="49" y="-169" type="line" smooth="yes"/>
      <point x="49" y="-129"/>
      <point x="89" y="-129" type="qcurve" smooth="yes"/>
      <point x="235" y="-129" type="line" smooth="yes"/>
      <point x="275" y="-129"/>
      <point x="275" y="-89" type="qcurve" smooth="yes"/>
      <point x="275" y="-27" type="line" smooth="yes"/>
      <point x="275" y="13"/>
      <point x="235" y="13" type="qcurve" smooth="yes"/>
      <point x="142" y="13" type="line" smooth="yes"/>
      <point x="113" y="13"/>
      <point x="93" y="33" type="qcurve" smooth="yes"/>
      <point x="60" y="66" type="line" smooth="yes"/>
      <point x="40" y="86"/>
      <point x="40" y="115" type="qcurve" smooth="yes"/>
      <point x="40" y="445" type="line" smooth="yes"/>
      <point x="40" y="485"/>
      <point x="80" y="485" type="qcurve" smooth="yes"/>
      <point x="91" y="485" type="line" smooth="yes"/>
      <point x="131" y="485"/>
      <point x="131" y="445" type="qcurve" smooth="yes"/>
      <point x="131" y="144" type="line" smooth="yes"/>
      <point x="131" y="104"/>
      <point x="171" y="104" type="qcurve" smooth="yes"/>
      <point x="235" y="104" type="line" smooth="yes"/>
      <point x="275" y="104"/>
      <point x="275" y="144" type="qcurve" smooth="yes"/>
      <point x="275" y="445" type="line" smooth="yes"/>
      <point x="275" y="485"/>
      <point x="315" y="485" type="qcurve" smooth="yes"/>
      <point x="326" y="485" type="line" smooth="yes"/>
      <point x="366" y="485"/>
      <point x="366" y="445" type="qcurve" smooth="yes"/>
      <point x="366" y="-118" type="line" smooth="yes"/>
      <point x="366" y="-147"/>
      <point x="346" y="-167" type="qcurve" smooth="yes"/>
      <point x="313" y="-200" type="line" smooth="yes"/>
      <point x="293" y="-220"/>
      <point x="264" y="-220" type="qcurve" smooth="yes"/>
      <point x="89" y="-220" type="line" smooth="yes"/>
      <point x="49" y="-220"/>
    </contour>
    <contour>
      <point x="162" y="525" type="line" smooth="yes"/>
      <point x="146" y="525"/>
      <point x="131" y="544"/>
      <point x="137" y="558" type="qcurve" smooth="yes"/>
      <point x="177" y="646" type="line" smooth="yes"/>
      <point x="183" y="660"/>
      <point x="206" y="679"/>
      <point x="223" y="679" type="qcurve" smooth="yes"/>
      <point x="244" y="679" type="line" smooth="yes"/>
      <point x="260" y="679"/>
      <point x="275" y="660"/>
      <point x="269" y="646" type="qcurve" smooth="yes"/>
      <point x="229" y="558" type="line" smooth="yes"/>
      <point x="223" y="544"/>
      <point x="200" y="525"/>
      <point x="183" y="525" type="qcurve" smooth="yes"/>
    </contour>
  </outline>
</glyph>
<glyph name="Ccircumflex" format="2">
  <advance width="496"/>
  <unicode hex="0108"/>
  <anchor x="248" y="927" name="top"/>
  <outline>
    <contour>
      <point x="103" y="11" type="qcurve" smooth="yes"/>
      <point x="70" y="44" type="line" smooth="yes"/>
      <point x="50" y="64"/>
      <point x="50" y="93" type="qcurve" smooth="yes"/>
      <point x="50" y="608" type="line" smooth="yes"/>
      <point x="50" y="637"/>
      <point x="70" y="657" type="qcurve" smooth="yes"/>
      <point x="103" y="690" type="line" smooth="yes"/>
      <point x="123" y="710"/>
      <point x="152" y="710" type="qcurve" smooth="yes"/>
      <point x="344" y="710" type="line" smooth="yes"/>
      <point x="373" y="710"/>
      <point x="393" y="690" type="qcurve" smooth="yes"/>
      <point x="426" y="657" type="line" smooth="yes"/>
      <point x="446" y="637"/>
      <point x="446" y="608" type="qcurve" smooth="yes"/>
      <point x="446" y="471" type="line" smooth="yes"/>
      <point x="446" y="431"/>
      <point x="406" y="431" type="qcurve" smooth="yes"/>
      <point x="395" y="431" type="line" smooth="yes"/>
      <point x="355" y="431"/>
      <point x="355" y="471" type="qcurve" smooth="yes"/>
      <point x="355" y="579" type="line" smooth="yes"/>
      <point x="355" y="619"/>
      <point x="315" y="619" type="qcurve" smooth="yes"/>
      <point x="181" y="619" type="line" smooth="yes"/>
      <point x="141" y="619"/>
      <point x="141" y="579" type="qcurve" smooth="yes"/>
      <point x="141" y="122" type="line" smooth="yes"/>
      <point x="141" y="82"/>
      <point x="181" y="82" type="qcurve" smooth="yes"/>
      <point x="315" y="82" type="line" smooth="yes"/>
      <point x="355" y="82"/>
      <point x="355" y="122" type="qcurve" smooth="yes"/>
      <point x="355" y="220" type="line" smooth="yes"/>
      <point x="355" y="260"/>
      <point x="395" y="260" type="qcurve" smooth="yes"/>
      <point x="406" y="260" type="line" smooth="yes"/>
      <point x="446" y="260"/>
      <point x="446" y="220" type="qcurve" smooth="yes"/>
      <point x="446" y="93" type="line" smooth="yes"/>
      <point x="446" y="64"/>
      <point x="426" y="44" type="qcurve" smooth="yes"/>
      <point x="393" y="11" type="line" smooth="yes"/>
      <point x="373" y="-9"/>
      <point x="344" y="-9" type="qcurve" smooth="yes"/>
      <point x="152" y="-9" type="line" smooth="yes"/>
      <point x="123" y="-9"/>
    </contour>
    <contour>
      <point x="151" y="804" type="qcurve" smooth="yes"/>
      <point x="151" y="817"/>
      <point x="161" y="833" type="qcurve" smooth="yes"/>
      <point x="220" y="927" type="line" smooth="yes"/>
      <point x="232" y="947"/>
      <point x="248" y="947" type="qcurve" smooth="yes"/>
      <point x="264" y="947"/>
      <point x="276" y="927" type="qcurve"/>
      <point x="336" y="833" type="line"/>
      <point x="347" y="817"/>
      <point x="347" y="801" type="qcurve" smooth="yes"/>
      <point x="347" y="785"/>
      <point x="331" y="785" type="qcurve" smooth="yes"/>
      <point x="327" y="785" type="line" smooth="yes"/>
      <point x="295" y="785"/>
      <point x="279" y="812" type="qcurve" smooth="yes"/>
      <point x="276" y="817" type="line" smooth="yes"/>
      <point x="262" y="841"/>
      <point x="246" y="841" type="qcurve" smooth="yes"/>
      <point x="235" y="841"/>
      <point x="226" y="826" type="qcurve"/>
      <point x="219" y="813" type="line" smooth="yes"/>
      <point x="204" y="785"/>
      <point x="171" y="785" type="qcurve" smooth="yes"/>
      <point x="151" y="785"/>
    </contour>
  </outline>
</glyph>
<glyph name="ccircumflex" format="2">
  <advance width="405"/>
  <unicode hex="0109"/>
  <anchor x="213" y="702" name="top"/>
  <outline>
    <contour>
      <point x="103" y="12" type="qcurve" smooth="yes"/>
      <point x="70" y="45" type="line" smooth="yes"/>
      <point x="50" y="65"/>
      <point x="50" y="94" type="qcurve" smooth="yes"/>
      <point x="50" y="383" type="line" smooth="yes"/>
      <point x="50" y="412"/>
      <point x="70" y="432" type="qcurve" smooth="yes"/>
      <point x="103" y="465" type="line" smooth="yes"/>
      <point x="123" y="485"/>
      <point x="152" y="485" type="qcurve" smooth="yes"/>
      <point x="335" y="485" type="line" smooth="yes"/>
      <point x="375" y="485"/>
      <point x="375" y="445" type="qcurve" smooth="yes"/>
      <point x="375" y="434" type="line" smooth="yes"/>
      <point x="375" y="394"/>
      <point x="335" y="394" type="qcurve" smooth="yes"/>
      <point x="181" y="394" type="line" smooth="yes"/>
      <point x="141" y="394"/>
      <point x="141" y="354" type="qcurve" smooth="yes"/>
      <point x="141" y="123" type="line" smooth="yes"/>
      <point x="141" y="83"/>
      <point x="181" y="83" type="qcurve" smooth="yes"/>
      <point x="335" y="83" type="line" smooth="yes"/>
      <point x="375" y="83"/>
      <point x="375" y="43" type="qcurve" smooth="yes"/>
      <point x="375" y="32" type="line" smooth="yes"/>
      <point x="375" y="-8"/>
      <point x="335" y="-8" type="qcurve" smooth="yes"/>
      <point x="152" y="-8" type="line" smooth="yes"/>
      <point x="123" y="-8"/>
    </contour>
    <contour>
      <point x="116" y="579" type="qcurve" smooth="yes"/>
      <point x="116" y="592"/>
      <point x="126" y="608" type="qcurve" smooth="yes"/>
      <point x="185" y="702" type="line" smooth="yes"/>
      <point x="197" y="722"/>
      <point x="213" y="722" type="qcurve" smooth="yes"/>
      <point x="229" y="722"/>
      <point x="241" y="702" type="qcurve"/>
      <point x="301" y="608" type="line"/>
      <point x="312" y="592"/>
      <point x="312" y="576" type="qcurve" smooth="yes"/>
      <point x="312" y="560"/>
      <point x="296" y="560" type="qcurve" smooth="yes"/>
      <point x="292" y="560" type="line" smooth="yes"/>
      <point x="260" y="560"/>
      <point x="244" y="587" type="qcurve" smooth="yes"/>
      <point x="241" y="592" type="line" smooth="yes"/>
      <point x="227" y="616"/>
      <point x="211" y="616" type="qcurve" smooth="yes"/>
      <point x="200" y="616"/>
      <point x="191" y="601" type="qcurve"/>
      <point x="184" y="588" type="line" smooth="yes"/>
      <point x="169" y="560"/>
      <point x="136" y="560" type="qcurve" smooth="yes"/>
      <point x="116" y="560"/>
    </contour>
  </outline>
</glyph>
<glyph name="Emacron" format="2">
  <advance width="485"/>
  <unicode hex="0112"/>
  <anchor x="248" y="710" name="top"/>
  <outline>
    <contour>
      <point x="102" y="14" type="qcurve" smooth="yes"/>
      <point x="70" y="46" type="line" smooth="yes"/>
      <point x="50" y="66"/>
      <point x="50" y="95" type="qcurve" smooth="yes"/>
      <point x="50" y="671" type="line" smooth="yes"/>
      <point x="50" y="711"/>
      <point x="90" y="711" type="qcurve" smooth="yes"/>
      <point x="405" y="711" type="line" smooth="yes"/>
      <point x="445" y="711"/>
      <point x="445" y="671" type="qcurve" smooth="yes"/>
      <point x="445" y="660" type="line" smooth="yes"/>
      <point x="445" y="620"/>
      <point x="405" y="620" type="qcurve" smooth="yes"/>
      <point x="180" y="620" type="line" smooth="yes"/>
      <point x="140" y="620"/>
      <point x="140" y="580" type="qcurve" smooth="yes"/>
      <point x="140" y="446" type="line" smooth="yes"/>
      <point x="140" y="406"/>
      <point x="180" y="406" type="qcurve" smooth="yes"/>
      <point x="405" y="406" type="line" smooth="yes"/>
      <point x="445" y="406"/>
      <point x="445" y="366" type="qcurve" smooth="yes"/>
      <point x="445" y="355" type="line" smooth="yes"/>
      <point x="445" y="315"/>
      <point x="405" y="315" type="qcurve" smooth="yes"/>
      <point x="180" y="315" type="line" smooth="yes"/>
      <point x="140" y="315"/>
      <point x="140" y="275" type="qcurve" smooth="yes"/>
      <point x="140" y="124" type="line" smooth="yes"/>
      <point x="140" y="84"/>
      <point x="180" y="84" type="qcurve" smooth="yes"/>
      <point x="405" y="84" type="line" smooth="yes"/>
      <point x="445" y="84"/>
      <point x="445" y="44" type="qcurve" smooth="yes"/>
      <point x="445" y="33" type="line" smooth="yes"/>
      <point x="445" y="-7"/>
      <point x="405" y="-7" type="qcurve" smooth="yes"/>
      <point x="151" y="-7" type="line" smooth="yes"/>
      <point x="123" y="-7"/>
    </contour>
    <contour>
      <point x="88" y="822" type="qcurve" smooth="yes"/>
      <point x="88" y="859"/>
      <point x="128" y="859" type="qcurve" smooth="yes"/>
      <point x="368" y="859" type="line" smooth="yes"/>
      <point x="408" y="859"/>
      <point x="408" y="822" type="qcurve" smooth="yes"/>
      <point x="408" y="785"/>
      <point x="368" y="785" type="qcurve" smooth="yes"/>
      <point x="128" y="785" type="line" smooth="yes"/>
      <point x="88" y="785"/>
    </contour>
  </outline>
</glyph>
<glyph name="imacron" format="2">
  <advance width="275"/>
  <unicode hex="012B"/>
  <outline>
    <contour>
      <point x="133" y="-9" type="line" smooth="yes"/>
      <point x="93" y="-9"/>
      <point x="93" y="31" type="qcurve" smooth="yes"/>
      <point x="93" y="445" type="line" smooth="yes"/>
      <point x="93" y="485"/>
      <point x="133" y="485" type="qcurve" smooth="yes"/>
      <point x="143" y="485" type="line" smooth="yes"/>
      <point x="183" y="485"/>
      <point x="183" y="445" type="qcurve" smooth="yes"/>
      <point x="183" y="31" type="line" smooth="yes"/>
      <point x="183" y="-9"/>
      <point x="143" y="-9" type="qcurve" smooth="yes"/>
    </contour>
    <contour>
      <point x="5" y="597" type="qcurve" smooth="yes"/>
      <point x="5" y="634"/>
      <point x="45" y="634" type="qcurve" smooth="yes"/>
      <point x="230" y="634" type="line" smooth="yes"/>
      <point x="270" y="634"/>
      <point x="270" y="597" type="qcurve" smooth="yes"/>
      <point x="270" y="560"/>
      <point x="230" y="560" type="qcurve" smooth="yes"/>
      <point x="45" y="560" type="line" smooth="yes"/>
      <point x="5" y="560"/>
    </contour>
  </outline>
</glyph>
<glyph name="Ibreve" format="2">
  <advance width="272"/>
  <unicode hex="012C"/>
  <anchor x="136" y="710" name="top"/>
  <outline>
    <contour>
      <point x="60" y="-9" type="line" smooth="yes"/>
      <point x="20" y="-9"/>
      <point x="20" y="31" type="qcurve" smooth="yes"/>
      <point x="20" y="42" type="line" smooth="yes"/>
      <point x="20" y="61"/>
      <point x="38" y="82"/>
      <point x="55" y="82" type="qcurve" smooth="yes"/>
      <point x="72" y="82"/>
      <point x="90" y="103"/>
      <point x="90" y="122" type="qcurve" smooth="yes"/>
      <point x="90" y="579" type="line" smooth="yes"/>
      <point x="90" y="598"/>
      <point x="72" y="619"/>
      <point x="55" y="619" type="qcurve" smooth="yes"/>
      <point x="38" y="619"/>
      <point x="20" y="640"/>
      <point x="20" y="659" type="qcurve" smooth="yes"/>
      <point x="20" y="670" type="line" smooth="yes"/>
      <point x="20" y="710"/>
      <point x="60" y="710" type="qcurve" smooth="yes"/>
      <point x="212" y="710" type="line" smooth="yes"/>
      <point x="252" y="710"/>
      <point x="252" y="670" type="qcurve" smooth="yes"/>
      <point x="252" y="659" type="line" smooth="yes"/>
      <point x="252" y="619"/>
      <point x="217" y="619" type="qcurve" smooth="yes"/>
      <point x="200" y="619"/>
      <point x="181" y="598"/>
      <point x="181" y="579" type="qcurve" smooth="yes"/>
      <point x="181" y="122" type="line" smooth="yes"/>
      <point x="181" y="103"/>
      <point x="200" y="82"/>
      <point x="217" y="82" type="qcurve" smooth="yes"/>
      <point x="234" y="82"/>
      <point x="252" y="61"/>
      <point x="252" y="42" type="qcurve" smooth="yes"/>
      <point x="252" y="31" type="line" smooth="yes"/>
      <point x="252" y="-9"/>
      <point x="212" y="-9" type="qcurve" smooth="yes"/>
    </contour>
    <contour>
      <point x="12" y="901" type="qcurve" smooth="yes"/>
      <point x="12" y="911"/>
      <point x="29" y="927"/>
      <point x="44" y="927" type="qcurve" smooth="yes"/>
      <point x="72" y="927"/>
      <point x="75" y="896" type="qcurve" smooth="yes"/>
      <point x="77" y="874"/>
      <point x="113" y="846"/>
      <point x="136" y="846" type="qcurve" smooth="yes"/>
      <point x="159" y="846"/>
      <point x="197" y="874"/>
      <point x="199" y="896" type="qcurve" smooth="yes"/>
      <point x="202" y="927"/>
      <point x="230" y="927" type="qcurve" smooth="yes"/>
      <point x="245" y="927"/>
      <point x="261" y="911"/>
      <point x="261" y="901" type="qcurve" smooth="yes"/>
      <point x="261" y="877"/>
      <point x="239" y="834"/>
      <point x="204" y="803"/>
      <point x="159" y="785"/>
      <point x="136" y="785" type="qcurve" smooth="yes"/>
      <point x="113" y="785"/>
      <point x="69" y="803"/>
      <point x="34" y="834"/>
      <point x="12" y="877"/>
    </contour>
  </outline>
</glyph>
<glyph name="Lslash" format="2">
  <advance width="556"/>
  <unicode hex="0141"/>
  <outline>
    <contour>
      <point x="141" y="44" type="line" smooth="yes"/>
      <point x="121" y="64"/>
      <point x="121" y="93" type="qcurve" smooth="yes"/>
      <point x="121" y="302" type="line" smooth="yes"/>
      <point x="121" y="320"/>
      <point x="103" y="335"/>
      <point x="93" y="335" type="qcurve" smooth="yes"/>
      <point x="88" y="335"/>
      <point x="76" y="331" type="qcurve"/>
      <point x="70" y="329"/>
      <point x="64" y="329" type="qcurve" smooth="yes"/>
      <point x="35" y="329"/>
      <point x="26" y="360" type="qcurve"/>
      <point x="22" y="377" type="line"/>
      <point x="20" y="384"/>
      <point x="20" y="389" type="qcurve" smooth="yes"/>
      <point x="20" y="417"/>
      <point x="50" y="424" type="qcurve" smooth="yes"/>
      <point x="82" y="432" type="line" smooth="yes"/>
      <point x="121" y="441"/>
      <point x="121" y="481" type="qcurve" smooth="yes"/>
      <point x="121" y="670" type="line" smooth="yes"/>
      <point x="121" y="710"/>
      <point x="161" y="710" type="qcurve" smooth="yes"/>
      <point x="172" y="710" type="line" smooth="yes"/>
      <point x="212" y="710"/>
      <point x="212" y="670" type="qcurve" smooth="yes"/>
      <point x="212" y="503" type="line" smooth="yes"/>
      <point x="212" y="470"/>
      <point x="240" y="470" type="qcurve" smooth="yes"/>
      <point x="245" y="470"/>
      <point x="258" y="474" type="qcurve" smooth="yes"/>
      <point x="269" y="478"/>
      <point x="275" y="478" type="qcurve" smooth="yes"/>
      <point x="304" y="478"/>
      <point x="313" y="447" type="qcurve"/>
      <point x="317" y="430" type="line"/>
      <point x="319" y="423"/>
      <point x="319" y="418" type="qcurve" smooth="yes"/>
      <point x="319" y="392"/>
      <point x="289" y="383" type="qcurve"/>
      <point x="251" y="373" type="line" smooth="yes"/>
      <point x="212" y="362"/>
      <point x="212" y="324" type="qcurve" smooth="yes"/>
      <point x="212" y="122" type="line" smooth="yes"/>
      <point x="212" y="82"/>
      <point x="252" y="82" type="qcurve" smooth="yes"/>
      <point x="476" y="82" type="line" smooth="yes"/>
      <point x="516" y="82"/>
      <point x="516" y="42" type="qcurve" smooth="yes"/>
      <point x="516" y="31" type="line" smooth="yes"/>
      <point x="516" y="-9"/>
      <point x="476" y="-9" type="qcurve" smooth="yes"/>
      <point x="222" y="-9" type="line" smooth="yes"/>
      <point x="194" y="-9"/>
      <point x="173" y="12" type="qcurve" smooth="yes"/>
    </contour>
  </outline>
</glyph>
<glyph name="Ncaron" format="2">
  <advance width="505"/>
  <unicode hex="0147"/>
  <anchor x="253" y="710" name="top"/>
  <outline>
    <contour>
      <point x="90" y="-9" type="line" smooth="yes"/>
      <point x="50" y="-9"/>
      <point x="50" y="31" type="qcurve" smooth="yes"/>
      <point x="50" y="670" type="line" smooth="yes"/>
      <point x="50" y="710"/>
      <point x="90" y="710" type="qcurve" smooth="yes"/>
      <point x="110" y="710" type="line" smooth="yes"/>
      <point x="143" y="710"/>
      <point x="156" y="680" type="qcurve" smooth="yes"/>
      <point x="317" y="309" type="line" smooth="yes"/>
      <point x="322" y="298"/>
      <point x="337" y="285"/>
      <point x="344" y="285" type="qcurve" smooth="yes"/>
      <point x="353" y="285"/>
      <point x="364" y="302"/>
      <point x="364" y="318" type="qcurve" smooth="yes"/>
      <point x="364" y="670" type="line" smooth="yes"/>
      <point x="364" y="710"/>
      <point x="404" y="710" type="qcurve" smooth="yes"/>
      <point x="415" y="710" type="line" smooth="yes"/>
      <point x="455" y="710"/>
      <point x="455" y="670" type="qcurve" smooth="yes"/>
      <point x="455" y="31" type="line" smooth="yes"/>
      <point x="455" y="-9"/>
      <point x="415" y="-9" type="qcurve" smooth="yes"/>
      <point x="404" y="-9" type="line" smooth="yes"/>
      <point x="371" y="-9"/>
      <point x="358" y="21" type="qcurve" smooth="yes"/>
      <point x="188" y="410" type="line" smooth="yes"/>
      <point x="178" y="434"/>
      <point x="162" y="434" type="qcurve" smooth="yes"/>
      <point x="153" y="434"/>
      <point x="141" y="416"/>
      <point x="141" y="400" type="qcurve" smooth="yes"/>
      <point x="141" y="31" type="line" smooth="yes"/>
      <point x="141" y="-9"/>
      <point x="101" y="-9" type="qcurve" smooth="yes"/>
    </contour>
    <contour>
      <point x="193" y="809" type="qcurve" smooth="yes"/>
      <point x="152" y="861" type="line" smooth="yes"/>
      <point x="140" y="876"/>
      <point x="140" y="891" type="qcurve" smooth="yes"/>
      <point x="140" y="905"/>
      <point x="151" y="913" type="qcurve" smooth="yes"/>
      <point x="161" y="920"/>
      <point x="171" y="920" type="qcurve" smooth="yes"/>
      <point x="187" y="920"/>
      <point x="202" y="901" type="qcurve" smooth="yes"/>
      <point x="223" y="875" type="line" smooth="yes"/>
      <point x="242" y="852"/>
      <point x="253" y="852" type="qcurve" smooth="yes"/>
      <point x="262" y="852"/>
      <point x="283" y="874" type="qcurve"/>
      <point x="308" y="903" type="line" smooth="yes"/>
      <point x="323" y="921"/>
      <point x="339" y="921" type="qcurve" smooth="yes"/>
      <point x="348" y="921"/>
      <point x="360" y="913" type="qcurve" smooth="yes"/>
      <point x="371" y="905"/>
      <point x="371" y="892" type="qcurve" smooth="yes"/>
      <point x="371" y="878"/>
      <point x="357" y="861" type="qcurve" smooth="yes"/>
      <point x="311" y="807" type="line" smooth="yes"/>
      <point x="293" y="785"/>
      <point x="262" y="785" type="qcurve" smooth="yes"/>
      <point x="242" y="785" type="line" smooth="yes"/>
      <point x="212" y="785"/>
    </contour>
  </outline>
</glyph>
<glyph name="ncaron" format="2">
  <advance width="447"/>
  <unicode hex="0148"/>
  <anchor x="224" y="485" name="top"/>
  <outline>
    <contour>
      <point x="100" y="-10" type="line" smooth="yes"/>
      <point x="60" y="-10"/>
      <point x="60" y="30" type="qcurve" smooth="yes"/>
      <point x="60" y="383" type="line" smooth="yes"/>
      <point x="60" y="412"/>
      <point x="80" y="432" type="qcurve" smooth="yes"/>
      <point x="113" y="465" type="line" smooth="yes"/>
      <point x="133" y="485"/>
      <point x="162" y="485" type="qcurve" smooth="yes"/>
      <point x="286" y="485" type="line" smooth="yes"/>
      <point x="314" y="485"/>
      <point x="335" y="464" type="qcurve" smooth="yes"/>
      <point x="367" y="432" type="line" smooth="yes"/>
      <point x="387" y="412"/>
      <point x="387" y="383" type="qcurve" smooth="yes"/>
      <point x="387" y="30" type="line" smooth="yes"/>
      <point x="387" y="-10"/>
      <point x="347" y="-10" type="qcurve" smooth="yes"/>
      <point x="337" y="-10" type="line" smooth="yes"/>
      <point x="297" y="-10"/>
      <point x="297" y="30" type="qcurve" smooth="yes"/>
      <point x="297" y="354" type="line" smooth="yes"/>
      <point x="297" y="394"/>
      <point x="257" y="394" type="qcurve" smooth="yes"/>
      <point x="191" y="394" type="line" smooth="yes"/>
      <point x="151" y="394"/>
      <point x="151" y="354" type="qcurve" smooth="yes"/>
      <point x="151" y="30" type="line" smooth="yes"/>
      <point x="151" y="-10"/>
      <point x="111" y="-10" type="qcurve" smooth="yes"/>
    </contour>
    <contour>
      <point x="164" y="584" type="qcurve" smooth="yes"/>
      <point x="123" y="636" type="line" smooth="yes"/>
      <point x="111" y="651"/>
      <point x="111" y="666" type="qcurve" smooth="yes"/>
      <point x="111" y="680"/>
      <point x="122" y="688" type="qcurve" smooth="yes"/>
      <point x="132" y="695"/>
      <point x="142" y="695" type="qcurve" smooth="yes"/>
      <point x="158" y="695"/>
      <point x="173" y="676" type="qcurve" smooth="yes"/>
      <point x="194" y="650" type="line" smooth="yes"/>
      <point x="213" y="627"/>
      <point x="224" y="627" type="qcurve" smooth="yes"/>
      <point x="233" y="627"/>
      <point x="254" y="649" type="qcurve"/>
      <point x="279" y="678" type="line" smooth="yes"/>
      <point x="294" y="696"/>
      <point x="310" y="696" type="qcurve" smooth="yes"/>
      <point x="319" y="696"/>
      <point x="331" y="688" type="qcurve" smooth="yes"/>
      <point x="342" y="680"/>
      <point x="342" y="667" type="qcurve" smooth="yes"/>
      <point x="342" y="653"/>
      <point x="328" y="636" type="qcurve" smooth="yes"/>
      <point x="282" y="582" type="line" smooth="yes"/>
      <point x="264" y="560"/>
      <point x="233" y="560" type="qcurve" smooth="yes"/>
      <point x="213" y="560" type="line" smooth="yes"/>
      <point x="183" y="560"/>
    </contour>
  </outline>
</glyph>
<glyph name="scircumflex" format="2">
  <advance width="426"/>
  <unicode hex="015D"/>
  <anchor x="213" y="702" name="top"/>
  <outline>
    <contour>
      <point x="103" y="11" type="qcurve" smooth="yes"/>
      <point x="70" y="44" type="line" smooth="yes"/>
      <point x="50" y="64"/>
      <point x="50" y="93" type="qcurve"/>
      <point x="50" y="94" type="line"/>
      <point x="50" y="134"/>
      <point x="90" y="134" type="qcurve" smooth="yes"/>
      <point x="101" y="134" type="line" smooth="yes"/>
      <point x="120" y="134"/>
      <point x="141" y="120"/>
      <point x="141" y="108" type="qcurve" smooth="yes"/>
      <point x="141" y="96"/>
      <point x="162" y="82"/>
      <point x="181" y="82" type="qcurve" smooth="yes"/>
      <point x="245" y="82" type="line" smooth="yes"/>
      <point x="285" y="82"/>
      <point x="285" y="122" type="qcurve" smooth="yes"/>
      <point x="285" y="152" type="line" smooth="yes"/>
      <point x="285" y="192"/>
      <point x="245" y="192" type="qcurve" smooth="yes"/>
      <point x="151" y="192" type="line" smooth="yes"/>
      <point x="136" y="192"/>
      <point x="114" y="201"/>
      <point x="102" y="211" type="qcurve" smooth="yes"/>
      <point x="72" y="237" type="line" smooth="yes"/>
      <point x="60" y="247"/>
      <point x="50" y="270"/>
      <point x="50" y="286" type="qcurve" smooth="yes"/>
      <point x="50" y="384" type="line" smooth="yes"/>
      <point x="50" y="399"/>
      <point x="60" y="422"/>
      <point x="71" y="433" type="qcurve" smooth="yes"/>
      <point x="103" y="465" type="line" smooth="yes"/>
      <point x="123" y="485"/>
      <point x="152" y="485" type="qcurve" smooth="yes"/>
      <point x="274" y="485" type="line" smooth="yes"/>
      <point x="304" y="485"/>
      <point x="324" y="465" type="qcurve" smooth="yes"/>
      <point x="356" y="433" type="line" smooth="yes"/>
      <point x="376" y="413"/>
      <point x="376" y="384" type="qcurve"/>
      <point x="376" y="382" type="line"/>
      <point x="376" y="342"/>
      <point x="336" y="342" type="qcurve" smooth="yes"/>
      <point x="325" y="342" type="line" smooth="yes"/>
      <point x="306" y="342"/>
      <point x="285" y="356"/>
      <point x="285" y="369" type="qcurve" smooth="yes"/>
      <point x="285" y="381"/>
      <point x="264" y="395"/>
      <point x="245" y="395" type="qcurve" smooth="yes"/>
      <point x="181" y="395" type="line" smooth="yes"/>
      <point x="141" y="395"/>
      <point x="141" y="355" type="qcurve" smooth="yes"/>
      <point x="141" y="314" type="line" smooth="yes"/>
      <point x="141" y="274"/>
      <point x="181" y="274" type="qcurve" smooth="yes"/>
      <point x="274" y="274" type="line" smooth="yes"/>
      <point x="303" y="274"/>
      <point x="323" y="254" type="qcurve" smooth="yes"/>
      <point x="356" y="221" type="line" smooth="yes"/>
      <point x="376" y="201"/>
      <point x="376" y="172" type="qcurve" smooth="yes"/>
      <point x="376" y="93" type="line" smooth="yes"/>
      <point x="376" y="64"/>
      <point x="356" y="44" type="qcurve" smooth="yes"/>
      <point x="323" y="11" type="line" smooth="yes"/>
      <point x="303" y="-9"/>
      <point x="274" y="-9" type="qcurve" smooth="yes"/>
      <point x="152" y="-9" type="line" smooth="yes"/>
      <point x="123" y="-9"/>
    </contour>
    <contour>
      <point x="116" y="579" type="qcurve" smooth="yes"/>
      <point x="116" y="592"/>
      <point x="126" y="608" type="qcurve" smooth="yes"/>
      <point x="185" y="702" type="line" smooth="yes"/>
      <point x="197" y="722"/>
      <point x="213" y="722" type="qcurve" smooth="yes"/>
      <point x="229" y="722"/>
      <point x="241" y="702" type="qcurve"/>
      <point x="301" y="608" type="line"/>
      <point x="312" y="592"/>
      <point x="312" y="576" type="qcurve" smooth="yes"/>
      <point x="312" y="560"/>
      <point x="296" y="560" type="qcurve" smooth="yes"/>
      <point x="292" y="560" type="line" smooth="yes"/>
      <point x="260" y="560"/>
      <point x="244" y="587" type="qcurve" smooth="yes"/>
      <point x="241" y="592" type="line" smooth="yes"/>
      <point x="227" y="616"/>
      <point x="211" y="616" type="qcurve" smooth="yes"/>
      <point x="200" y="616"/>
      <point x="191" y="601" type="qcurve"/>
      <point x="184" y="588" type="line" smooth="yes"/>
      <point x="169" y="560"/>
      <point x="136" y="560" type="qcurve" smooth="yes"/>
      <point x="116" y="560"/>
    </contour>
  </outline>
</glyph>
<glyph name="umacron" format="2">
  <advance width="446"/>
  <unicode hex="016B"/>
  <anchor x="223" y="485" name="top"/>
  <outline>
    <contour>
      <point x="113" y="11" type="qcurve" smooth="yes"/>
      <point x="80" y="44" type="line" smooth="yes"/>
      <point x="60" y="64"/>
      <point x="60" y="93" type="qcurve" smooth="yes"/>
      <point x="60" y="445" type="line" smooth="yes"/>
      <point x="60" y="485"/>
      <point x="100" y="485" type="qcurve" smooth="yes"/>
      <point x="111" y="485" type="line" smooth="yes"/>
      <point x="151" y="485"/>
      <point x="151" y="445" type="qcurve" smooth="yes"/>
      <point x="151" y="122" type="line" smooth="yes"/>
      <point x="151" y="82"/>
      <point x="191" y="82" type="qcurve" smooth="yes"/>
      <point x="255" y="82" type="line" smooth="yes"/>
      <point x="295" y="82"/>
      <point x="295" y="122" type="qcurve" smooth="yes"/>
      <point x="295" y="445" type="line" smooth="yes"/>
      <point x="295" y="485"/>
      <point x="335" y="485" type="qcurve" smooth="yes"/>
      <point x="346" y="485" type="line" smooth="yes"/>
      <point x="386" y="485"/>
      <point x="386" y="445" type="qcurve" smooth="yes"/>
      <point x="386" y="93" type="line"/>
      <point x="387" y="64"/>
      <point x="366" y="43" type="qcurve" smooth="yes"/>
      <point x="334" y="11" type="line" smooth="yes"/>
      <point x="314" y="-9"/>
      <point x="285" y="-9" type="qcurve" smooth="yes"/>
      <point x="162" y="-9" type="line" smooth="yes"/>
      <point x="133" y="-9"/>
    </contour>
    <contour>
      <point x="63" y="597" type="qcurve" smooth="yes"/>
      <point x="63" y="634"/>
      <point x="103" y="634" type="qcurve" smooth="yes"/>
      <point x="343" y="634" type="line" smooth="yes"/>
      <point x="383" y="634"/>
      <point x="383" y="597" type="qcurve" smooth="yes"/>
      <point x="383" y="560"/>
      <point x="343" y="560" type="qcurve" smooth="yes"/>
      <point x="103" y="560" type="line" smooth="yes"/>
      <point x="63" y="560"/>
    </contour>
  </outline>
</glyph>
<glyph name="Ubreve" format="2">
  <advance width="496"/>
  <unicode hex="016C"/>
  <anchor x="248" y="710" name="top"/>
  <outline>
    <contour>
      <point x="103" y="12" type="qcurve" smooth="yes"/>
      <point x="70" y="45" type="line" smooth="yes"/>
      <point x="50" y="65"/>
      <point x="50" y="94" type="qcurve" smooth="yes"/>
      <point x="50" y="671" type="line" smooth="yes"/>
      <point x="50" y="711"/>
      <point x="90" y="711" type="qcurve" smooth="yes"/>
      <point x="101" y="711" type="line" smooth="yes"/>
      <point x="141" y="711"/>
      <point x="141" y="671" type="qcurve" smooth="yes"/>
      <point x="141" y="123" type="line" smooth="yes"/>
      <point x="141" y="83"/>
      <point x="181" y="83" type="qcurve" smooth="yes"/>
      <point x="315" y="83" type="line" smooth="yes"/>
      <point x="355" y="83"/>
      <point x="355" y="123" type="qcurve" smooth="yes"/>
      <point x="355" y="671" type="line" smooth="yes"/>
      <point x="355" y="711"/>
      <point x="395" y="711" type="qcurve" smooth="yes"/>
      <point x="406" y="711" type="line" smooth="yes"/>
      <point x="446" y="711"/>
      <point x="446" y="671" type="qcurve" smooth="yes"/>
      <point x="446" y="94" type="line"/>
      <point x="447" y="65"/>
      <point x="426" y="44" type="qcurve" smooth="yes"/>
      <point x="394" y="12" type="line" smooth="yes"/>
      <point x="374" y="-8"/>
      <point x="345" y="-8" type="qcurve" smooth="yes"/>
      <point x="152" y="-8" type="line" smooth="yes"/>
      <point x="123" y="-8"/>
    </contour>
    <contour>
      <point x="124" y="901" type="qcurve" smooth="yes"/>
      <point x="124" y="911"/>
      <point x="141" y="927"/>
      <point x="156" y="927" type="qcurve" smooth="yes"/>
      <point x="184" y="927"/>
      <point x="187" y="896" type="qcurve" smooth="yes"/>
      <point x="189" y="874"/>
      <point x="225" y="846"/>
      <point x="248" y="846" type="qcurve" smooth="yes"/>
      <point x="271" y="846"/>
      <point x="309" y="874"/>
      <point x="311" y="896" type="qcurve" smooth="yes"/>
      <point x="314" y="927"/>
      <point x="342" y="927" type="qcurve" smooth="yes"/>
      <point x="357" y="927"/>
      <point x="373" y="911"/>
      <point x="373" y="901" type="qcurve" smooth="yes"/>
      <point x="373" y="877"/>
      <point x="351" y="834"/>
      <point x="316" y="803"/>
      <point x="271" y="785"/>
      <point x="248" y="785" type="qcurve" smooth="yes"/>
      <point x="225" y="785"/>
      <point x="181" y="803"/>
      <point x="146" y="834"/>
      <point x="124" y="877"/>
    </contour>
  </outline>
</glyph>
<glyph name="ubreve" format="2">
  <advance width="446"/>
  <unicode hex="016D"/>
  <anchor x="223" y="485" name="top"/>
  <outline>
    <contour>
      <point x="113" y="11" type="qcurve" smooth="yes"/>
      <point x="80" y="44" type="line" smooth="yes"/>
      <point x="60" y="64"/>
      <point x="60" y="93" type="qcurve" smooth="yes"/>
      <point x="60" y="445" type="line" smooth="yes"/>
      <point x="60" y="485"/>
      <point x="100" y="485" type="qcurve" smooth="yes"/>
      <point x="111" y="485" type="line" smooth="yes"/>
      <point x="151" y="485"/>
      <point x="151" y="445" type="qcurve" smooth="yes"/>
      <point x="151" y="122" type="line" smooth="yes"/>
      <point x="151" y="82"/>
      <point x="191" y="82" type="qcurve" smooth="yes"/>
      <point x="255" y="82" type="line" smooth="yes"/>
      <point x="295" y="82"/>
      <point x="295" y="122" type="qcurve" smooth="yes"/>
      <point x="295" y="445" type="line" smooth="yes"/>
      <point x="295" y="485"/>
      <point x="335" y="485" type="qcurve" smooth="yes"/>
      <point x="346" y="485" type="line" smooth="yes"/>
      <point x="386" y="485"/>
      <point x="386" y="445" type="qcurve" smooth="yes"/>
      <point x="386" y="93" type="line"/>
      <point x="387" y="64"/>
      <point x="366" y="43" type="qcurve" smooth="yes"/>
      <point x="334" y="11" type="line" smooth="yes"/>
      <point x="314" y="-9"/>
      <point x="285" y="-9" type="qcurve" smooth="yes"/>
      <point x="162" y="-9" type="line" smooth="yes"/>
      <point x="133" y="-9"/>
    </contour>
    <contour>
      <point x="99" y="676" type="qcurve" smooth="yes"/>
      <point x="99" y="686"/>
      <point x="116" y="702"/>
      <point x="131" y="702" type="qcurve" smooth="yes"/>
      <point x="159" y="702"/>
      <point x="162" y="671" type="qcurve" smooth="yes"/>
      <point x="164" y="649"/>
      <point x="200" y="621"/>
      <point x="223" y="621" type="qcurve" smooth="yes"/>
      <point x="246" y="621"/>
      <point x="284" y="649"/>
      <point x="286" y="671" type="qcurve" smooth="yes"/>
      <point x="289" y="702"/>
      <point x="317" y="702" type="qcurve" smooth="yes"/>
      <point x="332" y="702"/>
      <point x="348" y="686"/>
      <point x="348" y="676" type="qcurve" smooth="yes"/>
      <point x="348" y="652"/>
      <point x="326" y="609"/>
      <point x="291" y="578"/>
      <point x="246" y="560"/>
      <point x="223" y="560" type="qcurve" smooth="yes"/>
      <point x="200" y="560"/>
      <point x="156" y="578"/>
      <point x="121" y="609"/>
      <point x="99" y="652"/>
    </contour>
  </outline>
</glyph>
<glyph name="Uhungarumlaut" format="2">
  <advance width="496"/>
  <unicode hex="0170"/>
  <anchor x="248" y="710" name="top"/>
  <outline>
    <contour>
      <point x="103" y="12" type="qcurve" smooth="yes"/>
      <point x="70" y="45" type="line" smooth="yes"/>
      <point x="50" y="65"/>
      <point x="50" y="94" type="qcurve" smooth="yes"/>
      <point x="50" y="671" type="line" smooth="yes"/>
      <point x="50" y="711"/>
      <point x="90" y="711" type="qcurve" smooth="yes"/>
      <point x="101" y="711" type="line" smooth="yes"/>
      <point x="141" y="711"/>
      <point x="141" y="671" type="qcurve" smooth="yes"/>
      <point x="141" y="123" type="line" smooth="yes"/>
      <point x="141" y="83"/>
      <point x="181" y="83" type="qcurve" smooth="yes"/>
      <point x="315" y="83" type="line" smooth="yes"/>
      <point x="355" y="83"/>
      <point x="355" y="123" type="qcurve" smooth="yes"/>
      <point x="355" y="671" type="line" smooth="yes"/>
      <point x="355" y="711"/>
      <point x="395" y="711" type="qcurve" smooth="yes"/>
      <point x="406" y="711" type="line" smooth="yes"/>
      <point x="446" y="711"/>
      <point x="446" y="671" type="qcurve" smooth="yes"/>
      <point x="446" y="94" type="line"/>
      <point x="447" y="65"/>
      <point x="426" y="44" type="qcurve" smooth="yes"/>
      <point x="394" y="12" type="line" smooth="yes"/>
      <point x="374" y="-8"/>
      <point x="345" y="-8" type="qcurve" smooth="yes"/>
      <point x="152" y="-8" type="line" smooth="yes"/>
      <point x="123" y="-8"/>
    </contour>
    <contour>
      <point x="276" y="785" type="line" smooth="yes"/>
      <point x="260" y="785"/>
      <point x="245" y="804"/>
      <point x="251" y="818" type="qcurve" smooth="yes"/>
      <point x="291" y="906" type="line" smooth="yes"/>
      <point x="297" y="920"/>
      <point x="320" y="939"/>
      <point x="337" y="939" type="qcurve" smooth="yes"/>
      <point x="358" y="939" type="line" smooth="yes"/>
      <point x="374" y="939"/>
      <point x="389" y="920"/>
      <point x="383" y="906" type="qcurve" smooth="yes"/>
      <point x="343" y="818" type="line" smooth="yes"/>
      <point x="337" y="804"/>
      <point x="314" y="785"/>
      <point x="297" y="785" type="qcurve" smooth="yes"/>
    </contour>
    <contour>
      <point x="150" y="785" type="line" smooth="yes"/>
      <point x="134" y="785"/>
      <point x="119" y="804"/>
      <point x="125" y="818" type="qcurve" smooth="yes"/>
      <point x="165" y="906" type="line" smooth="yes"/>
      <point x="171" y="920"/>
      <point x="194" y="939"/>
      <point x="211" y="939" type="qcurve" smooth="yes"/>
      <point x="232" y="939" type="line" smooth="yes"/>
      <point x="248" y="939"/>
      <point x="263" y="920"/>
      <point x="257" y="906" type="qcurve" smooth="yes"/>
      <point x="217" y="818" type="line" smooth="yes"/>
      <point x="211" y="804"/>
      <point x="188" y="785"/>
      <point x="171" y="785" type="qcurve" smooth="yes"/>
    </contour>
  </outline>
</glyph>
<glyph name="Ydieresis" format="2">
  <advance width="453"/>
  <unicode hex="0178"/>
  <outline>
    <contour>
      <point x="182" y="30" type="qcurve" smooth="yes"/>
      <point x="182" y="336" type="line" smooth="yes"/>
      <point x="182" y="363"/>
      <point x="169" y="386" type="qcurve" smooth="yes"/>
      <point x="9" y="661" type="line" smooth="yes"/>
      <point x="2" y="672"/>
      <point x="2" y="684" type="qcurve" smooth="yes"/>
      <point x="2" y="695"/>
      <point x="20" y="709"/>
      <point x="36" y="709" type="qcurve" smooth="yes"/>
      <point x="42" y="709" type="line" smooth="yes"/>
      <point x="74" y="709"/>
      <point x="90" y="681" type="qcurve" smooth="yes"/>
      <point x="205" y="482" type="line" smooth="yes"/>
      <point x="221" y="454"/>
      <point x="227" y="454" type="qcurve" smooth="yes"/>
      <point x="233" y="454"/>
      <point x="249" y="482" type="qcurve" smooth="yes"/>
      <point x="362" y="681" type="line" smooth="yes"/>
      <point x="378" y="709"/>
      <point x="410" y="709" type="qcurve" smooth="yes"/>
      <point x="416" y="709" type="line" smooth="yes"/>
      <point x="432" y="709"/>
      <point x="451" y="694"/>
      <point x="451" y="683" type="qcurve" smooth="yes"/>
      <point x="451" y="672"/>
      <point x="444" y="661" type="qcurve"/>
      <point x="286" y="386" type="line" smooth="yes"/>
      <point x="273" y="363"/>
      <point x="273" y="336" type="qcurve" smooth="yes"/>
      <point x="273" y="30" type="line" smooth="yes"/>
      <point x="273" y="-10"/>
      <point x="233" y="-10" type="qcurve" smooth="yes"/>
      <point x="222" y="-10" type="line" smooth="yes"/>
      <point x="182" y="-10"/>
    </contour>
    <contour>
      <point x="145" y="741" type="qcurve" smooth="yes"/>
      <point x="122" y="741"/>
      <point x="95" y="771"/>
      <point x="95" y="791" type="qcurve" smooth="yes"/>
      <point x="95" y="811"/>
      <point x="124" y="840"/>
      <point x="145" y="840" type="qcurve" smooth="yes"/>
      <point x="167" y="840"/>
      <point x="195" y="809"/>
      <point x="195" y="791" type="qcurve" smooth="yes"/>
      <point x="195" y="772"/>
      <point x="166" y="741"/>
    </contour>
    <contour>
      <point x="308" y="741" type="qcurve" smooth="yes"/>
      <point x="286" y="741"/>
      <point x="259" y="772"/>
      <point x="259" y="791" type="qcurve" smooth="yes"/>
      <point x="259" y="811"/>
      <point x="287" y="840"/>
      <point x="308" y="840" type="qcurve" smooth="yes"/>
      <point x="330" y="840"/>
      <point x="358" y="809"/>
      <point x="358" y="791" type="qcurve" smooth="yes"/>
      <point x="358" y="772"/>
      <point x="329" y="741"/>
    </contour>
  </outline>
</glyph>
<glyph name="Zcaron" format="2">
  <advance width="497"/>
  <unicode hex="017D"/>
  <anchor x="249" y="710" name="top"/>
  <outline>
    <contour>
      <point x="90" y="-9" type="line" smooth="yes"/>
      <point x="50" y="-9"/>
      <point x="50" y="31" type="qcurve" smooth="yes"/>
      <point x="50" y="81" type="line" smooth="yes"/>
      <point x="50" y="109"/>
      <point x="64" y="131" type="qcurve"/>
      <point x="327" y="574" type="line"/>
      <point x="334" y="587"/>
      <point x="334" y="597" type="qcurve" smooth="yes"/>
      <point x="334" y="608"/>
      <point x="316" y="622"/>
      <point x="300" y="622" type="qcurve" smooth="yes"/>
      <point x="90" y="622" type="line" smooth="yes"/>
      <point x="50" y="622"/>
      <point x="50" y="662" type="qcurve" smooth="yes"/>
      <point x="50" y="673" type="line" smooth="yes"/>
      <point x="50" y="713"/>
      <point x="90" y="713" type="qcurve" smooth="yes"/>
      <point x="407" y="713" type="line" smooth="yes"/>
      <point x="447" y="713"/>
      <point x="447" y="673" type="qcurve" smooth="yes"/>
      <point x="447" y="620" type="line" smooth="yes"/>
      <point x="447" y="592"/>
      <point x="433" y="570" type="qcurve"/>
      <point x="172" y="130" type="line"/>
      <point x="165" y="117"/>
      <point x="165" y="107" type="qcurve" smooth="yes"/>
      <point x="165" y="96"/>
      <point x="183" y="82"/>
      <point x="199" y="82" type="qcurve" smooth="yes"/>
      <point x="407" y="82" type="line" smooth="yes"/>
      <point x="447" y="82"/>
      <point x="447" y="42" type="qcurve" smooth="yes"/>
      <point x="447" y="31" type="line" smooth="yes"/>
      <point x="447" y="-9"/>
      <point x="407" y="-9" type="qcurve" smooth="yes"/>
    </contour>
    <contour>
      <point x="189" y="809" type="qcurve" smooth="yes"/>
      <point x="148" y="861" type="line" smooth="yes"/>
      <point x="136" y="876"/>
      <point x="136" y="891" type="qcurve" smooth="yes"/>
      <point x="136" y="905"/>
      <point x="147" y="913" type="qcurve" smooth="yes"/>
      <point x="157" y="920"/>
      <point x="167" y="920" type="qcurve" smooth="yes"/>
      <point x="183" y="920"/>
      <point x="198" y="901" type="qcurve" smooth="yes"/>
      <point x="219" y="875" type="line" smooth="yes"/>
      <point x="238" y="852"/>
      <point x="249" y="852" type="qcurve" smooth="yes"/>
      <point x="258" y="852"/>
      <point x="279" y="874" type="qcurve"/>
      <point x="304" y="903" type="line" smooth="yes"/>
      <point x="319" y="921"/>
      <point x="335" y="921" type="qcurve" smooth="yes"/>
      <point x="344" y="921"/>
      <point x="356" y="913" type="qcurve" smooth="yes"/>
      <point x="367" y="905"/>
      <point x="367" y="892" type="qcurve" smooth="yes"/>
      <point x="367" y="878"/>
      <point x="353" y="861" type="qcurve" smooth="yes"/>
      <point x="307" y="807" type="line" smooth="yes"/>
      <point x="289" y="785"/>
      <point x="258" y="785" type="qcurve" smooth="yes"/>
      <point x="238" y="785" type="line" smooth="yes"/>
      <point x="208" y="785"/>
    </contour>
  </outline>
</glyph>
<glyph name="zcaron" format="2">
  <advance width="384"/>
  <unicode hex="017E"/>
  <anchor x="192" y="485" name="top"/>
  <outline>
    <contour>
      <point x="70" y="0" type="line" smooth="yes"/>
      <point x="30" y="0"/>
      <point x="30" y="40" type="qcurve" smooth="yes"/>
      <point x="30" y="67" type="line" smooth="yes"/>
      <point x="30" y="97"/>
      <point x="44" y="117" type="qcurve" smooth="yes"/>
      <point x="210" y="346" type="line" smooth="yes"/>
      <point x="219" y="358"/>
      <point x="219" y="368" type="qcurve" smooth="yes"/>
      <point x="219" y="380"/>
      <point x="200" y="394"/>
      <point x="183" y="394" type="qcurve" smooth="yes"/>
      <point x="70" y="394" type="line" smooth="yes"/>
      <point x="30" y="394"/>
      <point x="30" y="434" type="qcurve" smooth="yes"/>
      <point x="30" y="445" type="line" smooth="yes"/>
      <point x="30" y="485"/>
      <point x="70" y="485" type="qcurve" smooth="yes"/>
      <point x="314" y="485" type="line" smooth="yes"/>
      <point x="354" y="485"/>
      <point x="354" y="445" type="qcurve" smooth="yes"/>
      <point x="354" y="412" type="line" smooth="yes"/>
      <point x="354" y="382"/>
      <point x="340" y="362" type="qcurve" smooth="yes"/>
      <point x="181" y="139" type="line" smooth="yes"/>
      <point x="173" y="128"/>
      <point x="173" y="117" type="qcurve" smooth="yes"/>
      <point x="173" y="106"/>
      <point x="193" y="91"/>
      <point x="209" y="91" type="qcurve" smooth="yes"/>
      <point x="313" y="91" type="line" smooth="yes"/>
      <point x="353" y="91"/>
      <point x="353" y="51" type="qcurve" smooth="yes"/>
      <point x="353" y="40" type="line" smooth="yes"/>
      <point x="353" y="0"/>
      <point x="313" y="0" type="qcurve" smooth="yes"/>
    </contour>
    <contour>
      <point x="132" y="584" type="qcurve" smooth="yes"/>
      <point x="91" y="636" type="line" smooth="yes"/>
      <point x="79" y="651"/>
      <point x="79" y="666" type="qcurve" smooth="yes"/>
      <point x="79" y="680"/>
      <point x="90" y="688" type="qcurve" smooth="yes"/>
      <point x="100" y="695"/>
      <point x="110" y="695" type="qcurve" smooth="yes"/>
      <point x="126" y="695"/>
      <point x="141" y="676" type="qcurve" smooth="yes"/>
      <point x="162" y="650" type="line" smooth="yes"/>
      <point x="181" y="627"/>
      <point x="192" y="627" type="qcurve" smooth="yes"/>
      <point x="201" y="627"/>
      <point x="222" y="649" type="qcurve"/>
      <point x="247" y="678" type="line" smooth="yes"/>
      <point x="262" y="696"/>
      <point x="278" y="696" type="qcurve" smooth="yes"/>
      <point x="287" y="696"/>
      <point x="299" y="688" type="qcurve" smooth="yes"/>
      <point x="310" y="680"/>
      <point x="310" y="667" type="qcurve" smooth="yes"/>
      <point x="310" y="653"/>
      <point x="296" y="636" type="qcurve" smooth="yes"/>
      <point x="250" y="582" type="line" smooth="yes"/>
      <point x="232" y="560"/>
      <point x="201" y="560" type="qcurve" smooth="yes"/>
      <point x="181" y="560" type="line" smooth="yes"/>
      <point x="151" y="560"/>
    </contour>
  </outline>
</glyph>
<glyph name="Acaron" format="2">
  <advance width="531"/>
  <unicode hex="01CD"/>
  <anchor x="266" y="710" name="top"/>
  <outline>
    <contour>
      <point x="30" y="24" type="qcurve" smooth="yes"/>
      <point x="30" y="31"/>
      <point x="31" y="35" type="qcurve" smooth="yes"/>
      <point x="158" y="673" type="line" smooth="yes"/>
      <point x="165" y="709"/>
      <point x="201" y="709" type="qcurve" smooth="yes"/>
      <point x="327" y="709" type="line" smooth="yes"/>
      <point x="363" y="709"/>
      <point x="370" y="673" type="qcurve" smooth="yes"/>
      <point x="500" y="35" type="line" smooth="yes"/>
      <point x="501" y="31"/>
      <point x="501" y="23" type="qcurve" smooth="yes"/>
      <point x="501" y="-9"/>
      <point x="464" y="-9" type="qcurve" smooth="yes"/>
      <point x="452" y="-9" type="line" smooth="yes"/>
      <point x="417" y="-9"/>
      <point x="409" y="27" type="qcurve" smooth="yes"/>
      <point x="384" y="147" type="line" smooth="yes"/>
      <point x="376" y="183"/>
      <point x="341" y="183" type="qcurve" smooth="yes"/>
      <point x="190" y="183" type="line" smooth="yes"/>
      <point x="155" y="183"/>
      <point x="147" y="147" type="qcurve" smooth="yes"/>
      <point x="122" y="27" type="line" smooth="yes"/>
      <point x="114" y="-9"/>
      <point x="79" y="-9" type="qcurve" smooth="yes"/>
      <point x="67" y="-9" type="line" smooth="yes"/>
      <point x="49" y="-9"/>
      <point x="30" y="9"/>
    </contour>
    <contour>
      <point x="180" y="306" type="qcurve" smooth="yes"/>
      <point x="180" y="291"/>
      <point x="199" y="273"/>
      <point x="217" y="273" type="qcurve" smooth="yes"/>
      <point x="313" y="273" type="line" smooth="yes"/>
      <point x="350" y="273"/>
      <point x="350" y="305" type="qcurve" smooth="yes"/>
      <point x="350" y="313"/>
      <point x="349" y="317" type="qcurve" smooth="yes"/>
      <point x="294" y="582" type="line" smooth="yes"/>
      <point x="287" y="618"/>
      <point x="264" y="618" type="qcurve" smooth="yes"/>
      <point x="241" y="618"/>
      <point x="234" y="582" type="qcurve" smooth="yes"/>
      <point x="181" y="317" type="line" smooth="yes"/>
      <point x="180" y="313"/>
    </contour>
    <contour>
      <point x="206" y="809" type="qcurve" smooth="yes"/>
      <point x="165" y="861" type="line" smooth="yes"/>
      <point x="153" y="876"/>
      <point x="153" y="891" type="qcurve" smooth="yes"/>
      <point x="153" y="905"/>
      <point x="164" y="913" type="qcurve" smooth="yes"/>
      <point x="174" y="920"/>
      <point x="184" y="920" type="qcurve" smooth="yes"/>
      <point x="200" y="920"/>
      <point x="215" y="901" type="qcurve" smooth="yes"/>
      <point x="236" y="875" type="line" smooth="yes"/>
      <point x="255" y="852"/>
      <point x="266" y="852" type="qcurve" smooth="yes"/>
      <point x="275" y="852"/>
      <point x="296" y="874" type="qcurve"/>
      <point x="321" y="903" type="line" smooth="yes"/>
      <point x="336" y="921"/>
      <point x="352" y="921" type="qcurve" smooth="yes"/>
      <point x="361" y="921"/>
      <point x="373" y="913" type="qcurve" smooth="yes"/>
      <point x="384" y="905"/>
      <point x="384" y="892" type="qcurve" smooth="yes"/>
      <point x="384" y="878"/>
      <point x="370" y="861" type="qcurve" smooth="yes"/>
      <point x="324" y="807" type="line" smooth="yes"/>
      <point x="306" y="785"/>
      <point x="275" y="785" type="qcurve" smooth="yes"/>
      <point x="255" y="785" type="line" smooth="yes"/>
      <point x="225" y="785"/>
    </contour>
  </outline>
</glyph>
<glyph name="acaron" format="2">
  <advance width="438"/>
  <unicode hex="01CE"/>
  <anchor x="214" y="485" name="top"/>
  <outline>
    <contour>
      <point x="103" y="12" type="qcurve" smooth="yes"/>
      <point x="70" y="45" type="line" smooth="yes"/>
      <point x="50" y="65"/>
      <point x="50" y="94" type="qcurve" smooth="yes"/>
      <point x="50" y="210" type="line" smooth="yes"/>
      <point x="50" y="225"/>
      <point x="60" y="248"/>
      <point x="71" y="259" type="qcurve" smooth="yes"/>
      <point x="103" y="291" type="line" smooth="yes"/>
      <point x="123" y="311"/>
      <point x="152" y="311" type="qcurve" smooth="yes"/>
      <point x="247" y="311" type="line" smooth="yes"/>
      <point x="287" y="311"/>
      <point x="287" y="351" type="qcurve" smooth="yes"/>
      <point x="287" y="354" type="line" smooth="yes"/>
      <point x="287" y="394"/>
      <point x="247" y="394" type="qcurve" smooth="yes"/>
      <point x="93" y="394" type="line" smooth="yes"/>
      <point x="53" y="394"/>
      <point x="53" y="434" type="qcurve" smooth="yes"/>
      <point x="53" y="445" type="line" smooth="yes"/>
      <point x="53" y="485"/>
      <point x="93" y="485" type="qcurve" smooth="yes"/>
      <point x="276" y="485" type="line" smooth="yes"/>
      <point x="305" y="485"/>
      <point x="325" y="465" type="qcurve" smooth="yes"/>
      <point x="358" y="432" type="line" smooth="yes"/>
      <point x="378" y="412"/>
      <point x="378" y="383" type="qcurve" smooth="yes"/>
      <point x="378" y="32" type="line" smooth="yes"/>
      <point x="378" y="-8"/>
      <point x="338" y="-8" type="qcurve" smooth="yes"/>
      <point x="152" y="-8" type="line" smooth="yes"/>
      <point x="123" y="-8"/>
    </contour>
    <contour>
      <point x="141" y="114" type="line" smooth="yes"/>
      <point x="141" y="74"/>
      <point x="181" y="74" type="qcurve" smooth="yes"/>
      <point x="247" y="74" type="line" smooth="yes"/>
      <point x="287" y="74"/>
      <point x="287" y="114" type="qcurve" smooth="yes"/>
      <point x="287" y="189" type="line" smooth="yes"/>
      <point x="287" y="229"/>
      <point x="247" y="229" type="qcurve" smooth="yes"/>
      <point x="181" y="229" type="line" smooth="yes"/>
      <point x="141" y="229"/>
      <point x="141" y="189" type="qcurve" smooth="yes"/>
    </contour>
    <contour>
      <point x="154" y="584" type="qcurve" smooth="yes"/>
      <point x="113" y="636" type="line" smooth="yes"/>
      <point x="101" y="651"/>
      <point x="101" y="666" type="qcurve" smooth="yes"/>
      <point x="101" y="680"/>
      <point x="112" y="688" type="qcurve" smooth="yes"/>
      <point x="122" y="695"/>
      <point x="132" y="695" type="qcurve" smooth="yes"/>
      <point x="148" y="695"/>
      <point x="163" y="676" type="qcurve" smooth="yes"/>
      <point x="184" y="650" type="line" smooth="yes"/>
      <point x="203" y="627"/>
      <point x="214" y="627" type="qcurve" smooth="yes"/>
      <point x="223" y="627"/>
      <point x="244" y="649" type="qcurve"/>
      <point x="269" y="678" type="line" smooth="yes"/>
      <point x="284" y="696"/>
      <point x="300" y="696" type="qcurve" smooth="yes"/>
      <point x="309" y="696"/>
      <point x="321" y="688" type="qcurve" smooth="yes"/>
      <point x="332" y="680"/>
      <point x="332" y="667" type="qcurve" smooth="yes"/>
      <point x="332" y="653"/>
      <point x="318" y="636" type="qcurve" smooth="yes"/>
      <point x="272" y="582" type="line" smooth="yes"/>
      <point x="254" y="560"/>
      <point x="223" y="560" type="qcurve" smooth="yes"/>
      <point x="203" y="560" type="line" smooth="yes"/>
      <point x="173" y="560"/>
    </contour>
  </outline>
</glyph>
<glyph name="Icaron" format="2">
  <advance width="272"/>
  <unicode hex="01CF"/>
  <anchor x="136" y="710" name="top"/>
  <outline>
    <contour>
      <point x="60" y="-9" type="line" smooth="yes"/>
      <point x="20" y="-9"/>
      <point x="20" y="31" type="qcurve" smooth="yes"/>
      <point x="20" y="42" type="line" smooth="yes"/>
      <point x="20" y="61"/>
      <point x="38" y="82"/>
      <point x="55" y="82" type="qcurve" smooth="yes"/>
      <point x="72" y="82"/>
      <point x="90" y="103"/>
      <point x="90" y="122" type="qcurve" smooth="yes"/>
      <point x="90" y="579" type="line" smooth="yes"/>
      <point x="90" y="598"/>
      <point x="72" y="619"/>
      <point x="55" y="619" type="qcurve" smooth="yes"/>
      <point x="38" y="619"/>
      <point x="20" y="640"/>
      <point x="20" y="659" type="qcurve" smooth="yes"/>
      <point x="20" y="670" type="line" smooth="yes"/>
      <point x="20" y="710"/>
      <point x="60" y="710" type="qcurve" smooth="yes"/>
      <point x="212" y="710" type="line" smooth="yes"/>
      <point x="252" y="710"/>
      <point x="252" y="670" type="qcurve" smooth="yes"/>
      <point x="252" y="659" type="line" smooth="yes"/>
      <point x="252" y="619"/>
      <point x="217" y="619" type="qcurve" smooth="yes"/>
      <point x="200" y="619"/>
      <point x="181" y="598"/>
      <point x="181" y="579" type="qcurve" smooth="yes"/>
      <point x="181" y="122" type="line" smooth="yes"/>
      <point x="181" y="103"/>
      <point x="200" y="82"/>
      <point x="217" y="82" type="qcurve" smooth="yes"/>
      <point x="234" y="82"/>
      <point x="252" y="61"/>
      <point x="252" y="42" type="qcurve" smooth="yes"/>
      <point x="252" y="31" type="line" smooth="yes"/>
      <point x="252" y="-9"/>
      <point x="212" y="-9" type="qcurve" smooth="yes"/>
    </contour>
    <contour>
      <point x="76" y="809" type="qcurve" smooth="yes"/>
      <point x="35" y="861" type="line" smooth="yes"/>
      <point x="23" y="876"/>
      <point x="23" y="891" type="qcurve" smooth="yes"/>
      <point x="23" y="905"/>
      <point x="34" y="913" type="qcurve" smooth="yes"/>
      <point x="44" y="920"/>
      <point x="54" y="920" type="qcurve" smooth="yes"/>
      <point x="70" y="920"/>
      <point x="85" y="901" type="qcurve" smooth="yes"/>
      <point x="106" y="875" type="line" smooth="yes"/>
      <point x="125" y="852"/>
      <point x="136" y="852" type="qcurve" smooth="yes"/>
      <point x="145" y="852"/>
      <point x="166" y="874" type="qcurve"/>
      <point x="191" y="903" type="line" smooth="yes"/>
      <point x="206" y="921"/>
      <point x="222" y="921" type="qcurve" smooth="yes"/>
      <point x="231" y="921"/>
      <point x="243" y="913" type="qcurve" smooth="yes"/>
      <point x="254" y="905"/>
      <point x="254" y="892" type="qcurve" smooth="yes"/>
      <point x="254" y="878"/>
      <point x="240" y="861" type="qcurve" smooth="yes"/>
      <point x="194" y="807" type="line" smooth="yes"/>
      <point x="176" y="785"/>
      <point x="145" y="785" type="qcurve" smooth="yes"/>
      <point x="125" y="785" type="line" smooth="yes"/>
      <point x="95" y="785"/>
    </contour>
  </outline>
</glyph>
<glyph name="ucaron" format="2">
  <advance width="446"/>
  <unicode hex="01D4"/>
  <anchor x="223" y="485" name="top"/>
  <outline>
    <contour>
      <point x="113" y="11" type="qcurve" smooth="yes"/>
      <point x="80" y="44" type="line" smooth="yes"/>
      <point x="60" y="64"/>
      <point x="60" y="93" type="qcurve" smooth="yes"/>
      <point x="60" y="445" type="line" smooth="yes"/>
      <point x="60" y="485"/>
      <point x="100" y="485" type="qcurve" smooth="yes"/>
      <point x="111" y="485" type="line" smooth="yes"/>
      <point x="151" y="485"/>
      <point x="151" y="445" type="qcurve" smooth="yes"/>
      <point x="151" y="122" type="line" smooth="yes"/>
      <point x="151" y="82"/>
      <point x="191" y="82" type="qcurve" smooth="yes"/>
      <point x="255" y="82" type="line" smooth="yes"/>
      <point x="295" y="82"/>
      <point x="295" y="122" type="qcurve" smooth="yes"/>
      <point x="295" y="445" type="line" smooth="yes"/>
      <point x="295" y="485"/>
      <point x="335" y="485" type="qcurve" smooth="yes"/>
      <point x="346" y="485" type="line" smooth="yes"/>
      <point x="386" y="485"/>
      <point x="386" y="445" type="qcurve" smooth="yes"/>
      <point x="386" y="93" type="line"/>
      <point x="387" y="64"/>
      <point x="366" y="43" type="qcurve" smooth="yes"/>
      <point x="334" y="11" type="line" smooth="yes"/>
      <point x="314" y="-9"/>
      <point x="285" y="-9" type="qcurve" smooth="yes"/>
      <point x="162" y="-9" type="line" smooth="yes"/>
      <point x="133" y="-9"/>
    </contour>
    <contour>
      <point x="163" y="584" type="qcurve" smooth="yes"/>
      <point x="122" y="636" type="line" smooth="yes"/>
      <point x="110" y="651"/>
      <point x="110" y="666" type="qcurve" smooth="yes"/>
      <point x="110" y="680"/>
      <point x="121" y="688" type="qcurve" smooth="yes"/>
      <point x="131" y="695"/>
      <point x="141" y="695" type="qcurve" smooth="yes"/>
      <point x="157" y="695"/>
      <point x="172" y="676" type="qcurve" smooth="yes"/>
      <point x="193" y="650" type="line" smooth="yes"/>
      <point x="212" y="627"/>
      <point x="223" y="627" type="qcurve" smooth="yes"/>
      <point x="232" y="627"/>
      <point x="253" y="649" type="qcurve"/>
      <point x="278" y="678" type="line" smooth="yes"/>
      <point x="293" y="696"/>
      <point x="309" y="696" type="qcurve" smooth="yes"/>
      <point x="318" y="696"/>
      <point x="330" y="688" type="qcurve" smooth="yes"/>
      <point x="341" y="680"/>
      <point x="341" y="667" type="qcurve" smooth="yes"/>
      <point x="341" y="653"/>
      <point x="327" y="636" type="qcurve" smooth="yes"/>
      <point x="281" y="582" type="line" smooth="yes"/>
      <point x="263" y="560"/>
      <point x="232" y="560" type="qcurve" smooth="yes"/>
      <point x="212" y="560" type="line" smooth="yes"/>
      <point x="182" y="560"/>
    </contour>
  </outline>
</glyph>
<glyph name="Udieresismacron" format="2">
  <advance width="496"/>
  <unicode hex="01D5"/>
  <anchor x="248" y="861" name="top"/>
  <outline>
    <contour>
      <point x="103" y="12" type="qcurve" smooth="yes"/>
      <point x="70" y="45" type="line" smooth="yes"/>
      <point x="50" y="65"/>
      <point x="50" y="94" type="qcurve" smooth="yes"/>
      <point x="50" y="671" type="line" smooth="yes"/>
      <point x="50" y="711"/>
      <point x="90" y="711" type="qcurve" smooth="yes"/>
      <point x="101" y="711" type="line" smooth="yes"/>
      <point x="141" y="711"/>
      <point x="141" y="671" type="qcurve" smooth="yes"/>
      <point x="141" y="123" type="line" smooth="yes"/>
      <point x="141" y="83"/>
      <point x="181" y="83" type="qcurve" smooth="yes"/>
      <point x="315" y="83" type="line" smooth="yes"/>
      <point x="355" y="83"/>
      <point x="355" y="123" type="qcurve" smooth="yes"/>
      <point x="355" y="671" type="line" smooth="yes"/>
      <point x="355" y="711"/>
      <point x="395" y="711" type="qcurve" smooth="yes"/>
      <point x="406" y="711" type="line" smooth="yes"/>
      <point x="446" y="711"/>
      <point x="446" y="671" type="qcurve" smooth="yes"/>
      <point x="446" y="94" type="line"/>
      <point x="447" y="65"/>
      <point x="426" y="44" type="qcurve" smooth="yes"/>
      <point x="394" y="12" type="line" smooth="yes"/>
      <point x="374" y="-8"/>
      <point x="345" y="-8" type="qcurve" smooth="yes"/>
      <point x="152" y="-8" type="line" smooth="yes"/>
      <point x="123" y="-8"/>
    </contour>
    <contour>
      <point x="167" y="785" type="qcurve" smooth="yes"/>
      <point x="144" y="785"/>
      <point x="117" y="815"/>
      <point x="117" y="835" type="qcurve" smooth="yes"/>
      <point x="117" y="855"/>
      <point x="146" y="884"/>
      <point x="167" y="884" type="qcurve" smooth="yes"/>
      <point x="189" y="884"/>
      <point x="217" y="853"/>
      <point x="217" y="835" type="qcurve" smooth="yes"/>
      <point x="217" y="816"/>
      <point x="188" y="785"/>
    </contour>
    <contour>
      <point x="330" y="785" type="qcurve" smooth="yes"/>
      <point x="308" y="785"/>
      <point x="281" y="816"/>
      <point x="281" y="835" type="qcurve" smooth="yes"/>
      <point x="281" y="855"/>
      <point x="309" y="884"/>
      <point x="330" y="884" type="qcurve" smooth="yes"/>
      <point x="352" y="884"/>
      <point x="380" y="853"/>
      <point x="380" y="835" type="qcurve" smooth="yes"/>
      <point x="380" y="816"/>
      <point x="351" y="785"/>
    </contour>
    <contour>
      <point x="88" y="973" type="qcurve" smooth="yes"/>
      <point x="88" y="1010"/>
      <point x="128" y="1010" type="qcurve" smooth="yes"/>
      <point x="368" y="1010" type="line" smooth="yes"/>
      <point x="408" y="1010"/>
      <point x="408" y="973" type="qcurve" smooth="yes"/>
      <point x="408" y="936"/>
      <point x="368" y="936" type="qcurve" smooth="yes"/>
      <point x="128" y="936" type="line" smooth="yes"/>
      <point x="88" y="936"/>
    </contour>
  </outline>
</glyph>
<glyph name="Udieresisacute" format="2">
  <advance width="496"/>
  <unicode hex="01D7"/>
  <anchor x="248" y="861" name="top"/>
  <outline>
    <contour>
      <point x="103" y="12" type="qcurve" smooth="yes"/>
      <point x="70" y="45" type="line" smooth="yes"/>
      <point x="50" y="65"/>
      <point x="50" y="94" type="qcurve" smooth="yes"/>
      <point x="50" y="671" type="line" smooth="yes"/>
      <point x="50" y="711"/>
      <point x="90" y="711" type="qcurve" smooth="yes"/>
      <point x="101" y="711" type="line" smooth="yes"/>
      <point x="141" y="711"/>
      <point x="141" y="671" type="qcurve" smooth="yes"/>
      <point x="141" y="123" type="line" smooth="yes"/>
      <point x="141" y="83"/>
      <point x="181" y="83" type="qcurve" smooth="yes"/>
      <point x="315" y="83" type="line" smooth="yes"/>
      <point x="355" y="83"/>
      <point x="355" y="123" type="qcurve" smooth="yes"/>
      <point x="355" y="671" type="line" smooth="yes"/>
      <point x="355" y="711"/>
      <point x="395" y="711" type="qcurve" smooth="yes"/>
      <point x="406" y="711" type="line" smooth="yes"/>
      <point x="446" y="711"/>
      <point x="446" y="671" type="qcurve" smooth="yes"/>
      <point x="446" y="94" type="line"/>
      <point x="447" y="65"/>
      <point x="426" y="44" type="qcurve" smooth="yes"/>
      <point x="394" y="12" type="line" smooth="yes"/>
      <point x="374" y="-8"/>
      <point x="345" y="-8" type="qcurve" smooth="yes"/>
      <point x="152" y="-8" type="line" smooth="yes"/>
      <point x="123" y="-8"/>
    </contour>
    <contour>
      <point x="167" y="785" type="qcurve" smooth="yes"/>
      <point x="144" y="785"/>
      <point x="117" y="815"/>
      <point x="117" y="835" type="qcurve" smooth="yes"/>
      <point x="117" y="855"/>
      <point x="146" y="884"/>
      <point x="167" y="884" type="qcurve" smooth="yes"/>
      <point x="189" y="884"/>
      <point x="217" y="853"/>
      <point x="217" y="835" type="qcurve" smooth="yes"/>
      <point x="217" y="816"/>
      <point x="188" y="785"/>
    </contour>
    <contour>
      <point x="330" y="785" type="qcurve" smooth="yes"/>
      <point x="308" y="785"/>
      <point x="281" y="816"/>
      <point x="281" y="835" type="qcurve" smooth="yes"/>
      <point x="281" y="855"/>
      <point x="309" y="884"/>
      <point x="330" y="884" type="qcurve" smooth="yes"/>
      <point x="352" y="884"/>
      <point x="380" y="853"/>
      <point x="380" y="835" type="qcurve" smooth="yes"/>
      <point x="380" y="816"/>
      <point x="351" y="785"/>
    </contour>
    <contour>
      <point x="214" y="948" type="line" smooth="yes"/>
      <point x="198" y="948"/>
      <point x="183" y="967"/>
      <point x="189" y="981" type="qcurve" smooth="yes"/>
      <point x="229" y="1069" type="line" smooth="yes"/>
      <point x="235" y="1083"/>
      <point x="258" y="1102"/>
      <point x="275" y="1102" type="qcurve" smooth="yes"/>
      <point x="296" y="1102" type="line" smooth="yes"/>
      <point x="312" y="1102"/>
      <point x="327" y="1083"/>
      <point x="321" y="1069" type="qcurve" smooth="yes"/>
      <point x="281" y="981" type="line" smooth="yes"/>
      <point x="275" y="967"/>
      <point x="252" y="948"/>
      <point x="235" y="948" type="qcurve" smooth="yes"/>
    </contour>
  </outline>
</glyph>
<glyph name="Udieresiscaron" format="2">
  <advance width="496"/>
  <unicode hex="01D9"/>
  <anchor x="248" y="861" name="top"/>
  <outline>
    <contour>
      <point x="103" y="12" type="qcurve" smooth="yes"/>
      <point x="70" y="45" type="line" smooth="yes"/>
      <point x="50" y="65"/>
      <point x="50" y="94" type="qcurve" smooth="yes"/>
      <point x="50" y="671" type="line" smooth="yes"/>
      <point x="50" y="711"/>
      <point x="90" y="711" type="qcurve" smooth="yes"/>
      <point x="101" y="711" type="line" smooth="yes"/>
      <point x="141" y="711"/>
      <point x="141" y="671" type="qcurve" smooth="yes"/>
      <point x="141" y="123" type="line" smooth="yes"/>
      <point x="141" y="83"/>
      <point x="181" y="83" type="qcurve" smooth="yes"/>
      <point x="315" y="83" type="line" smooth="yes"/>
      <point x="355" y="83"/>
      <point x="355" y="123" type="qcurve" smooth="yes"/>
      <point x="355" y="671" type="line" smooth="yes"/>
      <point x="355" y="711"/>
      <point x="395" y="711" type="qcurve" smooth="yes"/>
      <point x="406" y="711" type="line" smooth="yes"/>
      <point x="446" y="711"/>
      <point x="446" y="671" type="qcurve" smooth="yes"/>
      <point x="446" y="94" type="line"/>
      <point x="447" y="65"/>
      <point x="426" y="44" type="qcurve" smooth="yes"/>
      <point x="394" y="12" type="line" smooth="yes"/>
      <point x="374" y="-8"/>
      <point x="345" y="-8" type="qcurve" smooth="yes"/>
      <point x="152" y="-8" type="line" smooth="yes"/>
      <point x="123" y="-8"/>
    </contour>
    <contour>
      <point x="167" y="785" type="qcurve" smooth="yes"/>
      <point x="144" y="785"/>
      <point x="117" y="815"/>
      <point x="117" y="835" type="qcurve" smooth="yes"/>
      <point x="117" y="855"/>
      <point x="146" y="884"/>
      <point x="167" y="884" type="qcurve" smooth="yes"/>
      <point x="189" y="884"/>
      <point x="217" y="853"/>
      <point x="217" y="835" type="qcurve" smooth="yes"/>
      <point x="217" y="816"/>
      <point x="188" y="785"/>
    </contour>
    <contour>
      <point x="330" y="785" type="qcurve" smooth="yes"/>
      <point x="308" y="785"/>
      <point x="281" y="816"/>
      <point x="281" y="835" type="qcurve" smooth="yes"/>
      <point x="281" y="855"/>
      <point x="309" y="884"/>
      <point x="330" y="884" type="qcurve" smooth="yes"/>
      <point x="352" y="884"/>
      <point x="380" y="853"/>
      <point x="380" y="835" type="qcurve" smooth="yes"/>
      <point x="380" y="816"/>
      <point x="351" y="785"/>
    </contour>
    <contour>
      <point x="188" y="960" type="qcurve" smooth="yes"/>
      <point x="147" y="1012" type="line" smooth="yes"/>
      <point x="135" y="1027"/>
      <point x="135" y="1042" type="qcurve" smooth="yes"/>
      <point x="135" y="1056"/>
      <point x="146" y="1064" type="qcurve" smooth="yes"/>
      <point x="156" y="1071"/>
      <point x="166" y="1071" type="qcurve" smooth="yes"/>
      <point x="182" y="1071"/>
      <point x="197" y="1052" type="qcurve" smooth="yes"/>
      <point x="218" y="1026" type="line" smooth="yes"/>
      <point x="237" y="1003"/>
      <point x="248" y="1003" type="qcurve" smooth="yes"/>
      <point x="257" y="1003"/>
      <point x="278" y="1025" type="qcurve"/>
      <point x="303" y="1054" type="line" smooth="yes"/>
      <point x="318" y="1072"/>
      <point x="334" y="1072" type="qcurve" smooth="yes"/>
      <point x="343" y="1072"/>
      <point x="355" y="1064" type="qcurve" smooth="yes"/>
      <point x="366" y="1056"/>
      <point x="366" y="1043" type="qcurve" smooth="yes"/>
      <point x="366" y="1029"/>
      <point x="352" y="1012" type="qcurve" smooth="yes"/>
      <point x="306" y="958" type="line" smooth="yes"/>
      <point x="288" y="936"/>
      <point x="257" y="936" type="qcurve" smooth="yes"/>
      <point x="237" y="936" type="line" smooth="yes"/>
      <point x="207" y="936"/>
    </contour>
  </outline>
</glyph>
<glyph name="udieresisgrave" format="2">
  <advance width="446"/>
  <unicode hex="01DC"/>
  <anchor x="223" y="636" name="top"/>
  <outline>
    <contour>
      <point x="113" y="11" type="qcurve" smooth="yes"/>
      <point x="80" y="44" type="line" smooth="yes"/>
      <point x="60" y="64"/>
      <point x="60" y="93" type="qcurve" smooth="yes"/>
      <point x="60" y="445" type="line" smooth="yes"/>
      <point x="60" y="485"/>
      <point x="100" y="485" type="qcurve" smooth="yes"/>
      <point x="111" y="485" type="line" smooth="yes"/>
      <point x="151" y="485"/>
      <point x="151" y="445" type="qcurve" smooth="yes"/>
      <point x="151" y="122" type="line" smooth="yes"/>
      <point x="151" y="82"/>
      <point x="191" y="82" type="qcurve" smooth="yes"/>
      <point x="255" y="82" type="line" smooth="yes"/>
      <point x="295" y="82"/>
      <point x="295" y="122" type="qcurve" smooth="yes"/>
      <point x="295" y="445" type="line" smooth="yes"/>
      <point x="295" y="485"/>
      <point x="335" y="485" type="qcurve" smooth="yes"/>
      <point x="346" y="485" type="line" smooth="yes"/>
      <point x="386" y="485"/>
      <point x="386" y="445" type="qcurve" smooth="yes"/>
      <point x="386" y="93" type="line"/>
      <point x="387" y="64"/>
      <point x="366" y="43" type="qcurve" smooth="yes"/>
      <point x="334" y="11" type="line" smooth="yes"/>
      <point x="314" y="-9"/>
      <point x="285" y="-9" type="qcurve" smooth="yes"/>
      <point x="162" y="-9" type="line" smooth="yes"/>
      <point x="133" y="-9"/>
    </contour>
    <contour>
      <point x="142" y="560" type="qcurve" smooth="yes"/>
      <point x="119" y="560"/>
      <point x="92" y="590"/>
      <point x="92" y="610" type="qcurve" smooth="yes"/>
      <point x="92" y="630"/>
      <point x="121" y="659"/>
      <point x="142" y="659" type="qcurve" smooth="yes"/>
      <point x="164" y="659"/>
      <point x="192" y="628"/>
      <point x="192" y="610" type="qcurve" smooth="yes"/>
      <point x="192" y="591"/>
      <point x="163" y="560"/>
    </contour>
    <contour>
      <point x="305" y="560" type="qcurve" smooth="yes"/>
      <point x="283" y="560"/>
      <point x="256" y="591"/>
      <point x="256" y="610" type="qcurve" smooth="yes"/>
      <point x="256" y="630"/>
      <point x="284" y="659"/>
      <point x="305" y="659" type="qcurve" smooth="yes"/>
      <point x="327" y="659"/>
      <point x="355" y="628"/>
      <point x="355" y="610" type="qcurve" smooth="yes"/>
      <point x="355" y="591"/>
      <point x="326" y="560"/>
    </contour>
    <contour>
      <point x="176" y="756" type="qcurve" smooth="yes"/>
      <point x="136" y="844" type="line" smooth="yes"/>
      <point x="130" y="858"/>
      <point x="145" y="877"/>
      <point x="161" y="877" type="qcurve" smooth="yes"/>
      <point x="182" y="877" type="line" smooth="yes"/>
      <point x="199" y="877"/>
      <point x="222" y="858"/>
      <point x="228" y="844" type="qcurve" smooth="yes"/>
      <point x="268" y="756" type="line" smooth="yes"/>
      <point x="274" y="742"/>
      <point x="259" y="723"/>
      <point x="243" y="723" type="qcurve" smooth="yes"/>
      <point x="222" y="723" type="line" smooth="yes"/>
      <point x="205" y="723"/>
      <point x="182" y="742"/>
    </contour>
  </outline>
</glyph>
<glyph name="Ngrave" format="2">
  <advance width="505"/>
  <unicode hex="01F8"/>
  <anchor x="253" y="710" name="top"/>
  <outline>
    <contour>
      <point x="90" y="-9" type="line" smooth="yes"/>
      <point x="50" y="-9"/>
      <point x="50" y="31" type="qcurve" smooth="yes"/>
      <point x="50" y="670" type="line" smooth="yes"/>
      <point x="50" y="710"/>
      <point x="90" y="710" type="qcurve" smooth="yes"/>
      <point x="110" y="710" type="line" smooth="yes"/>
      <point x="143" y="710"/>
      <point x="156" y="680" type="qcurve" smooth="yes"/>
      <point x="317" y="309" type="line" smooth="yes"/>
      <point x="322" y="298"/>
      <point x="337" y="285"/>
      <point x="344" y="285" type="qcurve" smooth="yes"/>
      <point x="353" y="285"/>
      <point x="364" y="302"/>
      <point x="364" y="318" type="qcurve" smooth="yes"/>
      <point x="364" y="670" type="line" smooth="yes"/>
      <point x="364" y="710"/>
      <point x="404" y="710" type="qcurve" smooth="yes"/>
      <point x="415" y="710" type="line" smooth="yes"/>
      <point x="455" y="710"/>
      <point x="455" y="670" type="qcurve" smooth="yes"/>
      <point x="455" y="31" type="line" smooth="yes"/>
      <point x="455" y="-9"/>
      <point x="415" y="-9" type="qcurve" smooth="yes"/>
      <point x="404" y="-9" type="line" smooth="yes"/>
      <point x="371" y="-9"/>
      <point x="358" y="21" type="qcurve" smooth="yes"/>
      <point x="188" y="410" type="line" smooth="yes"/>
      <point x="178" y="434"/>
      <point x="162" y="434" type="qcurve" smooth="yes"/>
      <point x="153" y="434"/>
      <point x="141" y="416"/>
      <point x="141" y="400" type="qcurve" smooth="yes"/>
      <point x="141" y="31" type="line" smooth="yes"/>
      <point x="141" y="-9"/>
      <point x="101" y="-9" type="qcurve" smooth="yes"/>
    </contour>
    <contour>
      <point x="206" y="830" type="qcurve" smooth="yes"/>
      <point x="166" y="918" type="line" smooth="yes"/>
      <point x="160" y="932"/>
      <point x="175" y="951"/>
      <point x="191" y="951" type="qcurve" smooth="yes"/>
      <point x="212" y="951" type="line" smooth="yes"/>
      <point x="229" y="951"/>
      <point x="252" y="932"/>
      <point x="258" y="918" type="qcurve" smooth="yes"/>
      <point x="298" y="830" type="line" smooth="yes"/>
      <point x="304" y="816"/>
      <point x="289" y="797"/>
      <point x="273" y="797" type="qcurve" smooth="yes"/>
      <point x="252" y="797" type="line" smooth="yes"/>
      <point x="235" y="797"/>
      <point x="212" y="816"/>
    </contour>
  </outline>
</glyph>
<glyph name="caron" format="2">
  <advance width="231"/>
  <unicode hex="02C7"/>
  <outline>
    <contour>
      <point x="53" y="665" type="qcurve" smooth="yes"/>
      <point x="12" y="717" type="line" smooth="yes"/>
      <point x="0" y="732"/>
      <point x="0" y="747" type="qcurve" smooth="yes"/>
      <point x="0" y="761"/>
      <point x="11" y="769" type="qcurve" smooth="yes"/>
      <point x="21" y="776"/>
      <point x="31" y="776" type="qcurve" smooth="yes"/>
      <point x="47" y="776"/>
      <point x="62" y="757" type="qcurve" smooth="yes"/>
      <point x="83" y="731" type="line" smooth="yes"/>
      <point x="102" y="708"/>
      <point x="113" y="708" type="qcurve" smooth="yes"/>
      <point x="122" y="708"/>
      <point x="143" y="730" type="qcurve"/>
      <point x="168" y="759" type="line" smooth="yes"/>
      <point x="183" y="777"/>
      <point x="199" y="777" type="qcurve" smooth="yes"/>
      <point x="208" y="777"/>
      <point x="220" y="769" type="qcurve" smooth="yes"/>
      <point x="231" y="761"/>
      <point x="231" y="748" type="qcurve" smooth="yes"/>
      <point x="231" y="734"/>
      <point x="217" y="717" type="qcurve" smooth="yes"/>
      <point x="171" y="663" type="line" smooth="yes"/>
      <point x="153" y="641"/>
      <point x="122" y="641" type="qcurve" smooth="yes"/>
      <point x="102" y="641" type="line" smooth="yes"/>
      <point x="72" y="641"/>
    </contour>
  </outline>
</glyph>
<glyph name="macronmod" format="2">
  <advance width="360"/>
  <unicode hex="02C9"/>
  <outline>
    <contour>
      <point x="20" y="725" type="qcurve" smooth="yes"/>
      <point x="20" y="762"/>
      <point x="60" y="762" type="qcurve" smooth="yes"/>
      <point x="300" y="762" type="line" smooth="yes"/>
      <point x="340" y="762"/>
      <point x="340" y="725" type="qcurve" smooth="yes"/>
      <point x="340" y="688"/>
      <point x="300" y="688" type="qcurve" smooth="yes"/>
      <point x="60" y="688" type="line" smooth="yes"/>
      <point x="20" y="688"/>
    </contour>
  </outline>
</glyph>
<glyph name="acutemod" format="2">
  <advance width="167"/>
  <unicode hex="02CA"/>
  <outline>
    <contour>
      <point x="41" y="627" type="line" smooth="yes"/>
      <point x="25" y="627"/>
      <point x="10" y="646"/>
      <point x="16" y="660" type="qcurve" smooth="yes"/>
      <point x="56" y="748" type="line" smooth="yes"/>
      <point x="62" y="762"/>
      <point x="85" y="781"/>
      <point x="102" y="781" type="qcurve" smooth="yes"/>
      <point x="123" y="781" type="line" smooth="yes"/>
      <point x="139" y="781"/>
      <point x="154" y="762"/>
      <point x="148" y="748" type="qcurve" smooth="yes"/>
      <point x="108" y="660" type="line" smooth="yes"/>
      <point x="102" y="646"/>
      <point x="79" y="627"/>
      <point x="62" y="627" type="qcurve" smooth="yes"/>
    </contour>
  </outline>
</glyph>
<glyph name="gravemod" format="2">
  <advance width="165"/>
  <unicode hex="02CB"/>
  <outline>
    <contour>
      <point x="50" y="660" type="qcurve" smooth="yes"/>
      <point x="10" y="748" type="line" smooth="yes"/>
      <point x="4" y="762"/>
      <point x="19" y="781"/>
      <point x="35" y="781" type="qcurve" smooth="yes"/>
      <point x="56" y="781" type="line" smooth="yes"/>
      <point x="73" y="781"/>
      <point x="96" y="762"/>
      <point x="102" y="748" type="qcurve" smooth="yes"/>
      <point x="142" y="660" type="line" smooth="yes"/>
      <point x="148" y="646"/>
      <point x="133" y="627"/>
      <point x="117" y="627" type="qcurve" smooth="yes"/>
      <point x="96" y="627" type="line" smooth="yes"/>
      <point x="79" y="627"/>
      <point x="56" y="646"/>
    </contour>
  </outline>
</glyph>
<glyph name="breve" format="2">
  <advance width="249"/>
  <unicode hex="02D8"/>
  <anchor x="0" y="-75" name="_top"/>
  <outline>
    <contour>
      <point x="0" y="758" type="qcurve" smooth="yes"/>
      <point x="0" y="768"/>
      <point x="17" y="784"/>
      <point x="32" y="784" type="qcurve" smooth="yes"/>
      <point x="60" y="784"/>
      <point x="63" y="753" type="qcurve" smooth="yes"/>
      <point x="65" y="731"/>
      <point x="101" y="703"/>
      <point x="124" y="703" type="qcurve" smooth="yes"/>
      <point x="147" y="703"/>
      <point x="185" y="731"/>
      <point x="187" y="753" type="qcurve" smooth="yes"/>
      <point x="190" y="784"/>
      <point x="218" y="784" type="qcurve" smooth="yes"/>
      <point x="233" y="784"/>
      <point x="249" y="768"/>
      <point x="249" y="758" type="qcurve" smooth="yes"/>
      <point x="249" y="734"/>
      <point x="227" y="691"/>
      <point x="192" y="660"/>
      <point x="147" y="642"/>
      <point x="124" y="642" type="qcurve" smooth="yes"/>
      <point x="101" y="642"/>
      <point x="57" y="660"/>
      <point x="22" y="691"/>
      <point x="0" y="734"/>
    </contour>
  </outline>
</glyph>
<glyph name="dotaccent" format="2">
  <advance width="181"/>
  <unicode hex="02D9"/>
  <outline>
    <contour>
      <point x="90" y="649" type="qcurve" smooth="yes"/>
      <point x="68" y="649"/>
      <point x="41" y="680"/>
      <point x="41" y="699" type="qcurve" smooth="yes"/>
      <point x="41" y="719"/>
      <point x="69" y="748"/>
      <point x="90" y="748" type="qcurve" smooth="yes"/>
      <point x="113" y="748"/>
      <point x="141" y="717"/>
      <point x="141" y="699" type="qcurve" smooth="yes"/>
      <point x="141" y="680"/>
      <point x="112" y="649"/>
    </contour>
  </outline>
</glyph>
<glyph name="ogonek" format="2">
  <advance width="180"/>
  <unicode hex="02DB"/>
  <outline>
    <contour>
      <point x="88" y="-3" type="line"/>
      <point x="196" y="-3" type="line"/>
      <point x="146" y="-58" type="line" smooth="yes"/>
      <point x="131" y="-75"/>
      <point x="131" y="-88" type="qcurve" smooth="yes"/>
      <point x="131" y="-95"/>
      <point x="159" y="-98" type="qcurve" smooth="yes"/>
      <point x="175" y="-99" type="line"/>
      <point x="215" y="-99"/>
      <point x="215" y="-139" type="qcurve" smooth="yes"/>
      <point x="215" y="-143" type="line" smooth="yes"/>
      <point x="215" y="-182"/>
      <point x="175" y="-181" type="qcurve" smooth="yes"/>
      <point x="79" y="-177" type="line" smooth="yes"/>
      <point x="61" y="-176"/>
      <point x="39" y="-153"/>
      <point x="39" y="-135" type="qcurve" smooth="yes"/>
      <point x="39" y="-90" type="line" smooth="yes"/>
      <point x="39" y="-72"/>
      <point x="53" y="-34"/>
      <point x="67" y="-22" type="qcurve" smooth="yes"/>
    </contour>
  </outline>
</glyph>
<glyph name="hungarumlaut" format="2">
  <advance width="290"/>
  <unicode hex="02DD"/>
  <outline>
    <contour>
      <point x="170" y="624" type="line" smooth="yes"/>
      <point x="154" y="624"/>
      <point x="139" y="643"/>
      <point x="145" y="657" type="qcurve" smooth="yes"/>
      <point x="185" y="745" type="line" smooth="yes"/>
      <point x="191" y="759"/>
      <point x="214" y="778"/>
      <point x="231" y="778" type="qcurve" smooth="yes"/>
      <point x="252" y="778" type="line" smooth="yes"/>
      <point x="268" y="778"/>
      <point x="283" y="759"/>
      <point x="277" y="745" type="qcurve" smooth="yes"/>
      <point x="237" y="657" type="line" smooth="yes"/>
      <point x="231" y="643"/>
      <point x="208" y="624"/>
      <point x="191" y="624" type="qcurve" smooth="yes"/>
    </contour>
    <contour>
      <point x="44" y="624" type="line" smooth="yes"/>
      <point x="28" y="624"/>
      <point x="13" y="643"/>
      <point x="19" y="657" type="qcurve" smooth="yes"/>
      <point x="59" y="745" type="line" smooth="yes"/>
      <point x="65" y="759"/>
      <point x="88" y="778"/>
      <point x="105" y="778" type="qcurve" smooth="yes"/>
      <point x="126" y="778" type="line" smooth="yes"/>
      <point x="142" y="778"/>
      <point x="157" y="759"/>
      <point x="151" y="745" type="qcurve" smooth="yes"/>
      <point x="111" y="657" type="line" smooth="yes"/>
      <point x="105" y="643"/>
      <point x="82" y="624"/>
      <point x="65" y="624" type="qcurve" smooth="yes"/>
    </contour>
  </outline>
</glyph>
<glyph name="hungarumlautcomb" format="2">
  <unicode hex="030B"/>
  <anchor x="-147" y="549" name="_top"/>
  <outline>
    <contour>
      <point x="-113" y="624" type="line" smooth="yes"/>
      <point x="-129" y="624"/>
      <point x="-144" y="643"/>
      <point x="-138" y="657" type="qcurve" smooth="yes"/>
      <point x="-98" y="745" type="line" smooth="yes"/>
      <point x="-92" y="759"/>
      <point x="-69" y="778"/>
      <point x="-52" y="778" type="qcurve" smooth="yes"/>
      <point x="-31" y="778" type="line" smooth="yes"/>
      <point x="-15" y="778"/>
      <point x="0" y="759"/>
      <point x="-6" y="745" type="qcurve" smooth="yes"/>
      <point x="-46" y="657" type="line" smooth="yes"/>
      <point x="-52" y="643"/>
      <point x="-75" y="624"/>
      <point x="-92" y="624" type="qcurve" smooth="yes"/>
    </contour>
    <contour>
      <point x="-239" y="624" type="line" smooth="yes"/>
      <point x="-255" y="624"/>
      <point x="-270" y="643"/>
      <point x="-264" y="657" type="qcurve" smooth="yes"/>
      <point x="-224" y="745" type="line" smooth="yes"/>
      <point x="-218" y="759"/>
      <point x="-195" y="778"/>
      <point x="-178" y="778" type="qcurve" smooth="yes"/>
      <point x="-157" y="778" type="line" smooth="yes"/>
      <point x="-141" y="778"/>
      <point x="-126" y="759"/>
      <point x="-132" y="745" type="qcurve" smooth="yes"/>
      <point x="-172" y="657" type="line" smooth="yes"/>
      <point x="-178" y="643"/>
      <point x="-201" y="624"/>
      <point x="-218" y="624" type="qcurve" smooth="yes"/>
    </contour>
  </outline>
</glyph>
<glyph name="Macute" format="2">
  <advance width="617"/>
  <unicode hex="1E3E"/>
  <anchor x="309" y="710" name="top"/>
  <outline>
    <contour>
      <point x="90" y="-8" type="line" smooth="yes"/>
      <point x="50" y="-8"/>
      <point x="50" y="32" type="qcurve" smooth="yes"/>
      <point x="50" y="669" type="line" smooth="yes"/>
      <point x="50" y="709"/>
      <point x="90" y="709" type="qcurve" smooth="yes"/>
      <point x="105" y="709" type="line" smooth="yes"/>
      <point x="140" y="709"/>
      <point x="150" y="676" type="qcurve" smooth="yes"/>
      <point x="286" y="241" type="line" smooth="yes"/>
      <point x="290" y="227"/>
      <point x="304" y="213"/>
      <point x="311" y="213" type="qcurve" smooth="yes"/>
      <point x="319" y="213"/>
      <point x="333" y="228"/>
      <point x="337" y="242" type="qcurve" smooth="yes"/>
      <point x="465" y="675" type="line" smooth="yes"/>
      <point x="475" y="709"/>
      <point x="510" y="709" type="qcurve" smooth="yes"/>
      <point x="527" y="709" type="line" smooth="yes"/>
      <point x="567" y="709"/>
      <point x="567" y="669" type="qcurve" smooth="yes"/>
      <point x="567" y="32" type="line" smooth="yes"/>
      <point x="567" y="-8"/>
      <point x="527" y="-8" type="qcurve" smooth="yes"/>
      <point x="517" y="-8" type="line" smooth="yes"/>
      <point x="477" y="-8"/>
      <point x="477" y="32" type="qcurve" smooth="yes"/>
      <point x="477" y="269" type="line" smooth="yes"/>
      <point x="477" y="283"/>
      <point x="465" y="298"/>
      <point x="456" y="298" type="qcurve" smooth="yes"/>
      <point x="439" y="298"/>
      <point x="433" y="276" type="qcurve" smooth="yes"/>
      <point x="378" y="88" type="line"/>
      <point x="367" y="54"/>
      <point x="333" y="54" type="qcurve" smooth="yes"/>
      <point x="294" y="54" type="line" smooth="yes"/>
      <point x="258" y="54"/>
      <point x="248" y="87" type="qcurve" smooth="yes"/>
      <point x="185" y="287" type="line" smooth="yes"/>
      <point x="181" y="298"/>
      <point x="168" y="310"/>
      <point x="161" y="310" type="qcurve" smooth="yes"/>
      <point x="152" y="310"/>
      <point x="140" y="294"/>
      <point x="140" y="280" type="qcurve" smooth="yes"/>
      <point x="140" y="32" type="line" smooth="yes"/>
      <point x="140" y="-8"/>
      <point x="100" y="-8" type="qcurve" smooth="yes"/>
    </contour>
    <contour>
      <point x="275" y="797" type="line" smooth="yes"/>
      <point x="259" y="797"/>
      <point x="244" y="816"/>
      <point x="250" y="830" type="qcurve" smooth="yes"/>
      <point x="290" y="918" type="line" smooth="yes"/>
      <point x="296" y="932"/>
      <point x="319" y="951"/>
      <point x="336" y="951" type="qcurve" smooth="yes"/>
      <point x="357" y="951" type="line" smooth="yes"/>
      <point x="373" y="951"/>
      <point x="388" y="932"/>
      <point x="382" y="918" type="qcurve" smooth="yes"/>
      <point x="342" y="830" type="line" smooth="yes"/>
      <point x="336" y="816"/>
      <point x="313" y="797"/>
      <point x="296" y="797" type="qcurve" smooth="yes"/>
    </contour>
  </outline>
</glyph>
<glyph name="Zcircumflex" format="2">
  <advance width="497"/>
  <unicode hex="1E90"/>
  <anchor x="249" y="927" name="top"/>
  <outline>
    <contour>
      <point x="90" y="-9" type="line" smooth="yes"/>
      <point x="50" y="-9"/>
      <point x="50" y="31" type="qcurve" smooth="yes"/>
      <point x="50" y="81" type="line" smooth="yes"/>
      <point x="50" y="109"/>
      <point x="64" y="131" type="qcurve"/>
      <point x="327" y="574" type="line"/>
      <point x="334" y="587"/>
      <point x="334" y="597" type="qcurve" smooth="yes"/>
      <point x="334" y="608"/>
      <point x="316" y="622"/>
      <point x="300" y="622" type="qcurve" smooth="yes"/>
      <point x="90" y="622" type="line" smooth="yes"/>
      <point x="50" y="622"/>
      <point x="50" y="662" type="qcurve" smooth="yes"/>
      <point x="50" y="673" type="line" smooth="yes"/>
      <point x="50" y="713"/>
      <point x="90" y="713" type="qcurve" smooth="yes"/>
      <point x="407" y="713" type="line" smooth="yes"/>
      <point x="447" y="713"/>
      <point x="447" y="673" type="qcurve" smooth="yes"/>
      <point x="447" y="620" type="line" smooth="yes"/>
      <point x="447" y="592"/>
      <point x="433" y="570" type="qcurve"/>
      <point x="172" y="130" type="line"/>
      <point x="165" y="117"/>
      <point x="165" y="107" type="qcurve" smooth="yes"/>
      <point x="165" y="96"/>
      <point x="183" y="82"/>
      <point x="199" y="82" type="qcurve" smooth="yes"/>
      <point x="407" y="82" type="line" smooth="yes"/>
      <point x="447" y="82"/>
      <point x="447" y="42" type="qcurve" smooth="yes"/>
      <point x="447" y="31" type="line" smooth="yes"/>
      <point x="447" y="-9"/>
      <point x="407" y="-9" type="qcurve" smooth="yes"/>
    </contour>
    <contour>
      <point x="152" y="804" type="qcurve" smooth="yes"/>
      <point x="152" y="817"/>
      <point x="162" y="833" type="qcurve" smooth="yes"/>
      <point x="221" y="927" type="line" smooth="yes"/>
      <point x="233" y="947"/>
      <point x="249" y="947" type="qcurve" smooth="yes"/>
      <point x="265" y="947"/>
      <point x="277" y="927" type="qcurve"/>
      <point x="337" y="833" type="line"/>
      <point x="348" y="817"/>
      <point x="348" y="801" type="qcurve" smooth="yes"/>
      <point x="348" y="785"/>
      <point x="332" y="785" type="qcurve" smooth="yes"/>
      <point x="328" y="785" type="line" smooth="yes"/>
      <point x="296" y="785"/>
      <point x="280" y="812" type="qcurve" smooth="yes"/>
      <point x="277" y="817" type="line" smooth="yes"/>
      <point x="263" y="841"/>
      <point x="247" y="841" type="qcurve" smooth="yes"/>
      <point x="236" y="841"/>
      <point x="227" y="826" type="qcurve"/>
      <point x="220" y="813" type="line" smooth="yes"/>
      <point x="205" y="785"/>
      <point x="172" y="785" type="qcurve" smooth="yes"/>
      <point x="152" y="785"/>
    </contour>
  </outline>
</glyph>
<glyph name="Ecircumflexacute" format="2">
  <advance width="485"/>
  <unicode hex="1EBE"/>
  <anchor x="248" y="927" name="top"/>
  <outline>
    <contour>
      <point x="102" y="14" type="qcurve" smooth="yes"/>
      <point x="70" y="46" type="line" smooth="yes"/>
      <point x="50" y="66"/>
      <point x="50" y="95" type="qcurve" smooth="yes"/>
      <point x="50" y="671" type="line" smooth="yes"/>
      <point x="50" y="711"/>
      <point x="90" y="711" type="qcurve" smooth="yes"/>
      <point x="405" y="711" type="line" smooth="yes"/>
      <point x="445" y="711"/>
      <point x="445" y="671" type="qcurve" smooth="yes"/>
      <point x="445" y="660" type="line" smooth="yes"/>
      <point x="445" y="620"/>
      <point x="405" y="620" type="qcurve" smooth="yes"/>
      <point x="180" y="620" type="line" smooth="yes"/>
      <point x="140" y="620"/>
      <point x="140" y="580" type="qcurve" smooth="yes"/>
      <point x="140" y="446" type="line" smooth="yes"/>
      <point x="140" y="406"/>
      <point x="180" y="406" type="qcurve" smooth="yes"/>
      <point x="405" y="406" type="line" smooth="yes"/>
      <point x="445" y="406"/>
      <point x="445" y="366" type="qcurve" smooth="yes"/>
      <point x="445" y="355" type="line" smooth="yes"/>
      <point x="445" y="315"/>
      <point x="405" y="315" type="qcurve" smooth="yes"/>
      <point x="180" y="315" type="line" smooth="yes"/>
      <point x="140" y="315"/>
      <point x="140" y="275" type="qcurve" smooth="yes"/>
      <point x="140" y="124" type="line" smooth="yes"/>
      <point x="140" y="84"/>
      <point x="180" y="84" type="qcurve" smooth="yes"/>
      <point x="405" y="84" type="line" smooth="yes"/>
      <point x="445" y="84"/>
      <point x="445" y="44" type="qcurve" smooth="yes"/>
      <point x="445" y="33" type="line" smooth="yes"/>
      <point x="445" y="-7"/>
      <point x="405" y="-7" type="qcurve" smooth="yes"/>
      <point x="151" y="-7" type="line" smooth="yes"/>
      <point x="123" y="-7"/>
    </contour>
    <contour>
      <point x="151" y="804" type="qcurve" smooth="yes"/>
      <point x="151" y="817"/>
      <point x="161" y="833" type="qcurve" smooth="yes"/>
      <point x="220" y="927" type="line" smooth="yes"/>
      <point x="232" y="947"/>
      <point x="248" y="947" type="qcurve" smooth="yes"/>
      <point x="264" y="947"/>
      <point x="276" y="927" type="qcurve"/>
      <point x="336" y="833" type="line"/>
      <point x="347" y="817"/>
      <point x="347" y="801" type="qcurve" smooth="yes"/>
      <point x="347" y="785"/>
      <point x="331" y="785" type="qcurve" smooth="yes"/>
      <point x="327" y="785" type="line" smooth="yes"/>
      <point x="295" y="785"/>
      <point x="279" y="812" type="qcurve" smooth="yes"/>
      <point x="276" y="817" type="line" smooth="yes"/>
      <point x="262" y="841"/>
      <point x="246" y="841" type="qcurve" smooth="yes"/>
      <point x="235" y="841"/>
      <point x="226" y="826" type="qcurve"/>
      <point x="219" y="813" type="line" smooth="yes"/>
      <point x="204" y="785"/>
      <point x="171" y="785" type="qcurve" smooth="yes"/>
      <point x="151" y="785"/>
    </contour>
    <contour>
      <point x="214" y="1014" type="line" smooth="yes"/>
      <point x="198" y="1014"/>
      <point x="183" y="1033"/>
      <point x="189" y="1047" type="qcurve" smooth="yes"/>
      <point x="229" y="1135" type="line" smooth="yes"/>
      <point x="235" y="1149"/>
      <point x="258" y="1168"/>
      <point x="275" y="1168" type="qcurve" smooth="yes"/>
      <point x="296" y="1168" type="line" smooth="yes"/>
      <point x="312" y="1168"/>
      <point x="327" y="1149"/>
      <point x="321" y="1135" type="qcurve" smooth="yes"/>
      <point x="281" y="1047" type="line" smooth="yes"/>
      <point x="275" y="1033"/>
      <point x="252" y="1014"/>
      <point x="235" y="1014" type="qcurve" smooth="yes"/>
    </contour>
  </outline>
</glyph>
<glyph name="verticalbardbl" format="2">
  <advance width="350"/>
  <unicode hex="2016"/>
  <outline>
    <contour>
      <point x="90" y="-103" type="line" smooth="yes"/>
      <point x="50" y="-103"/>
      <point x="50" y="-63" type="qcurve" smooth="yes"/>
      <point x="50" y="768" type="line" smooth="yes"/>
      <point x="50" y="808"/>
      <point x="90" y="808" type="qcurve" smooth="yes"/>
      <point x="95" y="808" type="line" smooth="yes"/>
      <point x="135" y="808"/>
      <point x="135" y="768" type="qcurve" smooth="yes"/>
      <point x="135" y="-63" type="line" smooth="yes"/>
      <point x="135" y="-103"/>
      <point x="95" y="-103" type="qcurve" smooth="yes"/>
    </contour>
    <contour>
      <point x="255" y="-103" type="line" smooth="yes"/>
      <point x="215" y="-103"/>
      <point x="215" y="-63" type="qcurve" smooth="yes"/>
      <point x="215" y="768" type="line" smooth="yes"/>
      <point x="215" y="808"/>
      <point x="255" y="808" type="qcurve" smooth="yes"/>
      <point x="260" y="808" type="line" smooth="yes"/>
      <point x="300" y="808"/>
      <point x="300" y="768" type="qcurve" smooth="yes"/>
      <point x="300" y="-63" type="line" smooth="yes"/>
      <point x="300" y="-103"/>
      <point x="260" y="-103" type="qcurve" smooth="yes"/>
    </contour>
  </outline>
</glyph>
<glyph name="twodotenleader" format="2">
  <advance width="765"/>
  <unicode hex="2025"/>
  <outline>
    <contour>
      <point x="190" y="314" type="line" smooth="yes"/>
      <point x="150" y="314"/>
      <point x="150" y="354" type="qcurve" smooth="yes"/>
      <point x="150" y="399" type="line" smooth="yes"/>
      <point x="150" y="439"/>
      <point x="190" y="439" type="qcurve" smooth="yes"/>
      <point x="211" y="439" type="line" smooth="yes"/>
      <point x="251" y="439"/>
      <point x="251" y="399" type="qcurve" smooth="yes"/>
      <point x="251" y="354" type="line" smooth="yes"/>
      <point x="251" y="314"/>
      <point x="211" y="314" type="qcurve" smooth="yes"/>
    </contour>
    <contour>
      <point x="554" y="314" type="line" smooth="yes"/>
      <point x="514" y="314"/>
      <point x="514" y="354" type="qcurve" smooth="yes"/>
      <point x="514" y="399" type="line" smooth="yes"/>
      <point x="514" y="439"/>
      <point x="554" y="439" type="qcurve" smooth="yes"/>
      <point x="575" y="439" type="line" smooth="yes"/>
      <point x="615" y="439"/>
      <point x="615" y="399" type="qcurve" smooth="yes"/>
      <point x="615" y="354" type="line" smooth="yes"/>
      <point x="615" y="314"/>
      <point x="575" y="314" type="qcurve" smooth="yes"/>
    </contour>
  </outline>
</glyph>
<glyph name="guilsinglleft" format="2">
  <advance width="258"/>
  <unicode hex="2039"/>
  <outline>
    <contour>
      <point x="133" y="32" type="qcurve" smooth="yes"/>
      <point x="51" y="229" type="line" smooth="yes"/>
      <point x="45" y="244"/>
      <point x="45" y="261" type="qcurve" smooth="yes"/>
      <point x="45" y="280"/>
      <point x="51" y="293" type="qcurve" smooth="yes"/>
      <point x="133" y="490" type="line" smooth="yes"/>
      <point x="139" y="504"/>
      <point x="165" y="522"/>
      <point x="181" y="522" type="qcurve" smooth="yes"/>
      <point x="198" y="522" type="line" smooth="yes"/>
      <point x="214" y="522"/>
      <point x="223" y="509"/>
      <point x="223" y="503" type="qcurve" smooth="yes"/>
      <point x="223" y="498"/>
      <point x="220" y="490" type="qcurve" smooth="yes"/>
      <point x="138" y="293" type="line" smooth="yes"/>
      <point x="132" y="280"/>
      <point x="132" y="261" type="qcurve" smooth="yes"/>
      <point x="132" y="244"/>
      <point x="138" y="229" type="qcurve" smooth="yes"/>
      <point x="220" y="32" type="line" smooth="yes"/>
      <point x="223" y="25"/>
      <point x="223" y="19" type="qcurve" smooth="yes"/>
      <point x="223" y="14"/>
      <point x="214" y="0"/>
      <point x="198" y="0" type="qcurve" smooth="yes"/>
      <point x="181" y="0" type="line" smooth="yes"/>
      <point x="165" y="0"/>
      <point x="139" y="18"/>
    </contour>
  </outline>
</glyph>
<glyph name="guilsinglright" format="2">
  <advance width="258"/>
  <unicode hex="203A"/>
  <outline>
    <contour>
      <point x="35" y="19" type="qcurve" smooth="yes"/>
      <point x="35" y="25"/>
      <point x="38" y="32" type="qcurve" smooth="yes"/>
      <point x="120" y="229" type="line" smooth="yes"/>
      <point x="126" y="244"/>
      <point x="126" y="261" type="qcurve" smooth="yes"/>
      <point x="126" y="280"/>
      <point x="120" y="293" type="qcurve" smooth="yes"/>
      <point x="38" y="490" type="line" smooth="yes"/>
      <point x="35" y="498"/>
      <point x="35" y="503" type="qcurve" smooth="yes"/>
      <point x="35" y="509"/>
      <point x="44" y="522"/>
      <point x="60" y="522" type="qcurve" smooth="yes"/>
      <point x="77" y="522" type="line" smooth="yes"/>
      <point x="93" y="522"/>
      <point x="119" y="504"/>
      <point x="125" y="490" type="qcurve" smooth="yes"/>
      <point x="207" y="293" type="line" smooth="yes"/>
      <point x="213" y="280"/>
      <point x="213" y="261" type="qcurve" smooth="yes"/>
      <point x="213" y="244"/>
      <point x="207" y="229" type="qcurve" smooth="yes"/>
      <point x="125" y="32" type="line" smooth="yes"/>
      <point x="119" y="18"/>
      <point x="93" y="0"/>
      <point x="77" y="0" type="qcurve" smooth="yes"/>
      <point x="60" y="0" type="line" smooth="yes"/>
      <point x="44" y="0"/>
      <point x="35" y="14"/>
    </contour>
  </outline>
</glyph>
